<?xml version="1.0" encoding="utf-8"?>
<!-- Generator: Adobe Illustrator 16.0.0, SVG Export Plug-In . SVG Version: 6.00 Build 0)  -->
<!DOCTYPE svg PUBLIC "-//W3C//DTD SVG 1.1//EN" "http://www.w3.org/Graphics/SVG/1.1/DTD/svg11.dtd">
<svg version="1.1" id="Capa_1" xmlns="http://www.w3.org/2000/svg" xmlns:xlink="http://www.w3.org/1999/xlink" x="0px" y="0px"
	 width="955.502px" height="1018.752px" viewBox="0 0 955.502 1018.752" enable-background="new 0 0 955.502 1018.752"
	 xml:space="preserve">
<g>
	<g>
		<g>
			<path fill-rule="evenodd" clip-rule="evenodd" fill="#C0D0D6" d="M491.311,924.012l15.185,3.843l-17.044-0.491
				c-0.581,0.899-1.248,1.806-1.986,2.669l11.154,8.885l-13.873-6.242c-0.472,0.372-0.963,0.713-1.472,1.019
				c-0.711,0.423-1.554,0.847-2.482,1.228l2.448,13.562l-6.079-12.404c-1.406,0.331-2.875,0.538-4.331,0.569l-10.411,15.397
				l6.717-15.753c-1.531-0.37-2.945-1.024-4.122-2.063l-8.976,4.423v-1.637l7.157-5.026c-0.796-1.293-1.262-2.443-1.504-3.449
				l-5.653-0.801v-1.661l5.502-0.217c0.276-1.871,1.325-2.802,1.325-2.802l0.017-0.291l-6.844-2.192v-0.926l7.013,0.464
				c0.117-1.641,0.286-3.546,0.479-4.554c0.377-1.992,0.663-3.042,1.519-3.131c0.855-0.097,1.614,0.658,1.614,0.658l0.188-1.518
				c0,0-0.852-2.087-1.517-3.414c-0.666-1.33-1.329-3.136-1.329-3.136s-3.609,1.708-4.842,2.849
				c-1.233,1.14-1.329,1.044-1.899,2.657c-0.57,1.615-0.189,2.562-1.045,3.99c-0.065,0.112-0.127,0.223-0.18,0.339V634.643h81.832
				l-0.195,40.918l3.508,5.26l-5.46,2.347l0.193,8.381l-14.129,3.675c-0.286,0.509-0.589,1.074-0.919,1.706
				c-3.607,6.932-5.697,16.138-5.697,16.138s1.613-1.517,1.141,4.274c-0.476,5.788-1.807,12.34-1.995,15.76
				c-0.189,3.414,0.474,7.781,0.474,7.781s2.659,1.333,1.994,4.465c-0.666,3.13-1.327,10.727-1.327,10.727s1.521-0.474,1.044,3.989
				c-0.477,4.458-4.084,50.977-4.084,50.977s2.659-0.664,3.988-1.708c1.327-1.042,7.121-1.042,9.876,3.983
				c2.75,5.035,3.793,9.019,3.984,11.586c0.19,2.562,2.563,6.457,2.375,9.019c-0.192,2.562,0.567,7.972-0.953,9.876
				c-1.518,1.895-1.329,4.362-1.801,6.262c-0.477,1.896-0.288,2.281-0.951,3.228c-0.664,0.947-1.708,2.563-1.708,2.563l4.271,10.253
				l-4.081,7.023l-4.08,0.853l-3.894-8.256c0,0-1.424,0.854-2.183,1.422c-0.76,0.572-5.604,9.876-7.026,12.817
				c-1.423,2.944-3.229,5.315-4.843,7.217c-1.613,1.896-2.183,2.37-3.795,3.132c-1.614,0.755,0.475,1.422-2.372,2.755
				c-2.852,1.326-5.319,3.417-6.271,5.788c-0.948,2.377-0.755,1.806-0.755,1.806s1.421-0.473,1.804,0.949
				c0.379,1.422-1.331,4.176-1.331,4.176s1.046,3.51,0.572,5.315c-0.477,1.806-1.899,2.752-1.899,2.752l-0.57,2.851
				c0,0,0.568-1.14,1.425,0.186c0.852,1.334,0.664,2.28-0.095,5.034C491.947,922.49,491.677,923.209,491.311,924.012z
				 M456.039,938.652l-7.776,3.828l7.776-5.465V938.652L456.039,938.652z M456.039,927.739v-1.661l-6.843,0.274
				c0.354-2.024,1.427-2.638,2.278-2.722c0.878-0.09,1.516-1.972,2.586-3.68l1.979,0.625v-0.926l-1.713-0.112
				c1.132-1.661,1.06-3.317,1.713-4.683V634.643h-34.396v43.645l-2.925,4.88l5.266,3.7v8.976l14.749,1.352
				c0.214,0.269,0.469,0.521,0.779,0.778c3.325,2.755,8.069,5.411,10.729,9.401c2.657,3.988,3.984,20.508,4.365,26.104
				c0.381,5.604,0.19,7.878,0.19,7.878s-1.708,4.56-2.94,8.548c-1.236,3.986-2.468,7.781-3.04,10.818
				c-0.57,3.044-0.762,5.315-1.612,9.78c-0.857,4.463-0.857,17.468-0.857,17.468s-0.188,2.277-0.757,4.177
				c-0.568,1.896-0.762,4.46-0.762,4.46s-0.662,1.806-1.329,4.653c-0.661,2.851-1.027,6.776-1.315,12.698
				c-0.288,5.923,1.434,13.172,1.434,13.172s-1.031,1.491-2.239,3.454c-1.208,1.952-1.553,9.545,0.459,17.997
				c2.013,8.453,7.073,14.839,7.073,14.839s-0.46,0.974-1.955,4.713c-1.493,3.741-1.148,4.082-1.897,9.142
				c-0.746,5.059-1.15,3.965-2.759,5.633c-1.609,1.672-0.864,5.121-1.553,4.721c-0.69-0.405-1.036,0.863-3.507,0.687
				c-2.476-0.169-1.726,3.105-1.612,7.995c0.114,4.891,2.761,11.271,3.507,12.824c0.751,1.553,0.12,3.971-0.688,6.672
				c-0.805,2.705-1.611,5.752-3.798,11.1c-2.182,5.347-3.852,15.644-4.366,18.69c-0.519,3.046-1.038,7.818-1.038,7.189
				c0-0.632-1.093-1.901-2.126-1.901c-1.035,0-2.359,2.935-2.359,2.935s-0.401,0.112-0.46,2.067
				c-0.056,1.954-0.805,1.959-1.321,2.991c-0.518,1.033,0.46,1.552,0.46,1.552s-0.116,1.098,0.399,2.3
				c0.521,1.21-0.283,5.059-0.283,5.059s-1.037,0.289-1.899,1.903c-0.862,1.609,0.689,2.184,0.689,2.184s-1.265,0.805-1.265,2.127
				c0,1.325,0.803,1.385,0.803,1.385s-1.205,1.092-0.974,2.354c0.229,1.27,1.608,1.04,1.608,1.04v1.666c0,0-0.347,1.039-0.718,1.693
				c-1.64,0.851-2.659,1.971-1.813,2.616c-0.564,0.201-1.161,0.416-1.667,0.576c-1.437,0.461-2.071,1.664-2.762,2.299
				c-0.691,0.636-0.517,1.329,0,1.785c0.519,0.459,0.749,2.473,1.094,3.105c-0.111,1.454-2.199,2.498-2.199,2.498l1.615-0.095
				l-0.475,1.324l1.895-0.188l0.479,1.237l2.658-0.384l1.421,1.806l1.718-0.676c-0.046,0.665-0.263,1.282-0.901,2.353
				c-1.38,1.844-2.933,5.236-1.148,7.593c1.781,2.358,2.758,1.207,4.139,2.817c1.381,1.613,2.876,3.508,4.373,2.815
				c1.493-0.686-0.061-4.771,1.379-3.907c1.438,0.861,2.242-0.4,3.794,0.633c1.555,1.035,2.704,3.451,3.163,2.699
				c0.457-0.743,0-1.954-0.172-3.442c-0.173-1.499-4.313-4.833-5.118-6.501c-0.804-1.666-1.093-2.476-1.784-2.765
				c-0.398-0.166-0.295-0.821-0.138-1.588v-0.006c0.114-0.548,0.255-1.154,0.255-1.682l3.638,0.612l0.383-1.428l2.465,0.384
				l-0.475-1.33l1.71-0.193c0,0-1.141-1.038-1.71-2.178c-0.572-1.141,0.475-2.094,1.234-3.611c0.76-1.52-1.046-2.184-1.046-3.135
				c0-0.946-5.692-2.086-5.692-2.086s0.854-0.853,0.759-1.517c-0.095-0.666-1.424-1.333-1.424-1.333l-0.381-3.793
				c0,0,0.381-0.094,1.899-1.996c1.518-1.896,2.66-4.651,3.702-7.973c1.044-3.323,0.854-4.748,2.373-9.876
				c1.519-5.123,0.664-4.177,3.893-11.297c3.229-7.117,5.979-16.519,6.173-19.175c0.007-0.131,0.02-0.25,0.034-0.375
				L456.039,927.739z"/>
			<g>
				<rect x="304.439" y="620.879" fill-rule="evenodd" clip-rule="evenodd" fill="#C0D0D6" width="6.946" height="292.999"/>
				<rect x="352.079" y="620.879" fill-rule="evenodd" clip-rule="evenodd" fill="#C0D0D6" width="6.947" height="292.999"/>
				<rect x="304.439" y="864.384" fill-rule="evenodd" clip-rule="evenodd" fill="#C0D0D6" width="54.587" height="6.944"/>
				<rect x="304.439" y="764.639" fill-rule="evenodd" clip-rule="evenodd" fill="#C0D0D6" width="54.587" height="6.95"/>
			</g>
			<path fill="#C0D0D6" d="M576.52,769.213c11.404,24.074,17.073,45.983,20.924,63.531l4.314-0.935
				c-3.272-14.909-7.841-32.934-16.051-52.77v-41.523c3.121,3.351,6.132,6.68,9.026,9.988
				c28.617,32.648,46.063,62.646,51.023,85.239l4.316-0.935c-2.442-11.121-7.781-23.942-15.866-37.925V631.131h-4.422V786.56
				c-3.204-5.097-6.755-10.332-10.638-15.675V633.979h-4.423v130.967c-5.058-6.642-10.622-13.438-16.674-20.346
				c-3.911-4.463-8.028-8.97-12.344-13.513v-97.108h-4.423v92.517c-1.563-1.608-3.151-3.218-4.765-4.825v6.254
				c1.613,1.64,3.201,3.275,4.765,4.909v36.142c-1.485-3.197-3.074-6.436-4.765-9.707V769.213z M562.898,744.254
				c1.608,2.584,3.145,5.157,4.609,7.713c3.35,5.847,6.337,11.604,9.013,17.246v-9.945c-1.504-2.897-3.091-5.821-4.77-8.771V723.14
				c1.615,1.598,3.2,3.191,4.77,4.784v-6.254c-1.569-1.566-3.159-3.126-4.77-4.699v-82.992h-4.42v78.739
				c-1.459-1.392-2.937-2.78-4.433-4.173v6.036c1.496,1.41,2.976,2.827,4.433,4.238v24.204c-1.417-2.307-2.896-4.629-4.433-6.956
				V744.254z M549.096,724.222c5.13,6.746,9.704,13.437,13.802,20.032v-8.187c-1.424-2.163-2.898-4.331-4.432-6.511v-19.119
				c1.494,1.385,2.972,2.763,4.432,4.144v-6.036c-1.46-1.363-2.938-2.721-4.432-4.085v-70.481h-4.423v66.492
				c-1.63-1.454-3.279-2.913-4.947-4.369v5.861c1.67,1.475,3.317,2.957,4.947,4.434v17.064c-1.595-2.144-3.243-4.283-4.947-6.437
				V724.222z M535.272,707.448c5.005,5.618,9.602,11.219,13.824,16.773v-7.197c-1.598-2.012-3.247-4.036-4.946-6.06v-13.334
				c1.666,1.443,3.314,2.889,4.946,4.332v-5.861c-1.632-1.425-3.28-2.848-4.946-4.276v-57.847h-4.419v54.102
				c-1.476-1.234-2.961-2.47-4.459-3.701v5.715c1.5,1.249,2.983,2.5,4.459,3.753v11.981c-1.452-1.65-2.94-3.295-4.459-4.946V707.448
				z M420.362,707.448c15.069-16.906,33.866-33.982,57.457-50.648c23.584,16.666,42.383,33.742,57.453,50.648v-6.566
				c-1.454-1.577-2.939-3.155-4.456-4.729v-9.738c1.497,1.226,2.985,2.455,4.456,3.68v-5.715c-1.471-1.212-2.959-2.43-4.456-3.637
				v-46.764h-4.42v43.22c-10.516-8.354-21.648-16.681-33.372-24.895l-2.521,3.607c12.677,8.882,24.648,17.884,35.894,26.919v8.826
				c-13.233-13.199-28.842-26.403-47.318-39.353l-1.259,1.806l-1.263-1.806c-18.478,12.949-34.086,26.153-47.318,39.353v-8.826
				c11.247-9.035,23.219-18.037,35.894-26.919l-2.521-3.607c-11.726,8.214-22.855,16.541-33.373,24.895v-43.22h-4.42v46.764
				c-1.499,1.207-2.984,2.425-4.456,3.637v5.715c1.472-1.225,2.957-2.454,4.456-3.68v9.738c-1.518,1.574-3.004,3.152-4.456,4.729
				V707.448z M406.536,724.222c4.223-5.555,8.82-11.155,13.826-16.773v-6.566c-1.521,1.651-3.006,3.296-4.458,4.946v-11.981
				c1.472-1.253,2.956-2.504,4.458-3.753v-5.715c-1.498,1.231-2.986,2.467-4.458,3.701v-54.102h-4.42v57.847
				c-1.668,1.429-3.316,2.852-4.948,4.276v5.861c1.63-1.443,3.28-2.889,4.948-4.332v13.334c-1.698,2.023-3.348,4.048-4.948,6.06
				V724.222z M392.734,744.254c4.1-6.596,8.674-13.286,13.802-20.032v-7.197c-1.705,2.153-3.354,4.293-4.946,6.437v-17.064
				c1.628-1.477,3.278-2.959,4.946-4.434v-5.861c-1.668,1.456-3.316,2.915-4.946,4.369v-66.492h-4.421v70.481
				c-1.495,1.364-2.971,2.722-4.435,4.085v6.036c1.459-1.381,2.939-2.759,4.435-4.144v19.119c-1.53,2.18-3.009,4.348-4.435,6.511
				V744.254z M379.115,769.213c2.674-5.643,5.658-11.399,9.012-17.246c1.464-2.556,2.999-5.129,4.607-7.713v-8.187
				c-1.536,2.327-3.012,4.649-4.431,6.956v-24.204c1.459-1.411,2.935-2.822,4.431-4.238v-6.036
				c-1.494,1.393-2.972,2.781-4.431,4.173v-78.739h-4.42v82.992c-1.613,1.573-3.202,3.139-4.768,4.699v6.254
				c1.566-1.593,3.153-3.187,4.768-4.784v27.356c-1.679,2.95-3.267,5.874-4.768,8.778V769.213z M358.192,832.744
				c3.85-17.548,9.517-39.457,20.923-63.531v-9.938c-1.694,3.271-3.281,6.503-4.767,9.7v-36.142c1.563-1.634,3.152-3.27,4.767-4.909
				v-6.254c-1.615,1.614-3.2,3.217-4.767,4.825v-92.517h-4.421v97.108c-4.317,4.543-8.431,9.05-12.343,13.513
				c-6.054,6.907-11.615,13.704-16.677,20.346V633.979h-4.422v136.906c-3.883,5.343-7.433,10.578-10.636,15.675V631.131h-4.421
				v162.754c-8.085,13.982-13.426,26.804-15.864,37.925l4.314,0.935c4.958-22.594,22.403-52.591,51.021-85.239
				c2.897-3.309,5.906-6.638,9.028-9.988v41.523c-8.211,19.836-12.781,37.86-16.053,52.77L358.192,832.744z"/>
			<g>
				<rect x="644.249" y="620.879" fill-rule="evenodd" clip-rule="evenodd" fill="#C0D0D6" width="6.947" height="292.999"/>
				<rect x="596.606" y="620.879" fill-rule="evenodd" clip-rule="evenodd" fill="#C0D0D6" width="6.949" height="292.999"/>
				<rect x="596.606" y="864.384" fill-rule="evenodd" clip-rule="evenodd" fill="#C0D0D6" width="54.588" height="6.944"/>
				<rect x="596.606" y="764.639" fill-rule="evenodd" clip-rule="evenodd" fill="#C0D0D6" width="54.588" height="6.95"/>
			</g>
		</g>
		<polygon fill-rule="evenodd" clip-rule="evenodd" fill="#C0D0D6" points="296.111,804.442 285.962,809.389 285.962,819.154 
			278.452,822.818 278.452,840.092 273.194,842.658 273.194,864.439 268.742,866.605 268.742,866.612 262.401,864.439 
			262.401,842.658 254.914,840.092 254.914,822.818 244.217,819.154 244.217,809.389 229.764,804.442 229.764,620.879 
			268.742,620.879 268.742,620.879 296.111,620.879 		"/>
		<polygon fill-rule="evenodd" clip-rule="evenodd" fill="#C0D0D6" points="658.048,818.071 670.461,823.39 691.525,832.41 
			691.525,832.378 691.527,832.41 723.053,823.39 741.629,818.071 741.629,620.879 691.527,620.879 691.525,620.899 
			691.525,620.879 658.048,620.879 		"/>
		<rect y="584.828" fill-rule="evenodd" clip-rule="evenodd" fill="#C0D0D6" width="955.502" height="60.478"/>
		<polygon fill-rule="evenodd" clip-rule="evenodd" fill="#C0D0D6" points="912.837,747.689 919.363,750.874 919.363,757.155 
			924.192,759.509 924.192,770.613 927.573,772.264 927.573,786.27 930.437,787.67 930.437,787.67 934.514,786.27 934.514,772.264 
			939.329,770.613 939.329,759.509 946.208,757.155 946.208,750.874 955.502,747.689 955.502,629.651 930.437,629.651 
			930.437,629.651 912.837,629.651 		"/>
		<polygon fill-rule="evenodd" clip-rule="evenodd" fill="#C0D0D6" points="746.516,773.826 759.675,783.324 759.675,783.324 
			786.891,778.119 802.932,775.05 802.932,640.964 746.516,640.964 		"/>
		<polygon fill-rule="evenodd" clip-rule="evenodd" fill="#C0D0D6" points="807.818,728.137 818.927,736.152 818.927,736.152 
			841.901,731.757 855.443,729.168 855.443,615.984 807.818,615.984 		"/>
		<polygon fill-rule="evenodd" clip-rule="evenodd" fill="#C0D0D6" points="860.327,734.382 871.435,742.401 871.435,742.401 
			894.413,738.007 907.951,735.418 907.951,622.233 860.327,622.233 		"/>
		<polygon fill-rule="evenodd" clip-rule="evenodd" fill="#C0D0D6" points="223.383,787.328 211.572,792.389 191.526,800.979 
			191.526,800.943 191.526,800.975 161.525,792.389 143.847,787.328 143.847,624.438 191.526,624.438 191.526,624.456 
			191.526,624.438 223.383,624.438 		"/>
		<polygon fill-rule="evenodd" clip-rule="evenodd" fill="#C0D0D6" points="137.559,748.516 127.564,752.797 110.608,760.063 
			110.608,760.031 110.605,760.063 85.222,752.797 70.266,748.516 70.266,637.199 110.605,637.199 110.608,637.221 110.608,637.199 
			137.559,637.199 		"/>
		<polygon fill-rule="evenodd" clip-rule="evenodd" fill="#C0D0D6" points="65.227,773.777 60.758,775.695 53.173,778.946 
			53.173,778.93 53.173,778.939 41.823,775.695 35.132,773.777 35.132,632.033 53.173,632.033 53.173,632.043 53.173,632.033 
			65.227,632.033 		"/>
		<polygon fill-rule="evenodd" clip-rule="evenodd" fill="#C0D0D6" points="30.094,764.479 25.625,766.391 18.041,769.644 
			18.041,769.629 18.041,769.639 6.69,766.391 0,764.479 0,622.731 18.041,622.731 18.041,622.742 18.041,622.731 30.094,622.731 		
			"/>
	</g>
	<g>
		<polygon fill-rule="evenodd" clip-rule="evenodd" fill="#4F646E" points="0,350.248 14.662,343.965 39.541,333.308 
			39.541,333.351 39.543,333.308 76.779,343.965 98.724,350.248 98.724,552.436 39.543,552.436 39.541,552.407 39.541,552.434 
			0,552.434 		"/>
		<polygon fill-rule="evenodd" clip-rule="evenodd" fill="#4F646E" points="955.502,406.872 940.839,400.593 915.959,389.935 
			915.959,389.977 915.959,389.935 878.722,400.593 856.779,406.875 856.779,565.825 915.959,565.825 915.959,565.798 
			915.959,565.825 955.502,565.825 		"/>
		<polygon fill-rule="evenodd" clip-rule="evenodd" fill="#4F646E" points="762.927,337.507 749.042,331.555 725.474,321.461 
			725.474,321.499 725.47,321.461 690.2,331.555 669.414,337.507 669.414,540.511 725.47,540.511 725.474,540.484 725.474,540.507 
			762.927,540.507 		"/>
		<polygon fill-rule="evenodd" clip-rule="evenodd" fill="#4F646E" points="787.19,371.779 796.687,367.146 796.687,358.005 
			803.714,354.578 803.714,338.41 808.634,336.011 808.634,315.623 812.804,313.589 812.804,313.589 818.739,315.621 
			818.739,336.008 825.749,338.41 825.749,354.578 835.761,358.005 835.761,367.146 849.292,371.779 849.292,546.667 
			812.804,546.667 812.804,546.671 787.19,546.671 		"/>
		<polygon fill-rule="evenodd" clip-rule="evenodd" fill="#4F646E" points="105.577,381.734 119.103,375.939 142.06,366.104 
			142.06,366.142 142.062,366.104 176.42,375.939 196.667,381.734 196.667,568.293 142.062,568.293 142.06,568.267 142.06,568.29 
			105.577,568.29 		"/>
		<polygon fill-rule="evenodd" clip-rule="evenodd" fill="#4F646E" points="196.667,413.919 207.358,409.339 225.506,401.568 
			225.506,401.597 225.506,401.568 252.661,409.339 268.665,413.919 268.665,561.378 225.506,561.378 225.506,561.357 
			225.506,561.374 196.667,561.374 		"/>
	</g>
	<g>
		<g>
			<path fill-rule="evenodd" clip-rule="evenodd" fill="#13181A" d="M491.311,245.64l15.185-3.84l-17.044,0.488
				c-0.581-0.895-1.248-1.802-1.986-2.663l11.154-8.89l-13.873,6.245c-0.472-0.373-0.963-0.715-1.472-1.017
				c-0.711-0.426-1.554-0.845-2.482-1.229l2.448-13.563l-6.079,12.405c-1.408-0.328-2.875-0.538-4.335-0.569l-10.407-15.399
				l6.717,15.756c-1.531,0.365-2.943,1.022-4.122,2.061l-8.976-4.42v1.635l7.155,5.03c-0.794,1.287-1.26,2.437-1.5,3.443l-5.655,0.8
				v1.662l5.502,0.218c0.276,1.867,1.321,2.802,1.321,2.802l0.017,0.294l-6.84,2.186v0.929l7.013-0.463
				c0.117,1.64,0.286,3.545,0.479,4.554c0.381,1.995,0.663,3.04,1.519,3.135c0.855,0.094,1.614-0.666,1.614-0.666l0.188,1.521
				c0,0-0.855,2.088-1.517,3.417c-0.666,1.329-1.329,3.129-1.329,3.129s-3.609-1.705-4.842-2.845
				c-1.233-1.139-1.329-1.042-1.899-2.657c-0.566-1.616-0.189-2.564-1.045-3.989c-0.065-0.112-0.127-0.223-0.18-0.338V535.01h81.828
				l-0.191-40.914l3.508-5.265l-5.457-2.344l0.19-8.383l-14.129-3.678c-0.284-0.504-0.589-1.068-0.922-1.702
				c-3.604-6.929-5.694-16.139-5.694-16.139s1.615,1.518,1.141-4.271c-0.476-5.792-1.805-12.342-1.993-15.76
				c-0.191-3.417,0.477-7.785,0.477-7.785s2.656-1.33,1.991-4.462c-0.668-3.131-1.331-10.727-1.331-10.727s1.522,0.475,1.046-3.986
				c-0.477-4.464-4.084-50.979-4.084-50.979s2.659,0.663,3.988,1.708c1.327,1.044,7.121,1.044,9.876-3.987
				c2.75-5.031,3.795-9.018,3.981-11.583c0.193-2.562,2.565-6.455,2.376-9.017c-0.192-2.562,0.567-7.977-0.948-9.875
				c-1.521-1.896-1.328-4.364-1.802-6.264c-0.479-1.898-0.29-2.277-0.953-3.228c-0.664-0.951-1.708-2.565-1.708-2.565l4.269-10.25
				l-4.079-7.025l-4.08-0.853l-3.892,8.258c0,0-1.426-0.854-2.185-1.427c-0.76-0.567-5.605-9.87-7.026-12.812
				c-1.423-2.943-3.229-5.316-4.843-7.215c-1.613-1.899-2.179-2.376-3.795-3.133c-1.614-0.764,0.473-1.424-2.372-2.753
				c-2.852-1.332-5.319-3.422-6.271-5.792c-0.948-2.375-0.757-1.804-0.757-1.804s1.423,0.475,1.806-0.95
				c0.379-1.422-1.331-4.175-1.331-4.175s1.046-3.51,0.572-5.315c-0.477-1.804-1.899-2.754-1.899-2.754l-0.57-2.847
				c0,0,0.57,1.137,1.423-0.189c0.857-1.332,0.668-2.28-0.093-5.034C491.947,247.163,491.677,246.448,491.311,245.64z
				 M456.039,231.004l-7.778-3.83l7.778,5.464V231.004L456.039,231.004z M456.039,241.912v1.662l-6.843-0.274
				c0.354,2.026,1.427,2.642,2.278,2.727c0.878,0.088,1.514,1.968,2.582,3.678l1.982-0.631v0.929l-1.713,0.111
				c1.132,1.663,1.06,3.322,1.713,4.685V535.01h-34.4v-43.643l-2.921-4.879l5.266-3.702v-8.972l14.749-1.356
				c0.214-0.261,0.474-0.528,0.779-0.78c3.325-2.751,8.069-5.411,10.729-9.396c2.661-3.99,3.988-20.508,4.365-26.109
				c0.379-5.599,0.19-7.879,0.19-7.879s-1.708-4.557-2.94-8.543c-1.236-3.986-2.471-7.784-3.04-10.824
				c-0.57-3.039-0.762-5.316-1.612-9.778c-0.857-4.462-0.857-17.466-0.857-17.466s-0.191-2.277-0.761-4.178
				c-0.564-1.897-0.756-4.461-0.756-4.461s-0.664-1.803-1.329-4.65c-0.663-2.85-1.029-6.778-1.317-12.701
				c-0.288-5.925,1.438-13.169,1.438-13.169s-1.036-1.497-2.242-3.452c-1.21-1.957-1.555-9.544,0.457-18
				c2.017-8.453,7.073-14.836,7.073-14.836s-0.46-0.977-1.955-4.714c-1.493-3.739-1.148-4.085-1.896-9.145
				c-0.748-5.057-1.152-3.968-2.761-5.636c-1.609-1.667-0.864-5.118-1.557-4.717c-0.687,0.406-1.032-0.859-3.503-0.688
				c-2.476,0.172-1.726-3.105-1.612-7.994c0.114-4.888,2.761-11.27,3.507-12.825c0.747-1.553,0.12-3.969-0.688-6.669
				c-0.801-2.706-1.608-5.752-3.798-11.1c-2.182-5.347-3.85-15.641-4.365-18.69c-0.52-3.049-1.039-7.819-1.039-7.185
				c0,0.628-1.093,1.893-2.126,1.893c-1.035,0-2.359-2.932-2.359-2.932s-0.399-0.112-0.459-2.066
				c-0.057-1.958-0.806-1.958-1.322-2.994c-0.52-1.036,0.459-1.55,0.459-1.55s-0.113-1.092,0.403-2.301
				c0.52-1.209-0.286-5.061-0.286-5.061s-1.037-0.287-1.899-1.901c-0.862-1.608,0.689-2.183,0.689-2.183s-1.265-0.805-1.265-2.125
				c0-1.326,0.806-1.382,0.806-1.382s-1.208-1.092-0.977-2.36c0.227-1.262,1.608-1.03,1.608-1.03v-1.672
				c0,0-0.347-1.037-0.718-1.692c-1.64-0.854-2.663-1.973-1.813-2.615c-0.563-0.208-1.161-0.418-1.667-0.581
				c-1.437-0.46-2.071-1.669-2.762-2.3c-0.691-0.631-0.514-1.321,0-1.782c0.519-0.458,0.749-2.471,1.091-3.105
				c-0.108-1.454-2.196-2.497-2.196-2.497l1.615,0.095l-0.477-1.33l1.896,0.192l0.476-1.235l2.661,0.378l1.421-1.802l1.718,0.679
				c-0.046-0.668-0.266-1.287-0.901-2.357c-1.378-1.843-2.933-5.233-1.148-7.592c1.781-2.357,2.758-1.208,4.139-2.816
				c1.379-1.614,2.878-3.509,4.373-2.82c1.493,0.69-0.061,4.775,1.379,3.912c1.438-0.866,2.242,0.399,3.79-0.634
				c1.559-1.033,2.706-3.449,3.167-2.7c0.457,0.745,0,1.951-0.172,3.449c-0.173,1.494-4.313,4.83-5.118,6.498
				c-0.804,1.667-1.094,2.474-1.784,2.762c-0.398,0.165-0.292,0.82-0.138,1.589l0,0c0.114,0.552,0.255,1.159,0.255,1.686l3.64-0.612
				l0.376,1.424l2.47-0.377l-0.475,1.33l1.71,0.188c0,0-1.138,1.044-1.71,2.181c-0.572,1.144,0.475,2.091,1.234,3.61
				c0.76,1.52-1.046,2.183-1.046,3.134c0,0.948-5.692,2.088-5.692,2.088s0.854,0.855,0.759,1.517
				c-0.097,0.667-1.423,1.333-1.423,1.333l-0.382,3.798c0,0,0.382,0.093,1.899,1.991c1.518,1.897,2.655,4.654,3.702,7.975
				c1.044,3.321,0.854,4.746,2.373,9.874c1.519,5.125,0.664,4.177,3.893,11.295c3.225,7.122,5.979,16.517,6.169,19.178
				c0.011,0.128,0.023,0.251,0.038,0.373L456.039,241.912z"/>
			<g>
				<rect x="304.439" y="255.779" fill-rule="evenodd" clip-rule="evenodd" fill="#13181A" width="6.946" height="292.996"/>
				<rect x="352.079" y="255.779" fill-rule="evenodd" clip-rule="evenodd" fill="#13181A" width="6.947" height="292.996"/>
				<rect x="304.439" y="298.321" fill-rule="evenodd" clip-rule="evenodd" fill="#13181A" width="54.587" height="6.948"/>
				<rect x="304.439" y="398.065" fill-rule="evenodd" clip-rule="evenodd" fill="#13181A" width="54.587" height="6.948"/>
			</g>
			<path fill="#13181A" d="M576.518,400.445c11.406-24.075,17.075-45.987,20.926-63.532l4.314,0.93
				c-3.272,14.91-7.839,32.935-16.051,52.771v41.527c3.123-3.354,6.132-6.682,9.026-9.988c28.617-32.653,46.061-62.648,51.023-85.24
				l4.316,0.93c-2.442,11.125-7.781,23.947-15.87,37.925v162.753h-4.418V383.093c-3.204,5.098-6.753,10.333-10.638,15.676v136.904
				h-4.423V404.708c-5.062,6.641-10.62,13.438-16.674,20.346c-3.911,4.461-8.028,8.972-12.344,13.513v97.105h-4.423v-92.511
				c-1.563,1.602-3.155,3.211-4.767,4.822v-6.249c1.615-1.642,3.203-3.281,4.767-4.917V400.68c-1.489,3.199-3.074,6.435-4.767,9.705
				V400.445z M562.898,425.4c1.608-2.589,3.145-5.16,4.612-7.712c3.347-5.849,6.334-11.604,9.008-17.243v9.94
				c-1.506,2.9-3.089,5.824-4.77,8.772v27.355c1.612-1.598,3.202-3.189,4.77-4.777v6.249c-1.567,1.563-3.157,3.129-4.77,4.698
				v82.991h-4.416v-78.736c-1.461,1.391-2.938,2.781-4.435,4.175v-6.039c1.496-1.418,2.974-2.826,4.435-4.234v-24.211
				c-1.419,2.31-2.898,4.631-4.435,6.961V425.4z M549.098,445.43c5.128-6.749,9.702-13.439,13.8-20.03v8.189
				c-1.424,2.16-2.903,4.328-4.432,6.507v19.121c1.494-1.384,2.972-2.763,4.432-4.143v6.039c-1.46,1.361-2.938,2.721-4.432,4.083
				v70.479h-4.421v-66.49c-1.629,1.457-3.279,2.914-4.947,4.371v-5.865c1.668-1.478,3.318-2.951,4.947-4.427v-17.066
				c-1.597,2.139-3.245,4.283-4.947,6.433V445.43z M535.272,462.203c5.005-5.617,9.602-11.215,13.826-16.773v7.199
				c-1.6,2.016-3.249,4.037-4.948,6.059v13.334c1.666-1.447,3.316-2.891,4.948-4.333v5.865c-1.634,1.424-3.282,2.849-4.948,4.274
				v57.845h-4.419v-54.1c-1.476,1.235-2.959,2.468-4.459,3.702v-5.716c1.5-1.249,2.983-2.499,4.459-3.75V463.83
				c-1.452,1.643-2.938,3.291-4.459,4.943V462.203z M420.362,462.205c15.069,16.906,33.868,33.981,57.457,50.646
				c23.589-16.665,42.383-33.741,57.453-50.649v6.571c-1.454,1.574-2.939,3.15-4.456,4.728v9.737
				c1.502-1.224,2.985-2.453,4.456-3.68v5.716c-1.471,1.214-2.959,2.428-4.456,3.639v46.76h-4.42v-43.216
				c-10.52,8.354-21.648,16.676-33.372,24.893l-2.523-3.606c12.679-8.884,24.65-17.885,35.896-26.92V478
				c-13.229,13.196-28.842,26.403-47.318,39.349l-1.259-1.803l-1.263,1.803c-18.476-12.946-34.086-26.153-47.318-39.349v8.823
				c11.247,9.035,23.219,18.036,35.894,26.92l-2.522,3.606c-11.724-8.217-22.854-16.539-33.371-24.893v43.216h-4.42v-46.76
				c-1.499-1.21-2.984-2.425-4.456-3.638v-5.717c1.472,1.231,2.957,2.456,4.456,3.68v-9.737c-1.52-1.575-3.004-3.153-4.456-4.728
				V462.205z M406.536,445.433c4.223,5.555,8.82,11.153,13.826,16.772v6.568c-1.521-1.649-3.006-3.298-4.458-4.943v11.979
				c1.472,1.251,2.956,2.501,4.458,3.75v5.717c-1.502-1.235-2.986-2.468-4.458-3.703v54.1h-4.418v-57.845
				c-1.67-1.425-3.318-2.85-4.95-4.274v-5.865c1.63,1.442,3.28,2.89,4.95,4.333v-13.334c-1.7-2.022-3.35-4.042-4.95-6.059V445.433z
				 M392.734,425.4c4.1,6.591,8.674,13.281,13.802,20.033v7.196c-1.705-2.15-3.354-4.294-4.948-6.433v17.066
				c1.63,1.472,3.28,2.949,4.948,4.427v5.865c-1.668-1.458-3.316-2.914-4.948-4.371v66.49h-4.419v-70.479
				c-1.495-1.364-2.971-2.725-4.435-4.083v-6.039c1.459,1.377,2.939,2.759,4.435,4.143v-19.121c-1.53-2.179-3.009-4.35-4.435-6.509
				V425.4z M379.115,400.44c2.674,5.639,5.658,11.399,9.012,17.248c1.464,2.551,2.999,5.123,4.607,7.712v8.187
				c-1.536-2.331-3.012-4.649-4.431-6.958v24.211c1.459,1.408,2.937,2.816,4.431,4.234v6.039c-1.494-1.394-2.972-2.785-4.431-4.175
				v78.736h-4.42v-82.991c-1.613-1.568-3.202-3.135-4.768-4.698v-6.253c1.566,1.592,3.153,3.184,4.768,4.782v-27.355
				c-1.679-2.95-3.267-5.875-4.768-8.772V400.44z M358.192,336.913c3.85,17.545,9.517,39.454,20.923,63.527v9.945
				c-1.694-3.271-3.281-6.509-4.767-9.705v36.139c1.563,1.635,3.152,3.271,4.767,4.912v6.253c-1.615-1.614-3.2-3.22-4.767-4.822
				v92.511h-4.421v-97.105c-4.317-4.542-8.431-9.052-12.343-13.513c-6.054-6.908-11.615-13.706-16.679-20.346v130.965h-4.42V398.769
				c-3.885-5.342-7.429-10.578-10.636-15.676v155.429h-4.421V375.769c-8.081-13.982-13.426-26.8-15.864-37.925l4.314-0.93
				c4.958,22.592,22.403,52.587,51.021,85.24c2.897,3.306,5.906,6.634,9.028,9.988v-41.527
				c-8.211-19.835-12.781-37.86-16.053-52.771L358.192,336.913z"/>
			<g>
				<rect x="644.249" y="255.779" fill-rule="evenodd" clip-rule="evenodd" fill="#13181A" width="6.947" height="292.996"/>
				<rect x="596.606" y="255.779" fill-rule="evenodd" clip-rule="evenodd" fill="#13181A" width="6.949" height="292.996"/>
				<rect x="596.606" y="298.321" fill-rule="evenodd" clip-rule="evenodd" fill="#13181A" width="54.588" height="6.948"/>
				<rect x="596.606" y="398.065" fill-rule="evenodd" clip-rule="evenodd" fill="#13181A" width="54.588" height="6.948"/>
			</g>
		</g>
		<polygon fill-rule="evenodd" clip-rule="evenodd" fill="#13181A" points="296.113,365.212 285.962,360.264 285.962,350.501 
			278.452,346.833 278.452,329.562 273.194,326.995 273.194,305.215 268.742,303.045 268.742,303.045 262.401,305.215 
			262.401,326.995 254.914,329.562 254.914,346.833 244.217,350.501 244.217,360.264 229.764,365.212 229.764,548.775 
			268.742,548.775 268.742,548.775 296.113,548.775 		"/>
		<polygon fill-rule="evenodd" clip-rule="evenodd" fill="#13181A" points="658.048,351.582 670.461,346.266 691.523,337.241 
			691.523,337.274 691.525,337.243 723.053,346.266 741.629,351.582 741.629,548.775 691.525,548.775 691.523,548.754 
			691.523,548.775 658.048,548.775 		"/>
		<rect y="524.351" fill-rule="evenodd" clip-rule="evenodd" fill="#13181A" width="955.502" height="60.476"/>
		<polygon fill-rule="evenodd" clip-rule="evenodd" fill="#13181A" points="912.837,421.962 919.363,418.782 919.363,412.5 
			924.192,410.149 924.192,399.04 927.573,397.391 927.573,383.386 930.437,381.988 930.437,381.988 934.514,383.382 
			934.514,397.389 939.329,399.04 939.329,410.146 946.208,412.502 946.208,418.782 955.502,421.965 955.502,540.002 
			930.437,540.002 930.437,540.003 912.837,540.003 		"/>
		<polygon fill-rule="evenodd" clip-rule="evenodd" fill="#13181A" points="746.516,395.828 759.675,386.331 759.677,386.331 
			786.891,391.537 802.932,394.606 802.932,528.685 746.516,528.685 		"/>
		<polygon fill-rule="evenodd" clip-rule="evenodd" fill="#13181A" points="807.818,441.517 818.927,433.499 818.927,433.499 
			841.901,437.896 855.443,440.484 855.443,553.667 807.818,553.667 		"/>
		<polygon fill-rule="evenodd" clip-rule="evenodd" fill="#13181A" points="860.327,435.271 871.435,427.252 871.435,427.252 
			894.413,431.649 907.951,434.239 907.951,547.421 860.327,547.421 		"/>
		<polygon fill-rule="evenodd" clip-rule="evenodd" fill="#13181A" points="223.383,382.323 211.572,377.266 191.526,368.676 
			191.526,368.711 191.526,368.676 161.525,377.266 143.847,382.323 143.847,545.217 191.526,545.217 191.526,545.196 
			191.526,545.217 223.383,545.217 		"/>
		<polygon fill-rule="evenodd" clip-rule="evenodd" fill="#13181A" points="137.559,421.139 127.564,416.859 110.605,409.591 
			110.605,409.62 110.605,409.594 85.222,416.859 70.266,421.139 70.266,532.454 110.605,532.454 110.605,532.433 110.605,532.454 
			137.559,532.454 		"/>
		<polygon fill-rule="evenodd" clip-rule="evenodd" fill="#13181A" points="65.227,395.876 60.758,393.961 53.173,390.712 
			53.173,390.726 53.173,390.712 41.823,393.961 35.132,395.876 35.132,537.622 53.173,537.622 53.173,537.61 53.173,537.622 
			65.227,537.622 		"/>
		<polygon fill-rule="evenodd" clip-rule="evenodd" fill="#13181A" points="30.094,405.176 25.625,403.261 18.041,400.013 
			18.041,400.022 18.041,400.013 6.69,403.261 0,405.176 0,546.922 18.041,546.922 18.041,546.912 18.041,546.922 30.094,546.922 		
			"/>
	</g>
</g>
</svg>
