<?xml version="1.0" encoding="utf-8"?>
<!-- Generator: Adobe Illustrator 16.0.0, SVG Export Plug-In . SVG Version: 6.00 Build 0)  -->
<!DOCTYPE svg PUBLIC "-//W3C//DTD SVG 1.1//EN" "http://www.w3.org/Graphics/SVG/1.1/DTD/svg11.dtd">
<svg version="1.1" id="Capa_1" xmlns="http://www.w3.org/2000/svg" xmlns:xlink="http://www.w3.org/1999/xlink" x="0px" y="0px"
	 width="331.609px" height="331.609px" viewBox="0 0 331.609 331.609" enable-background="new 0 0 331.609 331.609"
	 xml:space="preserve">
<g>
	<path fill="#FFFFFF" d="M95.033,331.609c-12.175,0-12.175-12.214-12.175-12.214V35.861c0-12.175,12.175-11.83,12.175-11.83
		s2.732-0.006,6.101-0.006c3.363-0.006,10.292,0.646,13.787,4.014c1.868,1.795,3.339,4.324,3.339,7.839
		c0,7.521-0.18,119.974-0.252,168.142c-0.018,11.938,6.713,14.676,15.039,6.105l16.798-17.288
		c8.326-8.573,21.887-8.629,30.283-0.132l17.611,17.834c8.401,8.503,15.21,5.705,15.21-6.245
		c0.013-47.933,0.023-159.598,0.023-168.287c0-11.091,9.603-11.848,9.603-11.848l60.997-0.141c11.816,0,12.195,12.197,12.195,12.197
		v272.472c0,24.024-23.287,22.908-23.287,22.908H95.033V331.609z"/>
	<path fill="#FFFFFF" d="M150.508,176.241l-5.335,5.44c-8.365,8.538-15.138,5.764-15.138-6.181V24.031
		c0,0-0.357-11.147-11.451-11.523c0,0-5.44-0.023-12.157-0.045c-6.713-0.029-10.25-7.377-2.594-10.082
		c3.444-1.213,8.13-2.034,14.493-2.034L176.732,0c7.416,0,12.652,2.897,16.305,6.611c7.02,7.119,8.076,25.617,8.076,37.563v131.201
		c0,11.95-6.773,14.718-15.133,6.173l-5.199-5.308C172.43,167.714,158.873,167.702,150.508,176.241z"/>
	<path fill="#FFFFFF" d="M56.872,331.609h13.823V24.025c0,0-2.201,0-13.823,0c-11.613,0-21.029,9.683-21.029,21.629v264.319
		C35.843,321.917,45.265,331.609,56.872,331.609z"/>
</g>
</svg>
