<?xml version="1.0" encoding="utf-8"?>
<!-- Generator: Adobe Illustrator 16.0.0, SVG Export Plug-In . SVG Version: 6.00 Build 0)  -->
<!DOCTYPE svg PUBLIC "-//W3C//DTD SVG 1.1//EN" "http://www.w3.org/Graphics/SVG/1.1/DTD/svg11.dtd">
<svg version="1.1" id="Capa_1" xmlns="http://www.w3.org/2000/svg" xmlns:xlink="http://www.w3.org/1999/xlink" x="0px" y="0px"
	 width="230.583px" height="133.402px" viewBox="0 0 230.583 133.402" enable-background="new 0 0 230.583 133.402"
	 xml:space="preserve">
<path fill="#D6EEED" d="M234.459,129.06c0,7.811-8.059,14.141-18.006,14.141H16.466c-9.943-0.002-18.004-6.331-18.004-14.141V-4.66
	c0-7.809,8.061-14.139,18.004-14.139h199.988c9.946,0,18.006,6.331,18.006,14.139V129.06L234.459,129.06z"/>
<polygon fill="#44999B" points="122.469,14 94.956,14 94.956,67.834 139.792,67.834 139.792,27.926 139.792,14 "/>
<line fill="none" stroke="#FFFFFF" stroke-width="4" stroke-miterlimit="10" x1="118.467" y1="27.926" x2="133.072" y2="27.926"/>
<line fill="none" stroke="#FFFFFF" stroke-width="4" stroke-miterlimit="10" x1="101.409" y1="37.012" x2="133.677" y2="37.012"/>
<line fill="none" stroke="#FFFFFF" stroke-width="4" stroke-miterlimit="10" x1="101.409" y1="44.993" x2="133.677" y2="44.993"/>
<line fill="none" stroke="#FFFFFF" stroke-width="4" stroke-miterlimit="10" x1="101.409" y1="53.301" x2="133.677" y2="53.301"/>
<line fill="none" stroke="#FFFFFF" stroke-width="4" stroke-miterlimit="10" x1="101.409" y1="60.37" x2="133.677" y2="60.37"/>
<rect x="101.409" y="19" fill="#FFFFFF" width="13.383" height="10.926"/>
</svg>
