<?xml version="1.0" encoding="utf-8"?>
<!-- Generator: Adobe Illustrator 16.0.0, SVG Export Plug-In . SVG Version: 6.00 Build 0)  -->
<!DOCTYPE svg PUBLIC "-//W3C//DTD SVG 1.1//EN" "http://www.w3.org/Graphics/SVG/1.1/DTD/svg11.dtd">
<svg version="1.1" id="Capa_1" xmlns="http://www.w3.org/2000/svg" xmlns:xlink="http://www.w3.org/1999/xlink" x="0px" y="0px"
	 width="230.583px" height="133.402px" viewBox="0 0 230.583 133.402" enable-background="new 0 0 230.583 133.402"
	 xml:space="preserve">
<path fill="#D6EEED" d="M245.674,127.453c0,7.099-9.043,12.849-20.203,12.849H1.083c-11.156,0-20.201-5.752-20.201-12.849V5.948
	c0-7.096,9.044-12.848,20.201-12.848h224.39c11.158,0,20.201,5.752,20.201,12.848V127.453L245.674,127.453z"/>
<g>
	<line fill="none" stroke="#F5825A" stroke-width="6" stroke-miterlimit="10" x1="116.855" y1="35.215" x2="116.855" y2="15.621"/>
	<line fill="none" stroke="#F5825A" stroke-width="6" stroke-miterlimit="10" x1="116.855" y1="62.474" x2="116.855" y2="43.199"/>
	<line fill="none" stroke="#F5825A" stroke-width="6" stroke-miterlimit="10" x1="140.032" y1="39.048" x2="120.374" y2="39.048"/>
	<line fill="none" stroke="#F5825A" stroke-width="6" stroke-miterlimit="10" x1="113.279" y1="39.048" x2="93.178" y2="39.048"/>
	<circle fill="none" stroke="#4F8C91" stroke-width="5" stroke-miterlimit="10" cx="116.855" cy="39.048" r="18.893"/>
	<path fill="none" stroke="#4F8C91" stroke-width="5" stroke-miterlimit="10" d="M126.639,39.048c0,5.403-4.379,9.784-9.784,9.784
		c-5.401,0-9.782-4.38-9.782-9.784c0-5.402,4.38-9.783,9.782-9.783C122.26,29.264,126.639,33.645,126.639,39.048z"/>
</g>
</svg>
