<?xml version="1.0" encoding="utf-8"?>
<!-- Generator: Adobe Illustrator 16.0.0, SVG Export Plug-In . SVG Version: 6.00 Build 0)  -->
<!DOCTYPE svg PUBLIC "-//W3C//DTD SVG 1.1//EN" "http://www.w3.org/Graphics/SVG/1.1/DTD/svg11.dtd">
<svg version="1.1" id="Capa_1" xmlns="http://www.w3.org/2000/svg" xmlns:xlink="http://www.w3.org/1999/xlink" x="0px" y="0px"
	 width="230.583px" height="133.402px" viewBox="0 0 230.583 133.402" enable-background="new 0 0 230.583 133.402"
	 xml:space="preserve">
<path fill="#D6EEED" d="M283.583,140.107c0,9.316-14.029,16.864-31.342,16.864H-95.87c-17.308-0.001-31.339-7.55-31.339-16.864
	V-19.368c0-9.313,14.031-16.863,31.339-16.863h348.111c17.312,0,31.341,7.55,31.341,16.863V140.107L283.583,140.107z"/>
<g>
	<polygon fill="#44999B" points="122.469,14 94.956,14 94.956,67.834 139.792,67.834 139.792,27.926 122.469,27.926 	"/>
	<polygon fill="#52B9C7" points="122.469,14 122.469,27.926 139.792,27.926 131.129,20.963 	"/>
	<line fill="none" stroke="#FFFFFF" stroke-width="4" stroke-miterlimit="10" x1="104.467" y1="27.926" x2="119.072" y2="27.926"/>
	<line fill="none" stroke="#FFFFFF" stroke-width="4" stroke-miterlimit="10" x1="101.409" y1="37.012" x2="133.677" y2="37.012"/>
	<line fill="none" stroke="#FFFFFF" stroke-width="4" stroke-miterlimit="10" x1="101.409" y1="44.993" x2="133.677" y2="44.993"/>
	<line fill="none" stroke="#FFFFFF" stroke-width="4" stroke-miterlimit="10" x1="101.409" y1="53.301" x2="133.677" y2="53.301"/>
	<line fill="none" stroke="#FFFFFF" stroke-width="4" stroke-miterlimit="10" x1="101.409" y1="60.37" x2="133.677" y2="60.37"/>
</g>
</svg>
