<?xml version="1.0" encoding="utf-8"?>
<!-- Generator: Adobe Illustrator 16.0.0, SVG Export Plug-In . SVG Version: 6.00 Build 0)  -->
<!DOCTYPE svg PUBLIC "-//W3C//DTD SVG 1.0//EN" "http://www.w3.org/TR/2001/REC-SVG-20010904/DTD/svg10.dtd">
<svg version="1.0" id="Capa_1" xmlns="http://www.w3.org/2000/svg" xmlns:xlink="http://www.w3.org/1999/xlink" x="0px" y="0px"
	 width="101.5px" height="72px" viewBox="0 82.5 101.5 72" enable-background="new 0 82.5 101.5 72" xml:space="preserve">
<g>
	<g>
		<path fill="#A3E2CA" d="M76.52,116.316c-1.026-15.997-13.512-28.785-29.136-29.836v-0.074h-2.086h-2.086v0.074
			c-15.625,1.051-28.114,13.839-29.14,29.836H14v2.137v2.137h0.071c1.026,15.997,13.516,28.781,29.14,29.833v0.078h2.086h2.086
			v-0.078c15.624-1.051,28.11-13.835,29.136-29.833h0.074v-2.137v-2.137H76.52z M33.592,93.392
			c-2.015,2.745-3.688,6.184-4.907,10.107h-6.25C25.155,99.152,29.018,95.637,33.592,93.392z M20.251,107.771h7.335
			c-0.559,2.7-0.914,5.567-1.026,8.545h-8.308C18.474,113.309,19.167,110.434,20.251,107.771z M18.252,120.59h8.308
			c0.113,2.978,0.467,5.846,1.026,8.545h-7.335C19.167,126.473,18.474,123.598,18.252,120.59z M22.435,133.409h6.245
			c1.22,3.922,2.891,7.361,4.912,10.105C29.018,141.27,25.155,137.757,22.435,133.409z M43.211,145.954
			c-4.291-1.175-7.984-5.894-10.224-12.545h10.224V145.954z M43.211,129.135H31.815c-0.589-2.662-0.96-5.537-1.082-8.545h12.478
			V129.135z M43.211,116.316H30.733c0.122-3.008,0.493-5.883,1.082-8.545h11.396V116.316z M43.211,103.5H32.988
			c2.24-6.654,5.933-11.372,10.224-12.542V103.5z M68.161,103.5h-6.243c-1.222-3.924-2.891-7.363-4.916-10.107
			C61.571,95.637,65.439,99.152,68.161,103.5z M47.384,90.958c4.285,1.17,7.983,5.888,10.224,12.542H47.384V90.958z M47.384,107.771
			h11.392c0.594,2.662,0.957,5.537,1.085,8.545H47.384V107.771z M47.384,120.59h12.477c-0.122,3.008-0.491,5.883-1.085,8.545H47.384
			V120.59z M47.384,145.954v-12.545h10.224C55.367,140.06,51.669,144.778,47.384,145.954z M57.002,143.514
			c2.016-2.748,3.694-6.184,4.916-10.105h6.243C65.439,137.757,61.571,141.27,57.002,143.514z M70.343,129.135h-7.335
			c0.559-2.699,0.914-5.567,1.027-8.545h8.304C72.122,123.598,71.429,126.473,70.343,129.135z M64.035,116.316
			c-0.113-2.978-0.468-5.845-1.027-8.545h7.335c1.085,2.662,1.779,5.537,1.999,8.545H64.035z"/>
	</g>
</g>
</svg>
