<?xml version="1.0" encoding="utf-8"?>
<!-- Generator: Adobe Illustrator 16.0.0, SVG Export Plug-In . SVG Version: 6.00 Build 0)  -->
<!DOCTYPE svg PUBLIC "-//W3C//DTD SVG 1.1//EN" "http://www.w3.org/Graphics/SVG/1.1/DTD/svg11.dtd">
<svg version="1.1" id="Capa_1" xmlns="http://www.w3.org/2000/svg" xmlns:xlink="http://www.w3.org/1999/xlink" x="0px" y="0px"
	 width="291.917px" height="1019.489px" viewBox="435.818 -452.453 291.917 1019.489"
	 enable-background="new 435.818 -452.453 291.917 1019.489" xml:space="preserve">
<g>
	
		<rect x="66.335" y="-92.18" transform="matrix(-0.0013 -1 1 -0.0013 528.6089 634.98)" fill="#027370" width="1030.126" height="291.392"/>
	<g>
		<g>
			<defs>
				
					<rect id="SVGID_1_" x="66.333" y="-93.904" transform="matrix(-0.0013 -1 1 -0.0013 530.3306 633.2513)" width="1030.125" height="291.391"/>
			</defs>
			<clipPath id="SVGID_2_">
				<use xlink:href="#SVGID_1_"  overflow="visible"/>
			</clipPath>
			<g clip-path="url(#SVGID_2_)">
				<g>
					<polygon fill="#E3832D" points="283.394,-333.634 353.224,-442.691 423.055,-333.634 					"/>
					<polygon fill="#F7A539" points="492.886,-442.691 423.055,-333.634 353.224,-442.691 					"/>
					<polygon fill="#F8AF4B" points="423.055,-333.634 492.886,-442.691 562.716,-333.634 					"/>
					<polygon fill="#F7A958" points="632.544,-442.691 562.716,-333.634 492.886,-442.691 					"/>
					<polygon fill="#F28D4C" points="562.716,-333.634 632.544,-442.691 702.375,-333.634 					"/>
					<polygon fill="#F0833B" points="772.203,-442.691 702.375,-333.634 632.544,-442.691 					"/>
					<polygon fill="#F18939" points="702.375,-333.634 772.203,-442.691 842.032,-333.634 					"/>
					<polygon fill="#F28B2D" points="911.865,-442.691 842.032,-333.634 772.203,-442.691 					"/>
					<polygon fill="#F18519" points="842.032,-333.634 911.865,-442.691 981.691,-333.634 					"/>
					<polygon fill="#F28A1A" points="1051.52,-442.691 981.691,-333.634 911.865,-442.691 					"/>
					<polygon fill="#EC6309" points="981.691,-333.634 1051.52,-442.691 1121.353,-333.634 					"/>
					<polygon fill="#DA4714" points="1191.183,-442.691 1121.353,-333.634 1051.52,-442.691 					"/>
					<polygon fill="#EEA93C" points="423.055,-333.634 353.224,-224.581 283.394,-333.634 					"/>
					<polygon fill="#FAB83E" points="353.224,-224.581 423.055,-333.634 492.886,-224.581 					"/>
					<polygon fill="#FECD56" points="562.716,-333.634 492.886,-224.581 423.055,-333.634 					"/>
					<polygon fill="#FAB85E" points="492.886,-224.581 562.716,-333.634 632.544,-224.581 					"/>
					<polygon fill="#F59E54" points="702.375,-333.634 632.544,-224.581 562.716,-333.634 					"/>
					<polygon fill="#F28D3D" points="632.544,-224.581 702.375,-333.634 772.203,-224.581 					"/>
					<polygon fill="#EEA241" points="842.032,-333.634 772.203,-224.581 702.375,-333.634 					"/>
					<polygon fill="#F9AF3C" points="772.203,-224.581 842.032,-333.634 911.865,-224.581 					"/>
					<polygon fill="#FABF29" points="981.691,-333.634 911.865,-224.581 842.032,-333.634 					"/>
					<polygon fill="#F6A318" points="911.865,-224.581 981.691,-333.634 1051.52,-224.581 					"/>
					<polygon fill="#F7A519" points="1121.353,-333.634 1051.52,-224.581 981.691,-333.634 					"/>
					<polygon fill="#F07E12" points="1051.52,-224.581 1121.353,-333.634 1191.183,-224.581 					"/>
					<polygon fill="#E5A554" points="283.394,-115.525 353.224,-224.581 423.055,-115.525 					"/>
					<polygon fill="#EBC46F" points="492.886,-224.581 423.055,-115.525 353.224,-224.581 					"/>
					<polygon fill="#FED570" points="423.055,-115.525 492.886,-224.581 562.716,-115.525 					"/>
					<polygon fill="#FDCC74" points="632.544,-224.581 562.716,-115.525 492.886,-224.581 					"/>
					<polygon fill="#FABA64" points="562.716,-115.525 632.544,-224.581 702.375,-115.525 					"/>
					<polygon fill="#C07A44" points="772.203,-224.581 702.375,-115.525 632.544,-224.581 					"/>
					<polygon fill="#B46F32" points="702.375,-115.525 772.203,-224.581 842.032,-115.525 					"/>
					<polygon fill="#D98533" points="911.865,-224.581 842.032,-115.525 772.203,-224.581 					"/>
					<polygon fill="#FABF47" points="842.032,-115.525 911.865,-224.581 981.691,-115.525 					"/>
					<polygon fill="#FAC25D" points="1051.52,-224.581 981.691,-115.525 911.865,-224.581 					"/>
					<polygon fill="#F8B542" points="981.691,-115.525 1051.52,-224.581 1121.353,-115.525 					"/>
					<polygon fill="#EC9C45" points="1191.183,-224.581 1121.353,-115.525 1051.52,-224.581 					"/>
					<polygon fill="#A1C187" points="843.203,-40.543 734.06,-110.238 843.029,-180.205 					"/>
					<polygon fill="#D2CE88" points="734.06,-110.238 843.203,-40.543 734.235,29.424 					"/>
					<polygon fill="#CBCC86" points="843.378,99.118 734.235,29.424 843.203,-40.543 					"/>
					<polygon fill="#F1D07F" points="734.235,29.424 843.378,99.118 734.409,169.082 					"/>
					<polygon fill="#E0A96A" points="843.553,238.776 734.409,169.082 843.378,99.118 					"/>
					<polygon fill="#A55A3B" points="734.409,169.082 843.553,238.776 734.584,308.741 					"/>
					<polygon fill="#A44A33" points="843.727,378.434 734.584,308.741 843.553,238.776 					"/>
					<polygon fill="#E07F45" points="734.584,308.741 843.727,378.434 734.758,448.402 					"/>
					<polygon fill="#E98253" points="843.902,518.092 734.758,448.402 843.727,378.434 					"/>
					<polygon fill="#E69252" points="734.758,448.402 843.902,518.092 734.933,588.057 					"/>
					<polygon fill="#D06C4D" points="844.076,657.754 734.933,588.057 843.902,518.092 					"/>
					<polygon fill="#D77E4A" points="734.933,588.057 844.076,657.754 735.108,727.72 					"/>
					<polygon fill="#6CB681" points="624.918,-179.932 734.06,-110.238 625.093,-40.271 					"/>
					<polygon fill="#64B387" points="734.235,29.424 625.093,-40.271 734.06,-110.238 					"/>
					<polygon fill="#AABD87" points="625.093,-40.271 734.235,29.424 625.267,99.39 					"/>
					<polygon fill="#BFB980" points="734.409,169.082 625.267,99.39 734.235,29.424 					"/>
					<polygon fill="#E2AF6E" points="625.267,99.39 734.409,169.082 625.442,239.049 					"/>
					<polygon fill="#E69C5E" points="734.584,308.741 625.442,239.049 734.409,169.082 					"/>
					<polygon fill="#E18952" points="625.442,239.049 734.584,308.741 625.616,378.706 					"/>
					<polygon fill="#F3A148" points="734.758,448.402 625.616,378.706 734.584,308.741 					"/>
					<polygon fill="#E67E51" points="625.616,378.706 734.758,448.402 625.791,518.364 					"/>
					<polygon fill="#C24C48" points="734.933,588.057 625.791,518.364 734.758,448.402 					"/>
					<polygon fill="#B73941" points="625.791,518.364 734.933,588.057 625.965,658.026 					"/>
					<polygon fill="#9F2839" points="735.108,727.72 625.965,658.026 734.933,588.057 					"/>
					<polygon fill="#098F86" points="625.093,-40.271 515.948,-109.966 624.918,-179.932 					"/>
					<polygon fill="#40A088" points="515.948,-109.966 625.093,-40.271 516.123,29.696 					"/>
					<polygon fill="#73AB89" points="625.267,99.39 516.123,29.696 625.093,-40.271 					"/>
					<polygon fill="#A5B786" points="516.123,29.696 625.267,99.39 516.298,169.354 					"/>
					<polygon fill="#C9CB88" points="625.442,239.049 516.298,169.354 625.267,99.39 					"/>
					<polygon fill="#E8BE74" points="516.298,169.354 625.442,239.049 516.473,309.014 					"/>
					<polygon fill="#F6C676" points="625.616,378.706 516.473,309.014 625.442,239.049 					"/>
					<polygon fill="#EFA358" points="516.473,309.014 625.616,378.706 516.647,448.675 					"/>
					<polygon fill="#C76B4D" points="625.791,518.364 516.647,448.675 625.616,378.706 					"/>
					<polygon fill="#B25044" points="516.647,448.675 625.791,518.364 516.822,588.33 					"/>
					<polygon fill="#973337" points="625.965,658.026 516.822,588.33 625.791,518.364 					"/>
					<polygon fill="#8B1D33" points="516.822,588.33 625.965,658.026 516.996,727.993 					"/>
					<polygon fill="#01717B" points="406.809,-179.659 515.948,-109.966 406.984,-39.998 					"/>
					<polygon fill="#047E7F" points="516.123,29.696 406.984,-39.998 515.948,-109.966 					"/>
					<polygon fill="#6AA58A" points="406.984,-39.998 516.123,29.696 407.158,99.663 					"/>
					<polygon fill="#8BB285" points="516.298,169.354 407.158,99.663 516.123,29.696 					"/>
					<polygon fill="#BEC681" points="407.158,99.663 516.298,169.354 407.333,239.322 					"/>
					<polygon fill="#D7B967" points="516.473,309.014 407.333,239.322 516.298,169.354 					"/>
					<polygon fill="#EEB767" points="407.333,239.322 516.473,309.014 407.507,378.979 					"/>
					<polygon fill="#D68751" points="516.647,448.675 407.507,378.979 516.473,309.014 					"/>
					<polygon fill="#C16448" points="407.507,378.979 516.647,448.675 407.682,518.637 					"/>
					<polygon fill="#9C4742" points="516.822,588.33 407.682,518.637 516.647,448.675 					"/>
					<polygon fill="#84383D" points="407.682,518.637 516.822,588.33 407.856,658.299 					"/>
					<polygon fill="#7A1E2C" points="516.996,727.993 407.856,658.299 516.822,588.33 					"/>
				</g>
				<g opacity="0.48">
					<polygon fill="#E3832D" points="344.465,-330.362 414.295,-450.323 484.127,-330.362 					"/>
					<polygon fill="#F7A539" points="553.954,-450.323 484.127,-330.362 414.295,-450.323 					"/>
					<polygon fill="#F8AF4B" points="484.127,-330.362 553.954,-450.323 623.786,-330.362 					"/>
					<polygon fill="#F7A958" points="693.616,-450.323 623.786,-330.362 553.954,-450.323 					"/>
					<polygon fill="#F28D4C" points="623.786,-330.362 693.616,-450.323 763.446,-330.362 					"/>
					<polygon fill="#F0833B" points="833.275,-450.323 763.446,-330.362 693.616,-450.323 					"/>
					<polygon fill="#F18939" points="763.446,-330.362 833.275,-450.323 903.105,-330.362 					"/>
					<polygon fill="#F28B2D" points="972.936,-450.323 903.105,-330.362 833.275,-450.323 					"/>
					<polygon fill="#F18519" points="903.105,-330.362 972.936,-450.323 1042.762,-330.362 					"/>
					<polygon fill="#F28A1A" points="1112.591,-450.323 1042.762,-330.362 972.936,-450.323 					"/>
					<polygon fill="#EC6309" points="1042.762,-330.362 1112.591,-450.323 1182.424,-330.362 					"/>
					<polygon fill="#DA4714" points="1252.254,-450.323 1182.424,-330.362 1112.591,-450.323 					"/>
					<polygon fill="#EEA93C" points="484.127,-330.362 414.295,-210.402 344.465,-330.362 					"/>
					<polygon fill="#FAB83E" points="414.295,-210.402 484.127,-330.362 553.954,-210.402 					"/>
					<polygon fill="#FECD56" points="623.786,-330.362 553.954,-210.402 484.127,-330.362 					"/>
					<polygon fill="#FAB85E" points="553.954,-210.402 623.786,-330.362 693.616,-210.402 					"/>
					<polygon fill="#F59E54" points="763.446,-330.362 693.616,-210.402 623.786,-330.362 					"/>
					<polygon fill="#F28D3D" points="693.616,-210.402 763.446,-330.362 833.275,-210.402 					"/>
					<polygon fill="#EEA241" points="903.105,-330.362 833.275,-210.402 763.446,-330.362 					"/>
					<polygon fill="#F9AF3C" points="833.275,-210.402 903.105,-330.362 972.936,-210.402 					"/>
					<polygon fill="#FABF29" points="1042.762,-330.362 972.936,-210.402 903.105,-330.362 					"/>
					<polygon fill="#F6A318" points="972.936,-210.402 1042.762,-330.362 1112.591,-210.402 					"/>
					<polygon fill="#F7A519" points="1182.424,-330.362 1112.591,-210.402 1042.762,-330.362 					"/>
					<polygon fill="#F07E12" points="1112.591,-210.402 1182.424,-330.362 1252.254,-210.402 					"/>
					<polygon fill="#E5A554" points="344.465,-90.443 414.295,-210.402 484.127,-90.443 					"/>
					<polygon fill="#EBC46F" points="553.954,-210.402 484.127,-90.443 414.295,-210.402 					"/>
					<polygon fill="#FED570" points="484.127,-90.443 553.954,-210.402 623.786,-90.443 					"/>
					<polygon fill="#FDCC74" points="693.616,-210.402 623.786,-90.443 553.954,-210.402 					"/>
					<polygon fill="#FABA64" points="623.786,-90.443 693.616,-210.402 763.446,-90.443 					"/>
					<polygon fill="#C07A44" points="833.275,-210.402 763.446,-90.443 693.616,-210.402 					"/>
					<polygon fill="#B46F32" points="763.446,-90.443 833.275,-210.402 903.105,-90.443 					"/>
					<polygon fill="#D98533" points="972.936,-210.402 903.105,-90.443 833.275,-210.402 					"/>
					<polygon fill="#FABF47" points="903.105,-90.443 972.936,-210.402 1042.762,-90.443 					"/>
					<polygon fill="#FAC25D" points="1112.591,-210.402 1042.762,-90.443 972.936,-210.402 					"/>
					<polygon fill="#F8B542" points="1042.762,-90.443 1112.591,-210.402 1182.424,-90.443 					"/>
					<polygon fill="#EC9C45" points="1252.254,-210.402 1182.424,-90.443 1112.591,-210.402 					"/>
					<polygon fill="#A1C187" points="818.198,20.56 698.148,-49.122 818.023,-119.102 					"/>
					<polygon fill="#D2CE88" points="698.148,-49.122 818.198,20.56 698.323,90.537 					"/>
					<polygon fill="#CBCC86" points="818.372,160.219 698.323,90.537 818.198,20.56 					"/>
					<polygon fill="#F1D07F" points="698.323,90.537 818.372,160.219 698.496,230.199 					"/>
					<polygon fill="#E0A96A" points="818.547,299.878 698.496,230.199 818.372,160.219 					"/>
					<polygon fill="#A55A3B" points="698.496,230.199 818.547,299.878 698.671,369.857 					"/>
					<polygon fill="#A44A33" points="818.721,439.537 698.671,369.857 818.547,299.878 					"/>
					<polygon fill="#E07F45" points="698.671,369.857 818.721,439.537 698.846,509.519 					"/>
					<polygon fill="#E98253" points="818.896,579.194 698.846,509.519 818.721,439.537 					"/>
					<polygon fill="#E69252" points="698.846,509.519 818.896,579.194 699.021,649.174 					"/>
					<polygon fill="#D06C4D" points="1182.424,-90.443 1112.591,29.52 1042.762,-90.443 					"/>
					<polygon fill="#D77E4A" points="1112.591,29.52 1182.424,-90.443 1252.254,29.52 					"/>
					<polygon fill="#6CB681" points="578.102,-118.802 698.148,-49.122 578.277,20.86 					"/>
					<polygon fill="#64B387" points="698.323,90.537 578.277,20.86 698.148,-49.122 					"/>
					<polygon fill="#AABD87" points="578.277,20.86 698.323,90.537 578.451,160.519 					"/>
					<polygon fill="#BFB980" points="698.496,230.199 578.451,160.519 698.323,90.537 					"/>
					<polygon fill="#E2AF6E" points="578.451,160.519 698.496,230.199 578.625,300.178 					"/>
					<polygon fill="#E69C5E" points="698.671,369.857 578.625,300.178 698.496,230.199 					"/>
					<polygon fill="#E18952" points="578.625,300.178 698.671,369.857 578.8,439.837 					"/>
					<polygon fill="#F3A148" points="698.846,509.519 578.8,439.837 698.671,369.857 					"/>
					<polygon fill="#E67E51" points="578.8,439.837 698.846,509.519 578.975,579.494 					"/>
					<polygon fill="#C24C48" points="699.021,649.174 578.975,579.494 698.846,509.519 					"/>
					<polygon fill="#B73941" points="578.975,579.494 699.021,649.174 579.15,719.156 					"/>
					<polygon fill="#9F2839" points="1252.254,29.52 1182.424,149.479 1112.591,29.52 					"/>
					<polygon fill="#098F86" points="578.277,20.86 458.228,-48.822 578.102,-118.802 					"/>
					<polygon fill="#40A088" points="458.228,-48.822 578.277,20.86 458.403,90.837 					"/>
					<polygon fill="#73AB89" points="578.451,160.519 458.403,90.837 578.277,20.86 					"/>
					<polygon fill="#A5B786" points="458.403,90.837 578.451,160.519 458.577,230.499 					"/>
					<polygon fill="#C9CB88" points="578.625,300.178 458.577,230.499 578.451,160.519 					"/>
					<polygon fill="#E8BE74" points="458.577,230.499 578.625,300.178 458.752,370.157 					"/>
					<polygon fill="#F6C676" points="578.8,439.837 458.752,370.157 578.625,300.178 					"/>
					<polygon fill="#EFA358" points="458.752,370.157 578.8,439.837 458.927,509.818 					"/>
					<polygon fill="#C76B4D" points="578.975,579.494 458.927,509.818 578.8,439.837 					"/>
					<polygon fill="#B25044" points="458.927,509.818 578.975,579.494 459.101,649.474 					"/>
					<polygon fill="#973337" points="579.15,719.156 459.101,649.474 578.975,579.494 					"/>
					<polygon fill="#8B1D33" points="1112.591,269.439 1182.424,149.479 1252.254,269.439 					"/>
					<polygon fill="#01717B" points="338.18,-118.502 458.228,-48.822 338.355,21.16 					"/>
					<polygon fill="#047E7F" points="458.403,90.837 338.355,21.16 458.228,-48.822 					"/>
					<polygon fill="#6AA58A" points="338.355,21.16 458.403,90.837 338.53,160.819 					"/>
					<polygon fill="#8BB285" points="458.577,230.499 338.53,160.819 458.403,90.837 					"/>
					<polygon fill="#BEC681" points="338.53,160.819 458.577,230.499 338.704,300.478 					"/>
					<polygon fill="#D7B967" points="458.752,370.157 338.704,300.478 458.577,230.499 					"/>
					<polygon fill="#EEB767" points="338.704,300.478 458.752,370.157 338.879,440.137 					"/>
					<polygon fill="#D68751" points="458.927,509.818 338.879,440.137 458.752,370.157 					"/>
					<polygon fill="#C16448" points="338.879,440.137 458.927,509.818 339.053,579.794 					"/>
					<polygon fill="#9C4742" points="459.101,649.474 339.053,579.794 458.927,509.818 					"/>
					<polygon fill="#84383D" points="339.053,579.794 459.101,649.474 339.228,719.456 					"/>
					<polygon fill="#7A1E2C" points="1252.254,269.439 1182.424,389.4 1112.591,269.439 					"/>
				</g>
				<g opacity="0.26">
					<polygon fill="#E3832D" points="180.338,-364.714 250.168,-484.676 319.996,-364.714 					"/>
					<polygon fill="#F7A539" points="389.827,-484.676 319.996,-364.714 250.168,-484.676 					"/>
					<polygon fill="#F8AF4B" points="319.996,-364.714 389.827,-484.676 459.656,-364.714 					"/>
					<polygon fill="#F7A958" points="529.488,-484.676 459.656,-364.714 389.827,-484.676 					"/>
					<polygon fill="#F28D4C" points="459.656,-364.714 529.488,-484.676 599.317,-364.714 					"/>
					<polygon fill="#F0833B" points="669.147,-484.676 599.317,-364.714 529.488,-484.676 					"/>
					<polygon fill="#F18939" points="599.317,-364.714 669.147,-484.676 738.976,-364.714 					"/>
					<polygon fill="#F28B2D" points="808.808,-484.676 738.976,-364.714 669.147,-484.676 					"/>
					<polygon fill="#F18519" points="738.976,-364.714 808.808,-484.676 878.637,-364.714 					"/>
					<polygon fill="#F28A1A" points="948.463,-484.676 878.637,-364.714 808.808,-484.676 					"/>
					<polygon fill="#EC6309" points="878.637,-364.714 948.463,-484.676 1018.296,-364.714 					"/>
					<polygon fill="#DA4714" points="1088.125,-484.676 1018.296,-364.714 948.463,-484.676 					"/>
					<polygon fill="#EEA93C" points="319.996,-364.714 250.168,-244.757 180.338,-364.714 					"/>
					<polygon fill="#FAB83E" points="250.168,-244.757 319.996,-364.714 389.827,-244.757 					"/>
					<polygon fill="#FECD56" points="459.656,-364.714 389.827,-244.757 319.996,-364.714 					"/>
					<polygon fill="#FAB85E" points="389.827,-244.757 459.656,-364.714 529.488,-244.757 					"/>
					<polygon fill="#F59E54" points="599.317,-364.714 529.488,-244.757 459.656,-364.714 					"/>
					<polygon fill="#F28D3D" points="529.488,-244.757 599.317,-364.714 669.147,-244.757 					"/>
					<polygon fill="#EEA241" points="738.976,-364.714 669.147,-244.757 599.317,-364.714 					"/>
					<polygon fill="#F9AF3C" points="669.147,-244.757 738.976,-364.714 808.808,-244.757 					"/>
					<polygon fill="#FABF29" points="878.637,-364.714 808.808,-244.757 738.976,-364.714 					"/>
					<polygon fill="#F6A318" points="808.808,-244.757 878.637,-364.714 948.463,-244.757 					"/>
					<polygon fill="#F7A519" points="1018.296,-364.714 948.463,-244.757 878.637,-364.714 					"/>
					<polygon fill="#F07E12" points="948.463,-244.757 1018.296,-364.714 1088.125,-244.757 					"/>
					<polygon fill="#E5A554" points="180.338,-124.795 250.168,-244.757 319.996,-124.795 					"/>
					<polygon fill="#EBC46F" points="389.827,-244.757 319.996,-124.795 250.168,-244.757 					"/>
					<polygon fill="#FED570" points="319.996,-124.795 389.827,-244.757 459.656,-124.795 					"/>
					<polygon fill="#FDCC74" points="529.488,-244.757 459.656,-124.795 389.827,-244.757 					"/>
					<polygon fill="#FABA64" points="459.656,-124.795 529.488,-244.757 599.317,-124.795 					"/>
					<polygon fill="#C07A44" points="669.147,-244.757 599.317,-124.795 529.488,-244.757 					"/>
					<polygon fill="#B46F32" points="599.317,-124.795 669.147,-244.757 738.976,-124.795 					"/>
					<polygon fill="#D98533" points="808.808,-244.757 738.976,-124.795 669.147,-244.757 					"/>
					<polygon fill="#FABF47" points="738.976,-124.795 808.808,-244.757 878.637,-124.795 					"/>
					<polygon fill="#FAC25D" points="948.463,-244.757 878.637,-124.795 808.808,-244.757 					"/>
					<polygon fill="#F8B542" points="878.637,-124.795 948.463,-244.757 1018.296,-124.795 					"/>
					<polygon fill="#EC9C45" points="1088.125,-244.757 1018.296,-124.795 948.463,-244.757 					"/>
					<polygon fill="#A1C187" points="852.344,-143.614 732.294,-213.292 852.17,-283.271 					"/>
					<polygon fill="#D2CE88" points="732.294,-213.292 852.344,-143.614 732.469,-73.633 					"/>
					<polygon fill="#CBCC86" points="852.519,-3.955 732.469,-73.633 852.344,-143.614 					"/>
					<polygon fill="#F1D07F" points="732.469,-73.633 852.519,-3.955 732.644,66.027 					"/>
					<polygon fill="#E0A96A" points="852.694,135.707 732.644,66.027 852.519,-3.955 					"/>
					<polygon fill="#A55A3B" points="732.644,66.027 852.694,135.707 732.819,205.687 					"/>
					<polygon fill="#A44A33" points="852.868,275.365 732.819,205.687 852.694,135.707 					"/>
					<polygon fill="#E07F45" points="732.819,205.687 852.868,275.365 732.992,345.348 					"/>
					<polygon fill="#E98253" points="853.043,415.026 732.992,345.348 852.868,275.365 					"/>
					<polygon fill="#E69252" points="732.992,345.348 853.043,415.026 733.167,485.003 					"/>
					<polygon fill="#D06C4D" points="853.217,554.686 733.167,485.003 853.043,415.026 					"/>
					<polygon fill="#D77E4A" points="733.167,485.003 853.217,554.686 733.342,624.665 					"/>
					<polygon fill="#6CB681" points="612.247,-282.972 732.294,-213.292 612.422,-143.313 					"/>
					<polygon fill="#64B387" points="732.469,-73.633 612.422,-143.313 732.294,-213.292 					"/>
					<polygon fill="#AABD87" points="612.422,-143.313 732.469,-73.633 612.596,-3.655 					"/>
					<polygon fill="#BFB980" points="732.644,66.027 612.596,-3.655 732.469,-73.633 					"/>
					<polygon fill="#E2AF6E" points="612.596,-3.655 732.644,66.027 612.771,136.006 					"/>
					<polygon fill="#E69C5E" points="732.819,205.687 612.771,136.006 732.644,66.027 					"/>
					<polygon fill="#E18952" points="612.771,136.006 732.819,205.687 612.946,275.665 					"/>
					<polygon fill="#F3A148" points="732.992,345.348 612.946,275.665 732.819,205.687 					"/>
					<polygon fill="#E67E51" points="612.946,275.665 732.992,345.348 613.12,415.326 					"/>
					<polygon fill="#C24C48" points="733.167,485.003 613.12,415.326 732.992,345.348 					"/>
					<polygon fill="#B73941" points="613.12,415.326 733.167,485.003 613.295,554.985 					"/>
					<polygon fill="#9F2839" points="733.342,624.665 613.295,554.985 733.167,485.003 					"/>
					<polygon fill="#098F86" points="612.422,-143.313 492.376,-212.992 612.247,-282.972 					"/>
					<polygon fill="#40A088" points="492.376,-212.992 612.422,-143.313 492.55,-73.333 					"/>
					<polygon fill="#73AB89" points="612.596,-3.655 492.55,-73.333 612.422,-143.313 					"/>
					<polygon fill="#A5B786" points="492.55,-73.333 612.596,-3.655 492.725,66.327 					"/>
					<polygon fill="#C9CB88" points="612.771,136.006 492.725,66.327 612.596,-3.655 					"/>
					<polygon fill="#E8BE74" points="492.725,66.327 612.771,136.006 492.9,205.986 					"/>
					<polygon fill="#F6C676" points="612.946,275.665 492.9,205.986 612.771,136.006 					"/>
					<polygon fill="#EFA358" points="492.9,205.986 612.946,275.665 493.074,345.647 					"/>
					<polygon fill="#C76B4D" points="613.12,415.326 493.074,345.647 612.946,275.665 					"/>
					<polygon fill="#B25044" points="493.074,345.647 613.12,415.326 493.248,485.303 					"/>
					<polygon fill="#973337" points="613.295,554.985 493.248,485.303 613.12,415.326 					"/>
					<polygon fill="#8B1D33" points="493.248,485.303 613.295,554.985 493.423,624.965 					"/>
					<polygon fill="#01717B" points="372.325,-282.672 492.376,-212.992 372.5,-143.014 					"/>
					<polygon fill="#047E7F" points="492.55,-73.333 372.5,-143.014 492.376,-212.992 					"/>
					<polygon fill="#6AA58A" points="372.5,-143.014 492.55,-73.333 372.675,-3.354 					"/>
					<polygon fill="#8BB285" points="492.725,66.327 372.675,-3.354 492.55,-73.333 					"/>
					<polygon fill="#BEC681" points="372.675,-3.354 492.725,66.327 372.849,136.306 					"/>
					<polygon fill="#D7B967" points="492.9,205.986 372.849,136.306 492.725,66.327 					"/>
					<polygon fill="#EEB767" points="372.849,136.306 492.9,205.986 373.024,275.965 					"/>
					<polygon fill="#D68751" points="493.074,345.647 373.024,275.965 492.9,205.986 					"/>
					<polygon fill="#C16448" points="373.024,275.965 493.074,345.647 373.198,415.626 					"/>
					<polygon fill="#9C4742" points="493.248,485.303 373.198,415.626 493.074,345.647 					"/>
					<polygon fill="#84383D" points="373.198,415.626 493.248,485.303 373.373,555.285 					"/>
					<polygon fill="#7A1E2C" points="493.423,624.965 373.373,555.285 493.248,485.303 					"/>
				</g>
			</g>
		</g>
	</g>
</g>
</svg>
