<?xml version="1.0" encoding="utf-8"?>
<!-- Generator: Adobe Illustrator 16.0.0, SVG Export Plug-In . SVG Version: 6.00 Build 0)  -->
<!DOCTYPE svg PUBLIC "-//W3C//DTD SVG 1.1//EN" "http://www.w3.org/Graphics/SVG/1.1/DTD/svg11.dtd">
<svg version="1.1" id="Capa_1" xmlns="http://www.w3.org/2000/svg" xmlns:xlink="http://www.w3.org/1999/xlink" x="0px" y="0px"
	 width="305.5px" height="150.145px" viewBox="0 0 305.5 150.145" enable-background="new 0 0 305.5 150.145" xml:space="preserve">
<g>
	<g>
		<polygon fill="#FFFFFF" points="143.107,133.815 193.875,150.145 193.875,109.94 		"/>
		<polygon fill="#7A7A7A" points="294.038,109.94 142.858,133.815 138.785,86.063 		"/>
		<polygon fill="#FFFFFF" points="9.85,21.042 298.558,39.792 294.038,109.94 3.484,114.584 		"/>
	</g>
	<rect x="29.53" y="50.306" fill="none" width="247.554" height="46.548"/>
	<g>
		<g>
			<g>
				<path fill="#2C2C2C" d="M198.912,74.125c-1.36-1.218-1.696-2.812-1.696-4.141c0-0.938,0.32-2.575,1.565-3.822
					c0.842-0.837,2.115-1.497,4.269-1.497c0.563,0,1.344,0.043,2.031,0.168c0.531,0.099,0.98,0.184,1.426,0.212
					c0.153,0.011,0.184,0.069,0.184,0.151c0,0.113-0.048,0.279-0.074,0.784c-0.026,0.461-0.026,1.233-0.04,1.441
					c-0.015,0.209-0.041,0.295-0.129,0.295c-0.093,0-0.107-0.099-0.107-0.295c0-0.545-0.228-1.118-0.592-1.428
					c-0.486-0.419-1.565-0.797-2.797-0.797c-1.859,0-2.728,0.547-3.215,1.021c-1.021,0.981-1.258,2.227-1.258,3.653
					c0,2.672,2.055,5.12,5.047,5.12c1.052,0,1.876-0.125,2.436-0.699c0.292-0.306,0.476-0.924,0.519-1.177
					c0.027-0.153,0.056-0.208,0.137-0.208c0.074,0,0.103,0.097,0.103,0.208c0,0.1-0.173,1.315-0.309,1.792
					c-0.088,0.264-0.114,0.294-0.364,0.406c-0.56,0.222-1.622,0.322-2.521,0.322C201.427,75.635,200.017,75.117,198.912,74.125z"/>
				<path fill="#2C2C2C" d="M209.792,68.921c0-2.185,0-2.575-0.025-3.024c-0.028-0.475-0.142-0.7-0.603-0.797
					c-0.113-0.027-0.347-0.043-0.476-0.043c-0.055,0-0.113-0.027-0.113-0.082c0-0.086,0.07-0.114,0.226-0.114
					c0.322,0,0.701,0,1.008,0.017l0.574,0.025c0.099,0,2.881,0,3.201-0.015c0.266-0.011,0.493-0.041,0.604-0.068
					c0.068-0.014,0.125-0.07,0.197-0.07c0.038,0,0.053,0.057,0.053,0.128c0,0.098-0.07,0.265-0.111,0.656
					c-0.014,0.141-0.04,0.753-0.07,0.922c-0.018,0.07-0.04,0.156-0.099,0.156c-0.081,0-0.11-0.069-0.11-0.183
					c0-0.099-0.015-0.335-0.085-0.504c-0.099-0.222-0.238-0.391-0.993-0.474c-0.238-0.027-1.763-0.042-1.914-0.042
					c-0.059,0-0.085,0.042-0.085,0.141v3.861c0,0.098,0.011,0.141,0.085,0.141c0.181,0,1.899,0,2.224-0.03
					c0.331-0.028,0.532-0.057,0.655-0.194c0.099-0.112,0.157-0.183,0.212-0.183c0.042,0,0.07,0.027,0.07,0.11
					c0,0.085-0.07,0.324-0.113,0.784c-0.026,0.282-0.056,0.798-0.056,0.896c0,0.112,0,0.265-0.1,0.265
					c-0.066,0-0.101-0.055-0.101-0.125c0-0.141,0-0.282-0.056-0.463c-0.055-0.194-0.182-0.431-0.726-0.489
					c-0.375-0.042-1.761-0.067-2.001-0.067c-0.07,0-0.097,0.038-0.097,0.095v1.233c0,0.474-0.018,2.098,0,2.391
					c0.038,0.966,0.25,1.146,1.62,1.146c0.364,0,0.981,0,1.344-0.153c0.364-0.151,0.532-0.434,0.629-1.006
					c0.029-0.153,0.056-0.208,0.125-0.208c0.088,0,0.088,0.112,0.088,0.208c0,0.112-0.114,1.064-0.184,1.358
					c-0.099,0.362-0.207,0.362-0.755,0.362c-1.048,0-1.821-0.028-2.363-0.042c-0.548-0.028-0.883-0.043-1.092-0.043
					c-0.03,0-0.265,0-0.561,0.015c-0.282,0-0.603,0.028-0.81,0.028c-0.157,0-0.224-0.028-0.224-0.112
					c0-0.042,0.028-0.083,0.11-0.083c0.125,0,0.294-0.03,0.422-0.055c0.277-0.059,0.348-0.366,0.402-0.77
					c0.07-0.591,0.07-1.694,0.07-3.037V68.921L209.792,68.921z"/>
				<path fill="#2C2C2C" d="M218.423,73.536c0.032,1.149,0.168,1.511,0.547,1.623c0.266,0.066,0.574,0.085,0.7,0.085
					c0.069,0,0.113,0.026,0.113,0.083c0,0.083-0.087,0.112-0.254,0.112c-0.798,0-1.357-0.043-1.482-0.043
					c-0.129,0-0.714,0.043-1.344,0.043c-0.14,0-0.222-0.019-0.222-0.112c0-0.057,0.038-0.083,0.11-0.083
					c0.109,0,0.36-0.019,0.572-0.085c0.351-0.099,0.423-0.506,0.423-1.776l0.011-8.017c0-0.546,0.044-0.701,0.157-0.701
					c0.108,0,0.348,0.309,0.487,0.449c0.213,0.236,2.295,2.489,4.448,4.798c1.386,1.482,2.911,3.189,3.36,3.65l-0.157-7.107
					c-0.012-0.907-0.11-1.215-0.542-1.328c-0.254-0.056-0.574-0.071-0.688-0.071c-0.099,0-0.109-0.039-0.109-0.098
					c0-0.082,0.109-0.099,0.276-0.099c0.629,0,1.302,0.042,1.457,0.042c0.154,0,0.614-0.042,1.188-0.042
					c0.157,0,0.254,0.017,0.254,0.099c0,0.059-0.059,0.098-0.155,0.098c-0.07,0-0.169,0-0.337,0.043
					c-0.461,0.098-0.52,0.406-0.52,1.246l-0.022,8.196c0,0.925-0.026,0.993-0.129,0.993c-0.11,0-0.279-0.152-1.02-0.895
					c-0.154-0.14-2.17-2.197-3.654-3.791c-1.622-1.749-3.199-3.513-3.65-4.016L218.423,73.536z"/>
				<path fill="#2C2C2C" d="M233.994,71.383c0,1.343,0,2.446,0.07,3.038c0.044,0.403,0.129,0.708,0.548,0.77
					c0.195,0.022,0.504,0.055,0.629,0.055c0.086,0,0.11,0.042,0.11,0.083c0,0.068-0.068,0.112-0.222,0.112
					c-0.773,0-1.653-0.043-1.723-0.043c-0.068,0-0.95,0.043-1.372,0.043c-0.15,0-0.222-0.028-0.222-0.112
					c0-0.042,0.026-0.083,0.111-0.083c0.125,0,0.294-0.03,0.419-0.055c0.28-0.061,0.351-0.366,0.405-0.77
					c0.07-0.592,0.07-1.695,0.07-3.038v-5.919l-2.069,0.027c-0.868,0.015-1.204,0.112-1.431,0.449
					c-0.152,0.239-0.195,0.336-0.235,0.434c-0.042,0.11-0.085,0.141-0.141,0.141c-0.041,0-0.069-0.043-0.069-0.125
					c0-0.142,0.278-1.344,0.309-1.458c0.024-0.083,0.085-0.266,0.137-0.266c0.102,0,0.242,0.141,0.617,0.168
					c0.406,0.044,0.938,0.07,1.105,0.07h5.247c0.445,0,0.77-0.025,0.993-0.07c0.211-0.027,0.336-0.069,0.391-0.069
					c0.068,0,0.068,0.084,0.068,0.168c0,0.419-0.044,1.387-0.044,1.54c0,0.125-0.037,0.182-0.097,0.182
					c-0.069,0-0.099-0.042-0.109-0.236l-0.016-0.156c-0.039-0.419-0.379-0.739-1.719-0.77l-1.765-0.028v5.918H233.994z"/>
				<path fill="#2C2C2C" d="M240.406,68.921c0-2.185,0-2.575-0.03-3.024c-0.029-0.475-0.139-0.7-0.604-0.797
					c-0.109-0.027-0.347-0.043-0.476-0.043c-0.055,0-0.109-0.027-0.109-0.082c0-0.086,0.07-0.114,0.224-0.114
					c0.627,0,1.512,0.042,1.582,0.042c0.153,0,1.215-0.042,1.649-0.042c0.883,0,1.821,0.086,2.563,0.615
					c0.347,0.255,0.965,0.941,0.965,1.903c0,1.038-0.434,2.074-1.692,3.233c1.145,1.472,2.095,2.712,2.907,3.584
					c0.755,0.794,1.36,0.95,1.708,1.005c0.265,0.043,0.46,0.043,0.544,0.043c0.073,0,0.129,0.042,0.129,0.083
					c0,0.083-0.084,0.112-0.338,0.112h-0.991c-0.786,0-1.133-0.072-1.497-0.267c-0.604-0.32-1.094-1.007-1.892-2.057
					c-0.585-0.768-1.239-1.706-1.521-2.069c-0.057-0.059-0.099-0.085-0.182-0.085l-1.723-0.026c-0.068,0-0.098,0.042-0.098,0.112
					v0.337c0,1.343,0,2.446,0.07,3.037c0.038,0.403,0.125,0.71,0.542,0.77c0.199,0.024,0.507,0.055,0.63,0.055
					c0.087,0,0.113,0.042,0.113,0.083c0,0.068-0.066,0.112-0.222,0.112c-0.771,0-1.654-0.043-1.721-0.043
					c-0.016,0-0.898,0.043-1.315,0.043c-0.153,0-0.228-0.028-0.228-0.112c0-0.042,0.032-0.083,0.114-0.083
					c0.129,0,0.299-0.03,0.424-0.055c0.277-0.059,0.346-0.366,0.406-0.77c0.068-0.591,0.068-1.694,0.068-3.037v-2.463H240.406z
					 M241.524,70.136c0,0.069,0.026,0.125,0.097,0.168c0.214,0.127,0.854,0.222,1.471,0.222c0.337,0,0.728-0.038,1.052-0.264
					c0.488-0.336,0.851-1.091,0.851-2.153c0-1.751-0.925-2.798-2.422-2.798c-0.417,0-0.796,0.041-0.938,0.083
					c-0.066,0.029-0.108,0.083-0.108,0.167L241.524,70.136L241.524,70.136z"/>
				<path fill="#2C2C2C" d="M254.589,64.665c3.144,0,5.496,1.987,5.496,5.247c0,3.135-2.21,5.721-5.58,5.721
					c-3.836,0-5.43-2.977-5.43-5.498C249.076,67.87,250.728,64.665,254.589,64.665z M254.884,75.1c1.255,0,3.857-0.725,3.857-4.795
					c0-3.36-2.039-5.162-4.251-5.162c-2.337,0-4.083,1.539-4.083,4.602C250.408,73.004,252.362,75.1,254.884,75.1z"/>
				<path fill="#2C2C2C" d="M267.459,68.921c0-2.185,0-2.575-0.028-3.024c-0.026-0.475-0.141-0.7-0.602-0.797
					c-0.109-0.027-0.349-0.043-0.474-0.043c-0.059,0-0.109-0.027-0.109-0.082c0-0.086,0.064-0.114,0.222-0.114
					c0.629,0,1.512,0.042,1.582,0.042c0.169,0,1.049-0.042,1.888-0.042c1.384,0,3.944-0.125,5.61,1.595
					c0.699,0.729,1.354,1.889,1.354,3.557c0,1.761-0.728,3.118-1.512,3.945c-0.6,0.629-1.859,1.607-4.236,1.607
					c-0.601,0-1.344-0.043-1.946-0.083c-0.616-0.042-1.094-0.085-1.16-0.085c-0.024,0-0.263,0-0.563,0.015
					c-0.276,0-0.601,0.028-0.81,0.028c-0.155,0-0.224-0.028-0.224-0.112c0-0.042,0.028-0.083,0.112-0.083
					c0.127,0,0.294-0.03,0.423-0.055c0.278-0.061,0.349-0.366,0.403-0.77c0.07-0.592,0.07-1.695,0.07-3.038v-2.462H267.459z
					 M268.634,70.431c0,1.482,0.018,2.767,0.028,3.033c0.016,0.353,0.042,0.911,0.151,1.063c0.185,0.267,0.732,0.563,2.381,0.563
					c1.3,0,2.504-0.476,3.328-1.3c0.731-0.716,1.122-2.06,1.122-3.345c0-1.779-0.77-2.924-1.344-3.526
					c-1.317-1.385-2.907-1.581-4.575-1.581c-0.278,0-0.798,0.044-0.912,0.098c-0.125,0.056-0.162,0.125-0.162,0.28
					c-0.018,0.475-0.018,1.904-0.018,2.979V70.431L268.634,70.431z"/>
				<path fill="#2C2C2C" d="M280.009,68.921c0-2.185,0-2.575-0.028-3.024c-0.024-0.475-0.141-0.7-0.601-0.797
					c-0.112-0.027-0.351-0.043-0.476-0.043c-0.058,0-0.112-0.027-0.112-0.082c0-0.086,0.07-0.114,0.222-0.114
					c0.324,0,0.703,0,1.012,0.017l0.571,0.025c0.099,0,2.882,0,3.204-0.015c0.266-0.011,0.487-0.041,0.602-0.068
					c0.069-0.014,0.128-0.07,0.194-0.07c0.044,0,0.06,0.057,0.06,0.128c0,0.098-0.07,0.265-0.114,0.656
					c-0.012,0.141-0.042,0.753-0.07,0.922c-0.015,0.07-0.043,0.156-0.097,0.156c-0.087,0-0.113-0.069-0.113-0.183
					c0-0.099-0.012-0.335-0.083-0.504c-0.097-0.222-0.237-0.391-0.993-0.474c-0.235-0.027-1.763-0.042-1.916-0.042
					c-0.056,0-0.084,0.042-0.084,0.141v3.861c0,0.098,0.012,0.141,0.084,0.141c0.184,0,1.902,0,2.223-0.03
					c0.335-0.028,0.534-0.057,0.659-0.194c0.101-0.112,0.152-0.183,0.213-0.183c0.039,0,0.064,0.027,0.064,0.11
					c0,0.085-0.064,0.324-0.106,0.784c-0.032,0.282-0.061,0.798-0.061,0.896c0,0.112,0,0.265-0.099,0.265
					c-0.07,0-0.097-0.055-0.097-0.125c0-0.141,0-0.282-0.055-0.463c-0.061-0.194-0.185-0.431-0.728-0.489
					c-0.38-0.042-1.765-0.067-2.002-0.067c-0.068,0-0.099,0.038-0.099,0.095v1.233c0,0.474-0.015,2.098,0,2.391
					c0.04,0.966,0.25,1.146,1.622,1.146c0.364,0,0.98,0,1.344-0.153c0.364-0.151,0.533-0.434,0.63-1.006
					c0.026-0.153,0.055-0.208,0.125-0.208c0.085,0,0.085,0.112,0.085,0.208c0,0.112-0.111,1.064-0.182,1.358
					c-0.099,0.362-0.213,0.362-0.753,0.362c-1.052,0-1.821-0.028-2.368-0.042c-0.543-0.028-0.88-0.043-1.09-0.043
					c-0.027,0-0.266,0-0.56,0.015c-0.28,0-0.601,0.028-0.813,0.028c-0.152,0-0.222-0.028-0.222-0.112
					c0-0.042,0.026-0.083,0.113-0.083c0.125,0,0.292-0.03,0.417-0.055c0.278-0.059,0.353-0.366,0.407-0.77
					c0.07-0.591,0.07-1.694,0.07-3.037v-2.463H280.009z"/>
			</g>
			<g>
				<path fill="#2C2C2C" d="M199.985,88.17c0,1.344,0,2.446,0.071,3.034c0.042,0.407,0.126,0.714,0.546,0.771
					c0.195,0.029,0.505,0.058,0.63,0.058c0.085,0,0.109,0.041,0.109,0.083c0,0.07-0.07,0.112-0.224,0.112
					c-0.77,0-1.648-0.042-1.719-0.042s-0.949,0.042-1.37,0.042c-0.153,0-0.222-0.027-0.222-0.112c0-0.042,0.024-0.083,0.107-0.083
					c0.128,0,0.298-0.027,0.423-0.058c0.279-0.057,0.349-0.363,0.408-0.771c0.065-0.588,0.065-1.69,0.065-3.034v-2.462
					c0-2.182,0-2.574-0.028-3.021c-0.026-0.478-0.166-0.714-0.472-0.784c-0.155-0.04-0.335-0.058-0.434-0.058
					c-0.06,0-0.114-0.026-0.114-0.083c0-0.085,0.07-0.111,0.224-0.111c0.465,0,1.344,0.039,1.414,0.039s0.949-0.039,1.372-0.039
					c0.151,0,0.222,0.026,0.222,0.111c0,0.057-0.055,0.083-0.108,0.083c-0.098,0-0.184,0.018-0.352,0.042
					c-0.38,0.07-0.493,0.308-0.514,0.798c-0.032,0.447-0.032,0.84-0.032,3.021v2.464H199.985z"/>
				<path fill="#2C2C2C" d="M204.702,85.708c0-2.182,0-2.574-0.028-3.021c-0.026-0.478-0.141-0.699-0.601-0.798
					c-0.114-0.026-0.353-0.042-0.478-0.042c-0.054,0-0.108-0.028-0.108-0.083c0-0.085,0.066-0.111,0.224-0.111
					c0.627,0,1.513,0.039,1.579,0.039c0.168,0,1.052-0.039,1.891-0.039c1.384,0,3.944-0.126,5.608,1.594
					c0.701,0.729,1.356,1.891,1.356,3.553c0,1.765-0.728,3.12-1.512,3.944c-0.603,0.631-1.859,1.609-4.239,1.609
					c-0.598,0-1.341-0.042-1.943-0.082c-0.615-0.043-1.093-0.085-1.163-0.085c-0.026,0-0.266,0-0.56,0.015
					c-0.276,0-0.601,0.027-0.807,0.027c-0.158,0-0.228-0.027-0.228-0.112c0-0.042,0.026-0.083,0.113-0.083
					c0.125,0,0.292-0.027,0.419-0.058c0.28-0.057,0.351-0.363,0.407-0.771c0.068-0.588,0.068-1.69,0.068-3.034V85.708
					L204.702,85.708z M205.876,87.216c0,1.484,0.018,2.771,0.028,3.036c0.016,0.349,0.038,0.912,0.156,1.063
					c0.18,0.266,0.728,0.56,2.376,0.56c1.3,0,2.504-0.473,3.328-1.303c0.731-0.709,1.122-2.054,1.122-3.339
					c0-1.776-0.773-2.927-1.344-3.529c-1.317-1.383-2.911-1.578-4.577-1.578c-0.278,0-0.796,0.039-0.907,0.101
					c-0.129,0.055-0.167,0.125-0.167,0.274c-0.018,0.478-0.018,1.904-0.018,2.981v1.733H205.876z"/>
				<path fill="#2C2C2C" d="M218.44,88.17c0,1.344,0,2.446,0.07,3.034c0.042,0.407,0.125,0.714,0.546,0.771
					c0.195,0.029,0.502,0.058,0.629,0.058c0.082,0,0.11,0.041,0.11,0.083c0,0.07-0.07,0.112-0.224,0.112
					c-0.77,0-1.653-0.042-1.721-0.042c-0.066,0-0.952,0.042-1.367,0.042c-0.157,0-0.228-0.027-0.228-0.112
					c0-0.042,0.032-0.083,0.114-0.083c0.125,0,0.294-0.027,0.423-0.058c0.276-0.057,0.347-0.363,0.401-0.771
					c0.07-0.588,0.07-1.69,0.07-3.034v-2.462c0-2.182,0-2.574-0.026-3.021c-0.028-0.478-0.169-0.714-0.474-0.784
					c-0.156-0.04-0.34-0.058-0.438-0.058c-0.055,0-0.109-0.026-0.109-0.083c0-0.085,0.071-0.111,0.224-0.111
					c0.46,0,1.344,0.039,1.41,0.039c0.069,0,0.953-0.039,1.375-0.039c0.152,0,0.223,0.026,0.223,0.111
					c0,0.057-0.054,0.083-0.112,0.083c-0.099,0-0.18,0.018-0.347,0.042c-0.381,0.07-0.493,0.308-0.52,0.798
					c-0.026,0.447-0.026,0.84-0.026,3.021v2.464H218.44z"/>
				<path fill="#2C2C2C" d="M227.071,81.451c3.147,0,5.496,1.99,5.496,5.246c0,3.136-2.206,5.725-5.579,5.725
					c-3.833,0-5.427-2.982-5.427-5.498C221.561,84.657,223.21,81.451,227.071,81.451z M227.363,91.892
					c1.262,0,3.864-0.726,3.864-4.799c0-3.358-2.043-5.162-4.255-5.162c-2.337,0-4.082,1.537-4.082,4.604
					C222.89,89.792,224.847,91.892,227.363,91.892z"/>
				<path fill="#2C2C2C" d="M246.098,90.421c0.058,0.506,0.152,1.287,0.755,1.484c0.405,0.125,0.77,0.125,0.909,0.125
					c0.07,0,0.114,0.013,0.114,0.07c0,0.083-0.125,0.125-0.294,0.125c-0.309,0-1.819-0.042-2.341-0.086
					c-0.32-0.026-0.391-0.068-0.391-0.136c0-0.06,0.029-0.086,0.101-0.099c0.07-0.016,0.086-0.254,0.059-0.505l-0.673-7.219h-0.043
					l-3.427,7.274c-0.296,0.615-0.335,0.742-0.46,0.742c-0.103,0-0.169-0.14-0.435-0.644c-0.367-0.687-1.567-3.106-1.638-3.247
					c-0.129-0.25-1.69-3.608-1.848-3.985h-0.055l-0.563,6.489c-0.012,0.226-0.012,0.478-0.012,0.713c0,0.21,0.153,0.394,0.363,0.436
					c0.239,0.055,0.446,0.07,0.531,0.07c0.055,0,0.113,0.028,0.113,0.07c0,0.098-0.085,0.125-0.254,0.125
					c-0.516,0-1.189-0.042-1.302-0.042c-0.125,0-0.796,0.042-1.177,0.042c-0.137,0-0.235-0.027-0.235-0.125
					c0-0.042,0.072-0.07,0.141-0.07c0.111,0,0.21,0,0.421-0.042c0.462-0.083,0.504-0.629,0.559-1.162l1.009-9.123
					c0.015-0.151,0.069-0.252,0.151-0.252c0.087,0,0.14,0.057,0.212,0.21l4.281,8.804l4.111-8.788
					c0.059-0.125,0.111-0.226,0.21-0.226s0.141,0.113,0.169,0.379L246.098,90.421z"/>
				<path fill="#2C2C2C" d="M252.127,81.997c0.168-0.459,0.222-0.546,0.309-0.546c0.081,0,0.141,0.074,0.304,0.506
					c0.212,0.532,2.406,6.309,3.261,8.438c0.507,1.239,0.912,1.469,1.204,1.55c0.206,0.07,0.419,0.086,0.559,0.086
					c0.082,0,0.141,0.013,0.141,0.083c0,0.085-0.125,0.112-0.28,0.112c-0.213,0-1.232,0-2.197-0.027
					c-0.265-0.015-0.418-0.015-0.418-0.098c0-0.06,0.039-0.086,0.095-0.099c0.089-0.029,0.172-0.156,0.089-0.38l-1.304-3.441
					c-0.029-0.055-0.056-0.083-0.125-0.083h-3.01c-0.07,0-0.112,0.04-0.137,0.109l-0.84,2.478c-0.129,0.351-0.199,0.686-0.199,0.938
					c0,0.281,0.296,0.406,0.531,0.406h0.14c0.099,0,0.143,0.028,0.143,0.083c0,0.086-0.083,0.112-0.212,0.112
					c-0.332,0-0.938-0.042-1.09-0.042c-0.155,0-0.923,0.042-1.579,0.042c-0.188,0-0.265-0.026-0.265-0.112
					c0-0.055,0.055-0.083,0.125-0.083c0.097,0,0.293-0.016,0.401-0.026c0.645-0.086,0.927-0.618,1.177-1.315L252.127,81.997z
					 M253.584,87.594c0.07,0,0.07-0.04,0.055-0.097l-1.328-3.777c-0.07-0.211-0.141-0.211-0.212,0l-1.23,3.777
					c-0.026,0.071,0,0.097,0.044,0.097H253.584z"/>
				<path fill="#2C2C2C" d="M258.742,92.043c-0.195-0.099-0.207-0.151-0.207-0.532c0-0.699,0.055-1.259,0.07-1.479
					c0.015-0.155,0.04-0.224,0.109-0.224c0.086,0,0.097,0.04,0.097,0.153c0,0.126,0,0.32,0.044,0.516
					c0.211,1.033,1.134,1.43,2.071,1.43c1.344,0,2-0.967,2-1.863c0-0.965-0.406-1.523-1.607-2.517l-0.627-0.52
					c-1.482-1.215-1.821-2.083-1.821-3.032c0-1.499,1.118-2.524,2.896-2.524c0.548,0,0.949,0.059,1.3,0.142
					c0.268,0.058,0.379,0.068,0.489,0.068c0.113,0,0.141,0.028,0.141,0.101c0,0.068-0.054,0.53-0.054,1.482
					c0,0.222-0.028,0.32-0.099,0.32c-0.081,0-0.099-0.068-0.113-0.181c-0.016-0.168-0.097-0.548-0.18-0.699
					c-0.086-0.151-0.461-0.743-1.75-0.743c-0.964,0-1.719,0.602-1.719,1.623c0,0.798,0.362,1.3,1.708,2.352l0.39,0.309
					c1.649,1.301,2.04,2.167,2.04,3.287c0,0.574-0.224,1.635-1.188,2.321c-0.601,0.421-1.355,0.589-2.113,0.589
					C259.96,92.422,259.316,92.324,258.742,92.043z"/>
			</g>
		</g>
		<g>
			<g id="usmp_1_">
				<path fill="#2C2C2C" d="M77.03,60.755c0-5.102,0-6.042-0.067-7.12c-0.063-1.143-0.34-1.674-1.461-1.901
					c-0.278-0.073-0.848-0.101-1.329-0.101c-0.371,0-0.578-0.072-0.578-0.305c0-0.243,0.238-0.304,0.75-0.304
					c1.805,0,3.943,0.11,4.97,0.11c0.812,0,2.958-0.11,4.188-0.11c0.504,0,0.746,0.062,0.746,0.304c0,0.233-0.199,0.305-0.55,0.305
					c-0.372,0-0.574,0.027-0.985,0.101c-0.923,0.156-1.188,0.731-1.258,1.901c-0.063,1.078-0.063,2.019-0.063,7.12v4.694
					c0,4.862,0.985,6.91,2.657,8.246c1.523,1.242,3.087,1.384,4.239,1.384c1.5,0,3.341-0.468,4.696-1.814
					c1.876-1.844,1.98-4.863,1.98-8.318v-4.191c0-5.102,0-6.042-0.07-7.12c-0.069-1.143-0.343-1.674-1.465-1.901
					c-0.269-0.073-0.852-0.101-1.223-0.101c-0.375,0-0.578-0.072-0.578-0.305c0-0.243,0.239-0.304,0.714-0.304
					c1.731,0,3.873,0.11,3.912,0.11c0.406,0,2.547-0.11,3.88-0.11c0.473,0,0.715,0.062,0.715,0.304c0,0.233-0.212,0.305-0.605,0.305
					c-0.384,0-0.583,0.027-0.997,0.101c-0.915,0.156-1.191,0.731-1.257,1.901c-0.067,1.078-0.067,2.019-0.067,7.12v3.582
					c0,3.727-0.371,7.682-3.231,10.099c-2.414,2.052-4.872,2.417-7.076,2.417c-1.8,0-5.071-0.101-7.557-2.32
					c-1.734-1.53-3.032-4.02-3.032-8.883v-4.896H77.03z"/>
				<path fill="#2C2C2C" d="M106.291,75.98c-0.539-0.235-0.641-0.397-0.641-1.143c0-1.835,0.137-3.859,0.173-4.389
					c0.026-0.511,0.136-0.875,0.405-0.875c0.308,0,0.335,0.297,0.335,0.573c0,0.438,0.133,1.141,0.309,1.708
					c0.75,2.481,2.75,3.39,4.872,3.39c3.056,0,4.552-2.05,4.552-3.824c0-1.643-0.505-3.179-3.333-5.368l-1.566-1.212
					c-3.747-2.888-5.029-5.232-5.029-7.946c0-3.695,3.125-6.341,7.858-6.341c2.207,0,3.633,0.33,4.523,0.581
					c0.308,0.057,0.468,0.156,0.468,0.394c0,0.434-0.129,1.411-0.129,4.021c0,0.745-0.101,1.01-0.374,1.01
					c-0.243,0-0.341-0.211-0.341-0.604c0-0.301-0.172-1.348-0.887-2.216c-0.517-0.637-1.5-1.645-3.713-1.645
					c-2.512,0-4.047,1.442-4.047,3.455c0,1.549,0.782,2.722,3.611,4.831l0.953,0.704c4.118,3.054,5.579,5.372,5.579,8.552
					c0,1.954-0.75,4.266-3.204,5.841c-1.696,1.082-3.603,1.376-5.404,1.376C109.288,76.854,107.757,76.613,106.291,75.98"/>
				<path fill="#2C2C2C" d="M129.637,51.162c0.104-0.573,0.301-0.876,0.578-0.876c0.274,0,0.48,0.167,0.922,1.042l9.279,18.914
					l9.264-19.156c0.27-0.533,0.438-0.8,0.743-0.8c0.309,0,0.516,0.336,0.618,1.042l3.091,20.73
					c0.314,2.115,0.657,3.086,1.673,3.388c0.984,0.299,1.664,0.328,2.113,0.328c0.302,0,0.542,0.041,0.542,0.242
					c0,0.264-0.413,0.367-0.881,0.367c-0.853,0-5.549-0.102-6.916-0.2c-0.786-0.064-0.981-0.167-0.981-0.368
					c0-0.174,0.133-0.263,0.375-0.369c0.195-0.066,0.306-0.508,0.161-1.446l-2.033-14.757h-0.143l-7.412,15.227
					c-0.778,1.583-0.953,1.885-1.254,1.885c-0.309,0-0.644-0.675-1.196-1.675c-0.82-1.552-3.508-6.678-3.911-7.624
					c-0.312-0.703-2.352-4.933-3.532-7.447h-0.142l-1.769,13.346c-0.078,0.607-0.105,1.044-0.105,1.58
					c0,0.637,0.445,0.942,1.023,1.081c0.609,0.13,1.087,0.159,1.431,0.159c0.269,0,0.515,0.071,0.515,0.242
					c0,0.301-0.315,0.367-0.832,0.367c-1.422,0-2.954-0.104-3.567-0.104c-0.645,0-2.275,0.104-3.369,0.104
					c-0.34,0-0.61-0.066-0.61-0.367c0-0.171,0.196-0.242,0.541-0.242c0.276,0,0.515,0,1.02-0.096
					c0.953-0.202,1.223-1.508,1.395-2.651L129.637,51.162z"/>
				<path fill="#2C2C2C" d="M164.552,60.755c0-5.102,0-6.042-0.076-7.12c-0.063-1.143-0.339-1.674-1.461-1.901
					c-0.273-0.073-0.852-0.101-1.321-0.101c-0.373,0-0.582-0.072-0.582-0.305c0-0.243,0.243-0.304,0.743-0.304
					c1.813,0,3.949,0.11,4.91,0.11c1.392,0,3.36-0.11,4.928-0.11c4.259,0,5.782,1.407,6.326,1.915
					c0.758,0.699,1.71,2.212,1.71,3.988c0,4.759-3.541,8.117-8.373,8.117c-0.179,0-0.548,0-0.711-0.033
					c-0.177-0.029-0.415-0.063-0.415-0.304c0-0.26,0.238-0.369,0.949-0.369c1.918,0,4.567-2.112,4.567-5.531
					c0-1.106-0.109-3.356-2.013-5.039c-1.222-1.099-2.621-1.301-3.397-1.301c-0.512,0-1.02,0.026-1.325,0.133
					c-0.18,0.07-0.278,0.277-0.278,0.642v13.412c0,3.089,0,5.742,0.169,7.187c0.109,0.938,0.313,1.678,1.328,1.803
					c0.478,0.068,1.227,0.132,1.734,0.132c0.379,0,0.548,0.097,0.548,0.277c0,0.229-0.273,0.333-0.648,0.333
					c-2.248,0-4.388-0.104-5.278-0.104c-0.779,0-2.915,0.104-4.283,0.104c-0.445,0-0.684-0.104-0.684-0.333
					c0-0.183,0.14-0.277,0.547-0.277c0.512,0,0.922-0.063,1.234-0.132c0.671-0.125,0.841-0.866,0.978-1.841
					c0.177-1.406,0.177-4.06,0.177-7.149v-5.898H164.552z"/>
				<path fill="#2C2C2C" d="M73.756,92.112c-0.134-0.055-0.16-0.099-0.16-0.269c0-0.421,0.034-0.872,0.039-0.997
					c0.016-0.129,0.035-0.209,0.101-0.209s0.075,0.061,0.075,0.141c0,0.095,0.027,0.248,0.07,0.389
					c0.171,0.563,0.621,0.78,1.102,0.78c0.687,0,1.027-0.472,1.027-0.879c0-0.387-0.113-0.747-0.753-1.235l-0.36-0.281
					c-0.845-0.655-1.133-1.199-1.133-1.815c0-0.86,0.715-1.465,1.778-1.465c0.5,0,0.831,0.081,1.027,0.133
					c0.06,0.015,0.105,0.038,0.105,0.093c0,0.103-0.027,0.324-0.027,0.925c0,0.173-0.035,0.228-0.089,0.228
					c-0.054,0-0.079-0.048-0.079-0.133c0-0.076-0.035-0.309-0.199-0.512c-0.103-0.149-0.333-0.371-0.844-0.371
					c-0.567,0-0.91,0.322-0.91,0.788c0,0.343,0.179,0.618,0.819,1.108l0.208,0.163c0.938,0.701,1.27,1.232,1.27,1.96
					c0,0.455-0.168,0.974-0.73,1.34c-0.383,0.244-0.813,0.32-1.224,0.32C74.423,92.311,74.076,92.252,73.756,92.112"/>
				<path fill="#2C2C2C" d="M79.108,90.188c-0.027,0-0.05,0.02-0.06,0.056l-0.418,1.11c-0.082,0.193-0.114,0.375-0.114,0.472
					c0,0.145,0.063,0.233,0.305,0.233h0.11c0.101,0,0.121,0.019,0.121,0.061c0,0.074-0.039,0.087-0.129,0.087
					c-0.25,0-0.582-0.019-0.816-0.019c-0.085,0-0.507,0.019-0.906,0.019c-0.106,0-0.145-0.013-0.145-0.087
					c0-0.042,0.028-0.061,0.095-0.061c0.059,0,0.172,0,0.234-0.021c0.356-0.037,0.501-0.299,0.652-0.686l1.934-4.833
					c0.091-0.229,0.134-0.313,0.212-0.313c0.069,0,0.113,0.072,0.198,0.25c0.181,0.419,1.411,3.563,1.908,4.732
					c0.285,0.699,0.519,0.804,0.676,0.842c0.117,0.028,0.231,0.028,0.324,0.028c0.063,0,0.099,0.01,0.099,0.061
					c0,0.074-0.066,0.087-0.348,0.087c-0.285,0-0.837,0-1.458-0.013c-0.149-0.006-0.235-0.006-0.235-0.074
					c0-0.042,0.027-0.061,0.11-0.061c0.055-0.022,0.106-0.087,0.07-0.171l-0.622-1.648c-0.011-0.03-0.034-0.052-0.079-0.052H79.108z
					 M80.687,89.803c0.035,0,0.042-0.022,0.035-0.041l-0.688-1.912c-0.008-0.027-0.02-0.064-0.042-0.064
					c-0.021,0-0.043,0.037-0.043,0.064l-0.708,1.898c-0.015,0.032,0,0.055,0.035,0.055H80.687z"/>
				<path fill="#2C2C2C" d="M84.794,91.158c0.008,0.595,0.101,0.794,0.265,0.846c0.129,0.055,0.274,0.055,0.398,0.055
					c0.079,0,0.128,0.019,0.128,0.061c0,0.074-0.075,0.087-0.18,0.087c-0.5,0-0.809-0.019-0.954-0.019
					c-0.075,0-0.425,0.019-0.831,0.019c-0.102,0-0.172-0.011-0.172-0.087c0-0.042,0.046-0.061,0.125-0.061
					c0.099,0,0.234,0,0.348-0.034c0.191-0.055,0.226-0.284,0.234-0.953l0.075-4.561c0-0.159,0.023-0.261,0.102-0.261
					c0.082,0,0.152,0.102,0.281,0.238c0.094,0.101,1.262,1.355,2.391,2.468c0.52,0.524,1.559,1.64,1.692,1.757h0.042l-0.079-3.457
					c-0.008-0.466-0.086-0.616-0.262-0.693c-0.117-0.044-0.301-0.044-0.415-0.044c-0.086,0-0.116-0.022-0.116-0.063
					c0-0.07,0.082-0.079,0.199-0.079c0.402,0,0.761,0.026,0.926,0.026c0.082,0,0.384-0.026,0.758-0.026
					c0.099,0,0.18,0.009,0.18,0.079c0,0.04-0.051,0.063-0.149,0.063c-0.071,0-0.133,0-0.219,0.02
					c-0.223,0.066-0.286,0.226-0.286,0.651l-0.094,4.869c0,0.161-0.027,0.24-0.094,0.24c-0.086,0-0.181-0.093-0.266-0.182
					c-0.488-0.459-1.469-1.467-2.27-2.259c-0.848-0.83-1.696-1.793-1.833-1.946h-0.028L84.794,91.158z"/>
				<path fill="#2C2C2C" d="M94.547,86.413c0.022-0.137,0.079-0.209,0.136-0.209c0.06,0,0.106,0.044,0.208,0.25l2.102,4.331
					l2.087-4.394c0.062-0.121,0.104-0.186,0.179-0.186c0.063,0,0.113,0.083,0.141,0.25l0.692,4.748
					c0.066,0.486,0.156,0.71,0.379,0.772c0.23,0.082,0.384,0.082,0.484,0.082c0.063,0,0.118,0.01,0.118,0.059
					c0,0.07-0.09,0.089-0.191,0.089c-0.203,0-1.258-0.019-1.57-0.049c-0.184-0.02-0.23-0.04-0.23-0.089
					c0-0.038,0.039-0.062,0.09-0.092c0.05-0.005,0.074-0.102,0.042-0.325l-0.464-3.386h-0.035l-1.674,3.499
					c-0.175,0.354-0.218,0.431-0.289,0.431c-0.062,0-0.144-0.159-0.266-0.389c-0.188-0.346-0.797-1.519-0.887-1.744
					c-0.066-0.166-0.531-1.137-0.797-1.711h-0.035l-0.395,3.064c-0.023,0.137-0.027,0.235-0.027,0.369
					c0,0.141,0.102,0.207,0.227,0.239c0.141,0.034,0.255,0.034,0.328,0.034c0.056,0,0.118,0.019,0.118,0.059
					c0,0.076-0.074,0.089-0.187,0.089c-0.32,0-0.668-0.019-0.806-0.019c-0.156,0-0.524,0.019-0.758,0.019
					c-0.094,0-0.149-0.013-0.149-0.089c0-0.04,0.047-0.059,0.118-0.059c0.071,0,0.121,0,0.239-0.022
					c0.22-0.044,0.277-0.344,0.316-0.596L94.547,86.413z"/>
				<path fill="#2C2C2C" d="M102.837,90.188c-0.04,0-0.059,0.02-0.07,0.056l-0.414,1.11c-0.078,0.193-0.121,0.375-0.121,0.472
					c0,0.145,0.075,0.233,0.316,0.233h0.109c0.091,0,0.114,0.019,0.114,0.061c0,0.074-0.043,0.087-0.125,0.087
					c-0.25,0-0.574-0.019-0.825-0.019c-0.082,0-0.505,0.019-0.899,0.019c-0.101,0-0.145-0.013-0.145-0.087
					c0-0.042,0.023-0.061,0.082-0.061c0.079,0,0.18,0,0.243-0.021c0.359-0.037,0.504-0.299,0.652-0.686l1.938-4.833
					c0.09-0.229,0.14-0.313,0.21-0.313c0.075,0,0.118,0.072,0.191,0.25c0.196,0.419,1.418,3.563,1.914,4.732
					c0.297,0.699,0.517,0.804,0.68,0.842c0.118,0.028,0.231,0.028,0.324,0.028c0.063,0,0.094,0.01,0.094,0.061
					c0,0.074-0.062,0.087-0.351,0.087c-0.274,0-0.844,0-1.454-0.013c-0.145-0.006-0.235-0.006-0.235-0.074
					c0-0.042,0.027-0.061,0.114-0.061c0.046-0.022,0.105-0.087,0.071-0.171l-0.623-1.648c-0.015-0.03-0.039-0.052-0.079-0.052
					H102.837z M104.416,89.803c0.027,0,0.042-0.022,0.027-0.041l-0.696-1.912c-0.004-0.027-0.004-0.064-0.03-0.064
					c-0.024,0-0.039,0.037-0.047,0.064l-0.707,1.898c-0.012,0.032,0,0.055,0.023,0.055H104.416z"/>
				<path fill="#2C2C2C" d="M108.069,88.612c0-1.172,0-1.374-0.011-1.632c-0.011-0.266-0.074-0.383-0.335-0.441
					c-0.059-0.012-0.188-0.02-0.301-0.02c-0.074,0-0.122-0.017-0.122-0.063c0-0.064,0.051-0.079,0.168-0.079
					c0.41,0,0.891,0.026,1.051,0.026c0.263,0,0.844-0.026,1.086-0.026c0.485,0,1,0.045,1.422,0.335
					c0.207,0.143,0.519,0.534,0.519,1.05c0,0.563-0.238,1.102-1.011,1.732c0.68,0.858,1.215,1.551,1.667,2.026
					c0.427,0.449,0.75,0.494,0.864,0.516c0.079,0.022,0.153,0.022,0.215,0.022c0.06,0,0.094,0.024,0.094,0.061
					c0,0.074-0.059,0.087-0.148,0.087h-0.73c-0.429,0-0.625-0.045-0.829-0.147c-0.324-0.171-0.621-0.538-1.055-1.134
					c-0.304-0.426-0.661-0.943-0.758-1.064c-0.034-0.044-0.082-0.056-0.144-0.056l-0.665-0.004c-0.042,0-0.062,0.004-0.062,0.056
					v0.105c0,0.711,0,1.327,0.039,1.646c0.023,0.22,0.071,0.393,0.297,0.423c0.117,0.009,0.285,0.028,0.38,0.028
					c0.059,0,0.09,0.024,0.09,0.061c0,0.068-0.051,0.087-0.148,0.087c-0.453,0-1.012-0.019-1.132-0.019
					c-0.149,0-0.628,0.019-0.938,0.019c-0.102,0-0.156-0.019-0.156-0.087c0-0.034,0.027-0.061,0.121-0.061
					c0.118,0,0.21-0.021,0.274-0.028c0.16-0.028,0.195-0.203,0.222-0.423c0.039-0.318,0.039-0.935,0.039-1.646v-1.351H108.069z
					 M108.983,89.224c0,0.081,0.011,0.117,0.062,0.129c0.164,0.059,0.399,0.085,0.594,0.085c0.309,0,0.399-0.03,0.551-0.133
					c0.222-0.165,0.445-0.516,0.445-1.158c0-1.084-0.723-1.412-1.176-1.412c-0.191,0-0.333,0.014-0.415,0.034
					c-0.05,0.02-0.062,0.052-0.062,0.106V89.224z"/>
				<path fill="#2C2C2C" d="M114.773,86.811l-1.148,0.026c-0.445,0.016-0.633,0.052-0.747,0.228
					c-0.075,0.115-0.114,0.203-0.133,0.266c-0.015,0.059-0.035,0.095-0.082,0.095c-0.059,0-0.075-0.044-0.075-0.123
					c0-0.122,0.149-0.825,0.16-0.886c0.027-0.102,0.055-0.147,0.103-0.147c0.054,0,0.132,0.081,0.328,0.089
					c0.222,0.026,0.515,0.044,0.77,0.044H117c0.243,0,0.41-0.026,0.531-0.044c0.114-0.015,0.176-0.039,0.207-0.039
					c0.051,0,0.063,0.051,0.063,0.168c0,0.159-0.027,0.693-0.027,0.887c-0.008,0.082-0.023,0.133-0.066,0.133
					c-0.063,0-0.074-0.047-0.086-0.165l-0.011-0.087c-0.011-0.189-0.21-0.407-0.906-0.428l-0.97-0.016v3.15
					c0,0.71,0,1.326,0.039,1.648c0.022,0.216,0.066,0.391,0.308,0.419c0.095,0.009,0.274,0.028,0.386,0.028
					c0.09,0,0.125,0.026,0.125,0.061c0,0.068-0.063,0.087-0.149,0.087c-0.511,0-0.996-0.019-1.207-0.019
					c-0.18,0-0.672,0.019-0.974,0.019c-0.1,0-0.155-0.019-0.155-0.087c0-0.034,0.034-0.061,0.125-0.061
					c0.113,0,0.207-0.02,0.278-0.028c0.155-0.028,0.194-0.203,0.219-0.423c0.043-0.318,0.043-0.935,0.043-1.645v-3.15H114.773z"/>
				<path fill="#2C2C2C" d="M119.372,88.612c0-1.172,0-1.374-0.023-1.632c-0.012-0.266-0.086-0.391-0.25-0.435
					c-0.09-0.019-0.191-0.026-0.278-0.026c-0.075,0-0.121-0.017-0.121-0.077c0-0.05,0.056-0.064,0.181-0.064
					c0.293,0,0.77,0.026,0.995,0.026c0.195,0,0.653-0.026,0.938-0.026c0.102,0,0.165,0.015,0.165,0.064
					c0,0.061-0.043,0.077-0.121,0.077c-0.074,0-0.142,0.01-0.223,0.02c-0.215,0.041-0.282,0.174-0.302,0.441
					c-0.008,0.258-0.008,0.46-0.008,1.632v1.351c0,0.751,0,1.359,0.027,1.689c0.024,0.21,0.079,0.349,0.313,0.379
					c0.117,0.009,0.273,0.028,0.395,0.028c0.082,0,0.12,0.024,0.12,0.061c0,0.068-0.06,0.087-0.147,0.087
					c-0.505,0-1.001-0.019-1.204-0.019c-0.18,0-0.657,0.019-0.969,0.019c-0.094,0-0.149-0.019-0.149-0.087
					c0-0.034,0.035-0.061,0.118-0.061c0.117,0,0.212-0.021,0.277-0.028c0.156-0.028,0.203-0.155,0.223-0.385
					c0.043-0.324,0.043-0.933,0.043-1.684V88.612z"/>
				<path fill="#2C2C2C" d="M123.439,91.158c0.006,0.595,0.114,0.794,0.266,0.846c0.133,0.055,0.274,0.055,0.403,0.055
					c0.082,0,0.133,0.019,0.133,0.061c0,0.074-0.07,0.087-0.176,0.087c-0.505,0-0.817-0.019-0.957-0.019
					c-0.065,0-0.429,0.019-0.835,0.019c-0.099,0-0.173-0.011-0.173-0.087c0-0.042,0.056-0.061,0.129-0.061
					c0.106,0,0.239,0,0.348-0.034c0.191-0.055,0.23-0.284,0.239-0.953l0.074-4.561c0-0.159,0.02-0.261,0.094-0.261
					c0.09,0,0.156,0.102,0.281,0.238c0.09,0.101,1.27,1.355,2.387,2.468c0.527,0.524,1.571,1.64,1.696,1.757h0.043l-0.074-3.457
					c-0.012-0.466-0.086-0.616-0.265-0.693c-0.117-0.044-0.301-0.044-0.409-0.044c-0.083,0-0.122-0.022-0.122-0.063
					c0-0.07,0.082-0.079,0.198-0.079c0.407,0,0.766,0.026,0.93,0.026c0.091,0,0.38-0.026,0.762-0.026
					c0.091,0,0.177,0.009,0.177,0.079c0,0.04-0.052,0.063-0.142,0.063c-0.078,0-0.141,0-0.238,0.02
					c-0.208,0.066-0.27,0.226-0.273,0.651l-0.095,4.869c0,0.161-0.032,0.24-0.094,0.24c-0.085,0-0.171-0.093-0.265-0.182
					c-0.484-0.459-1.469-1.467-2.267-2.259c-0.847-0.83-1.707-1.793-1.839-1.946h-0.022L123.439,91.158z"/>
				<path fill="#2C2C2C" d="M132.922,88.612c0-1.172,0-1.374-0.021-1.632c-0.012-0.266-0.073-0.383-0.336-0.441
					c-0.062-0.012-0.188-0.02-0.297-0.02c-0.078,0-0.133-0.017-0.133-0.063c0-0.064,0.056-0.079,0.18-0.079
					c0.403,0,0.883,0.026,1.102,0.026c0.235,0,0.719-0.026,1.185-0.026c0.969,0,2.243,0,3.088,0.879
					c0.383,0.4,0.747,1.033,0.747,1.954c0,0.969-0.404,1.715-0.836,2.151c-0.352,0.367-1.153,0.909-2.579,0.909
					c-0.278,0-0.59-0.021-0.887-0.051c-0.297-0.014-0.563-0.032-0.758-0.032c-0.074,0-0.254,0-0.429,0.006
					c-0.18,0-0.384,0.013-0.536,0.013c-0.095,0-0.156-0.019-0.156-0.087c0-0.034,0.035-0.061,0.125-0.061
					c0.113,0,0.204-0.02,0.277-0.028c0.152-0.028,0.196-0.203,0.223-0.423c0.043-0.318,0.043-0.935,0.043-1.646L132.922,88.612
					L132.922,88.612z M133.88,89.462c0,0.824,0.015,1.408,0.015,1.547c0.009,0.195,0.024,0.51,0.083,0.595
					c0.102,0.141,0.403,0.304,1.016,0.304c0.783,0,1.301-0.152,1.77-0.554c0.484-0.423,0.641-1.122,0.641-1.916
					c0-0.979-0.408-1.613-0.735-1.922c-0.711-0.688-1.591-0.781-2.197-0.781c-0.151,0-0.433,0.031-0.497,0.056
					c-0.07,0.034-0.083,0.073-0.083,0.151c-0.015,0.27-0.015,0.941-0.015,1.547L133.88,89.462L133.88,89.462z"/>
				<path fill="#2C2C2C" d="M140.205,88.612c0-1.172,0-1.374-0.016-1.632c-0.011-0.266-0.081-0.383-0.337-0.441
					c-0.059-0.012-0.186-0.02-0.3-0.02c-0.087,0-0.132-0.017-0.132-0.063c0-0.064,0.053-0.079,0.167-0.079
					c0.212,0,0.434,0.009,0.633,0.009c0.195,0.006,0.372,0.018,0.479,0.018c0.25,0,1.774,0,1.928-0.012
					c0.147-0.015,0.27-0.032,0.332-0.04c0.043-0.007,0.077-0.035,0.121-0.035c0.043,0,0.055,0.035,0.055,0.069
					c0,0.056-0.047,0.154-0.07,0.501c-0.017,0.081-0.026,0.417-0.04,0.504c-0.007,0.051-0.022,0.085-0.073,0.085
					c-0.055,0-0.066-0.034-0.066-0.101c0-0.063-0.02-0.191-0.048-0.278c-0.057-0.14-0.136-0.231-0.515-0.274
					c-0.133-0.012-0.942-0.03-1.098-0.03c-0.044,0-0.052,0.022-0.052,0.073v1.946c0,0.056,0.004,0.088,0.052,0.088
					c0.169,0,1.06,0,1.239-0.014c0.188-0.019,0.296-0.04,0.369-0.113c0.052-0.07,0.08-0.106,0.118-0.106
					c0.032,0,0.051,0.016,0.051,0.059c0,0.057-0.022,0.177-0.055,0.566c-0.012,0.152-0.034,0.463-0.034,0.516
					c0,0.061,0,0.145-0.063,0.145c-0.059,0-0.074-0.026-0.074-0.066c-0.013-0.078-0.013-0.179-0.04-0.28
					c-0.033-0.145-0.14-0.262-0.422-0.298c-0.148-0.016-0.91-0.026-1.098-0.026c-0.04,0-0.044,0.043-0.044,0.073v0.61
					c0,0.27-0.003,0.977,0,1.204c0.008,0.524,0.137,0.639,0.924,0.639c0.202,0,0.526,0,0.729-0.09
					c0.191-0.089,0.29-0.254,0.341-0.57c0.016-0.077,0.026-0.119,0.085-0.119c0.066,0,0.066,0.064,0.066,0.147
					c0,0.177-0.066,0.702-0.105,0.852c-0.05,0.195-0.125,0.195-0.417,0.195c-0.574,0-1.005-0.012-1.337-0.016
					c-0.327-0.013-0.566-0.019-0.798-0.019c-0.081,0-0.253,0-0.436,0.006c-0.182,0-0.377,0.013-0.532,0.013
					c-0.104,0-0.152-0.019-0.152-0.087c0-0.034,0.03-0.061,0.125-0.061c0.114,0,0.203-0.02,0.269-0.028
					c0.156-0.028,0.195-0.203,0.22-0.423c0.049-0.318,0.049-0.935,0.049-1.646V88.612z"/>
				<path fill="#2C2C2C" d="M147.689,88.612c0-1.172,0-1.374-0.018-1.632c-0.017-0.266-0.078-0.383-0.337-0.441
					c-0.05-0.012-0.187-0.02-0.296-0.02c-0.084,0-0.129-0.017-0.129-0.063c0-0.064,0.055-0.079,0.167-0.079
					c0.407,0,0.899,0.026,1.114,0.026c0.311,0,0.752-0.026,1.108-0.026c0.971,0,1.315,0.329,1.438,0.443
					c0.169,0.161,0.387,0.504,0.387,0.919c0,1.09-0.802,1.855-1.896,1.855c-0.039,0-0.121,0-0.165-0.008
					c-0.033-0.01-0.093-0.021-0.093-0.064c0-0.061,0.06-0.085,0.219-0.085c0.426,0,1.024-0.485,1.024-1.273
					c0-0.258-0.021-0.775-0.45-1.154c-0.277-0.248-0.582-0.298-0.765-0.298c-0.117,0-0.238,0.002-0.305,0.021
					c-0.032,0.027-0.059,0.074-0.059,0.152v3.076c0,0.71,0,1.326,0.04,1.648c0.019,0.216,0.061,0.391,0.295,0.419
					c0.11,0.009,0.282,0.028,0.4,0.028c0.081,0,0.115,0.026,0.115,0.061c0,0.068-0.059,0.087-0.147,0.087
					c-0.508,0-0.989-0.019-1.192-0.019c-0.172,0-0.665,0.019-0.969,0.019c-0.102,0-0.161-0.019-0.161-0.087
					c0-0.034,0.044-0.061,0.129-0.061c0.118,0,0.205-0.02,0.279-0.028c0.155-0.028,0.189-0.203,0.229-0.423
					c0.032-0.318,0.032-0.935,0.032-1.645v-1.35H147.689z"/>
				<path fill="#2C2C2C" d="M152.047,89.288c0-1.313,0.864-3.018,3.181-3.018c1.916,0,3.115,1.11,3.115,2.883
					c0,1.759-1.231,3.159-3.189,3.159C152.938,92.311,152.047,90.651,152.047,89.288 M157.255,89.436
					c0-1.727-0.991-2.798-2.253-2.798c-0.884,0-1.892,0.497-1.892,2.407c0,1.605,0.891,2.877,2.367,2.877
					C156.014,91.922,157.255,91.658,157.255,89.436"/>
				<path fill="#2C2C2C" d="M160.108,88.612c0-1.172,0-1.374-0.026-1.632c-0.012-0.266-0.07-0.383-0.324-0.441
					c-0.059-0.012-0.188-0.02-0.302-0.02c-0.085,0-0.129-0.017-0.129-0.063c0-0.064,0.048-0.079,0.169-0.079
					c0.401,0,0.891,0.026,1.054,0.026c0.271,0,0.846-0.026,1.088-0.026c0.476,0,1.003,0.045,1.418,0.335
					c0.214,0.143,0.526,0.534,0.526,1.05c0,0.563-0.242,1.102-1.023,1.732c0.685,0.858,1.215,1.551,1.672,2.026
					c0.43,0.449,0.743,0.494,0.864,0.516c0.081,0.022,0.157,0.022,0.214,0.022c0.059,0,0.095,0.024,0.095,0.061
					c0,0.074-0.059,0.087-0.146,0.087h-0.735c-0.427,0-0.624-0.045-0.827-0.147c-0.323-0.171-0.625-0.538-1.052-1.134
					c-0.305-0.426-0.659-0.943-0.758-1.064c-0.042-0.044-0.081-0.056-0.142-0.056l-0.669-0.004c-0.044,0-0.062,0.004-0.062,0.056
					v0.105c0,0.711,0,1.327,0.042,1.646c0.02,0.22,0.064,0.393,0.302,0.423c0.102,0.009,0.282,0.028,0.371,0.028
					c0.066,0,0.089,0.024,0.089,0.061c0,0.068-0.045,0.087-0.147,0.087c-0.445,0-1.02-0.019-1.126-0.019
					c-0.155,0-0.645,0.019-0.945,0.019c-0.101,0-0.151-0.019-0.151-0.087c0-0.034,0.026-0.061,0.125-0.061
					c0.113,0,0.206-0.021,0.269-0.028c0.157-0.028,0.188-0.203,0.228-0.423c0.042-0.318,0.042-0.935,0.042-1.646v-1.351H160.108z
					 M161.011,89.224c0,0.081,0.012,0.117,0.066,0.129c0.163,0.059,0.402,0.085,0.59,0.085c0.309,0,0.405-0.03,0.544-0.133
					c0.233-0.165,0.461-0.516,0.461-1.158c0-1.084-0.729-1.412-1.188-1.412c-0.185,0-0.332,0.014-0.406,0.034
					c-0.055,0.02-0.066,0.052-0.066,0.106V89.224z"/>
				<path fill="#2C2C2C" d="M166.076,88.612c0-1.172,0-1.374-0.024-1.632c-0.008-0.266-0.072-0.383-0.324-0.441
					c-0.061-0.012-0.193-0.02-0.304-0.02c-0.077,0-0.129-0.017-0.129-0.063c0-0.064,0.052-0.079,0.177-0.079
					c0.401,0,0.895,0.026,1.042,0.026c0.266,0,0.854-0.026,1.096-0.026c0.483,0,0.993,0.045,1.418,0.335
					c0.202,0.143,0.522,0.534,0.522,1.05c0,0.563-0.24,1.102-1.023,1.732c0.692,0.858,1.223,1.551,1.674,2.026
					c0.432,0.449,0.747,0.494,0.866,0.516c0.077,0.022,0.157,0.022,0.208,0.022c0.058,0,0.097,0.024,0.097,0.061
					c0,0.074-0.051,0.087-0.147,0.087h-0.728c-0.437,0-0.616-0.045-0.828-0.147c-0.324-0.171-0.622-0.538-1.051-1.134
					c-0.309-0.426-0.669-0.943-0.762-1.064c-0.039-0.044-0.087-0.056-0.14-0.056l-0.669-0.004c-0.048,0-0.063,0.004-0.063,0.056
					v0.105c0,0.711,0,1.327,0.037,1.646c0.025,0.22,0.072,0.393,0.3,0.423c0.117,0.009,0.29,0.028,0.379,0.028
					c0.063,0,0.103,0.024,0.103,0.061c0,0.068-0.066,0.087-0.161,0.087c-0.449,0-1.016-0.019-1.134-0.019
					c-0.142,0-0.633,0.019-0.943,0.019c-0.093,0-0.149-0.019-0.149-0.087c0-0.034,0.026-0.061,0.121-0.061
					c0.117,0,0.206-0.021,0.271-0.028c0.161-0.028,0.195-0.203,0.228-0.423c0.044-0.318,0.044-0.935,0.044-1.646v-1.351H166.076z
					 M166.982,89.224c0,0.081,0.011,0.117,0.069,0.129c0.159,0.059,0.391,0.085,0.586,0.085c0.306,0,0.403-0.03,0.552-0.133
					c0.218-0.165,0.453-0.516,0.453-1.158c0-1.084-0.727-1.412-1.181-1.412c-0.195,0-0.332,0.014-0.41,0.034
					c-0.059,0.02-0.069,0.052-0.069,0.106V89.224z"/>
				<path fill="#2C2C2C" d="M172.042,88.612c0-1.172,0-1.374-0.007-1.632c-0.025-0.266-0.088-0.383-0.35-0.441
					c-0.051-0.012-0.188-0.02-0.297-0.02c-0.078,0-0.121-0.017-0.121-0.063c0-0.064,0.051-0.079,0.164-0.079
					c0.203,0,0.431,0.009,0.634,0.009c0.194,0.006,0.371,0.018,0.472,0.018c0.26,0,1.773,0,1.926-0.012
					c0.144-0.015,0.269-0.032,0.337-0.04c0.03-0.007,0.087-0.035,0.117-0.035c0.048,0,0.056,0.035,0.056,0.069
					c0,0.056-0.048,0.154-0.066,0.501c-0.008,0.081-0.02,0.417-0.044,0.504c-0.004,0.051-0.019,0.085-0.07,0.085
					c-0.059,0-0.066-0.034-0.066-0.101c0-0.063-0.015-0.191-0.055-0.278c-0.055-0.14-0.129-0.231-0.508-0.274
					c-0.137-0.012-0.942-0.03-1.102-0.03c-0.032,0-0.051,0.022-0.051,0.073v1.946c0,0.056,0.015,0.088,0.051,0.088
					c0.181,0,1.054,0,1.234-0.014c0.18-0.019,0.305-0.04,0.371-0.113c0.059-0.07,0.091-0.106,0.125-0.106
					c0.032,0,0.052,0.016,0.052,0.059c0,0.057-0.032,0.177-0.063,0.566c-0.008,0.152-0.021,0.463-0.021,0.516
					c0,0.061,0,0.145-0.075,0.145c-0.05,0-0.074-0.026-0.074-0.066c-0.004-0.078-0.004-0.179-0.019-0.28
					c-0.05-0.145-0.158-0.262-0.442-0.298c-0.142-0.016-0.903-0.026-1.09-0.026c-0.032,0-0.049,0.043-0.049,0.073v0.61
					c0,0.27-0.008,0.977,0,1.204c0.021,0.524,0.139,0.639,0.927,0.639c0.199,0,0.52,0,0.722-0.09
					c0.199-0.089,0.284-0.254,0.346-0.57c0.017-0.077,0.032-0.119,0.087-0.119c0.059,0,0.059,0.064,0.059,0.147
					c0,0.177-0.059,0.702-0.103,0.852c-0.043,0.195-0.121,0.195-0.409,0.195c-0.58,0-1.001-0.012-1.332-0.016
					c-0.33-0.013-0.567-0.019-0.794-0.019c-0.097,0-0.264,0-0.446,0.006c-0.18,0-0.379,0.013-0.538,0.013
					c-0.095,0-0.146-0.019-0.146-0.087c0-0.034,0.021-0.061,0.117-0.061c0.121,0,0.211-0.02,0.282-0.028
					c0.156-0.028,0.185-0.203,0.229-0.423c0.032-0.318,0.032-0.935,0.032-1.646v-1.351H172.042z"/>
				<path fill="#2C2C2C" d="M176.643,92.112c-0.129-0.055-0.147-0.099-0.147-0.269c0-0.421,0.026-0.872,0.03-0.997
					c0.013-0.129,0.032-0.209,0.099-0.209c0.068,0,0.074,0.061,0.074,0.141c0,0.095,0.035,0.248,0.073,0.389
					c0.161,0.563,0.622,0.78,1.1,0.78c0.686,0,1.031-0.472,1.031-0.879c0-0.387-0.114-0.747-0.753-1.235l-0.353-0.281
					c-0.847-0.655-1.141-1.199-1.141-1.815c0-0.86,0.705-1.465,1.773-1.465c0.506,0,0.817,0.081,1.025,0.133
					c0.082,0.015,0.112,0.038,0.112,0.093c0,0.103-0.026,0.324-0.026,0.925c0,0.173-0.036,0.228-0.086,0.228
					c-0.055,0-0.079-0.048-0.079-0.133c0-0.076-0.05-0.309-0.199-0.512c-0.125-0.149-0.347-0.371-0.84-0.371
					c-0.578,0-0.923,0.322-0.923,0.788c0,0.343,0.184,0.618,0.82,1.108l0.217,0.163c0.932,0.701,1.271,1.232,1.271,1.96
					c0,0.455-0.179,0.974-0.733,1.34c-0.383,0.244-0.817,0.32-1.23,0.32C177.316,92.311,176.971,92.252,176.643,92.112"/>
				<path fill="#2C2C2C" d="M73.9,82.287c0-0.485,0-0.578-0.011-0.681c0-0.112-0.028-0.161-0.125-0.182
					c-0.027,0-0.075-0.014-0.113-0.014c-0.04,0-0.063-0.006-0.063-0.019c0-0.025,0.028-0.032,0.074-0.032
					c0.16,0,0.344,0.007,0.438,0.007c0.074,0,0.267-0.007,0.375-0.007c0.039,0,0.063,0.007,0.063,0.032
					c0,0.013-0.017,0.019-0.055,0.019c-0.027,0-0.051,0.014-0.086,0.014c-0.079,0.019-0.102,0.064-0.102,0.182
					c-0.007,0.103-0.007,0.195-0.007,0.681v0.453c0,0.466,0.085,0.661,0.233,0.796c0.134,0.113,0.266,0.121,0.376,0.121
					c0.128,0,0.292-0.042,0.41-0.163c0.171-0.18,0.175-0.47,0.175-0.806v-0.401c0-0.485,0-0.578-0.004-0.681
					c-0.007-0.112-0.022-0.161-0.129-0.182c-0.02,0-0.075-0.014-0.106-0.014c-0.03,0-0.054-0.006-0.054-0.019
					c0-0.025,0.031-0.032,0.066-0.032c0.152,0,0.339,0.007,0.343,0.007c0.036,0,0.231-0.007,0.348-0.007
					c0.04,0,0.062,0.007,0.062,0.032c0,0.013-0.023,0.019-0.054,0.019c-0.04,0-0.054,0.014-0.094,0.014
					c-0.075,0.019-0.101,0.064-0.106,0.182c-0.008,0.103-0.008,0.195-0.008,0.681v0.345c0,0.356-0.035,0.743-0.285,0.976
					c-0.22,0.195-0.434,0.229-0.633,0.229c-0.153,0-0.442-0.015-0.657-0.222c-0.156-0.147-0.274-0.387-0.274-0.847v-0.481H73.9z"/>
				<path fill="#2C2C2C" d="M82.667,83.352c0,0.256,0.059,0.332,0.11,0.36c0.05,0.018,0.112,0.018,0.152,0.018
					c0.035,0,0.055,0.013,0.055,0.035c0,0.02-0.023,0.025-0.066,0.025c-0.191,0-0.316-0.014-0.374-0.014
					c-0.027,0-0.164,0.014-0.332,0.014c-0.031,0-0.063-0.008-0.063-0.025c0-0.022,0.011-0.035,0.054-0.035
					c0.036,0,0.091,0,0.138-0.018c0.074-0.024,0.085-0.119,0.085-0.396l0.024-1.91c0-0.061,0.019-0.105,0.039-0.105
					c0.039,0,0.065,0.043,0.113,0.1c0.04,0.044,0.501,0.565,0.939,1.035c0.203,0.218,0.609,0.688,0.664,0.731h0.011l-0.031-1.442
					c0-0.197-0.026-0.262-0.098-0.288c-0.05-0.024-0.121-0.024-0.164-0.024c-0.031,0-0.047-0.008-0.047-0.019
					c0-0.032,0.035-0.032,0.082-0.032c0.157,0,0.297,0.007,0.367,0.007c0.028,0,0.141-0.007,0.297-0.007
					c0.031,0,0.066,0,0.066,0.032c0,0.011-0.02,0.019-0.055,0.019s-0.055,0-0.095,0.014c-0.085,0.021-0.108,0.099-0.113,0.272
					L84.39,83.73c0,0.073-0.012,0.1-0.039,0.1c-0.028,0-0.063-0.039-0.099-0.064c-0.191-0.198-0.582-0.625-0.891-0.951
					c-0.324-0.353-0.667-0.75-0.716-0.811h-0.011L82.667,83.352z"/>
				<path fill="#2C2C2C" d="M91.264,82.287c0-0.485,0-0.578-0.008-0.681c-0.004-0.112-0.031-0.163-0.101-0.182
					c-0.031,0-0.07-0.014-0.106-0.014c-0.031,0-0.047-0.006-0.047-0.026c0-0.018,0.021-0.022,0.071-0.022
					c0.121,0,0.304,0.007,0.395,0.007c0.079,0,0.254-0.007,0.363-0.007c0.043,0,0.066,0.007,0.066,0.022
					c0,0.021-0.019,0.026-0.055,0.026c-0.027,0-0.054,0.014-0.085,0.014c-0.082,0.019-0.106,0.064-0.118,0.182
					c-0.003,0.103-0.003,0.195-0.003,0.681v0.57c0,0.309,0,0.563,0.015,0.709c0.007,0.079,0.027,0.146,0.117,0.149
					c0.047,0.01,0.114,0.014,0.164,0.014c0.027,0,0.042,0.013,0.042,0.035c0,0.014-0.026,0.025-0.059,0.025
					c-0.195,0-0.395-0.014-0.473-0.014c-0.066,0-0.25,0.014-0.379,0.014c-0.035,0-0.055-0.014-0.055-0.025
					c0-0.022,0.008-0.035,0.046-0.035c0.047,0,0.074-0.004,0.102-0.014c0.066-0.004,0.083-0.064,0.094-0.157
					c0.012-0.139,0.012-0.391,0.012-0.701V82.287z"/>
				<path fill="#2C2C2C" d="M98.258,81.669c-0.07-0.18-0.117-0.207-0.23-0.246c-0.04-0.012-0.094-0.012-0.114-0.012
					c-0.028,0-0.035-0.008-0.035-0.019c0-0.032,0.023-0.032,0.079-0.032c0.156,0,0.332,0.007,0.434,0.007
					c0.079,0,0.211-0.007,0.368-0.007c0.035,0,0.079,0.007,0.079,0.032c0,0.013-0.031,0.019-0.042,0.019
					c-0.05,0-0.106,0.012-0.133,0.024c-0.017,0.025-0.021,0.034-0.021,0.068c0,0.042,0.021,0.133,0.066,0.246l0.521,1.458h0.007
					c0.133-0.347,0.527-1.39,0.598-1.598c0.011-0.034,0.026-0.089,0.026-0.121c0-0.027-0.015-0.046-0.039-0.066
					c-0.036,0-0.09-0.012-0.129-0.012c-0.027,0-0.042-0.006-0.042-0.019c0-0.025,0.027-0.032,0.079-0.032
					c0.153,0,0.289,0.007,0.328,0.007c0.042,0,0.191-0.007,0.273-0.007c0.043,0,0.07,0.007,0.07,0.032
					c0,0.013-0.023,0.019-0.055,0.019c-0.027,0-0.094,0-0.145,0.05c-0.042,0.017-0.087,0.073-0.161,0.282
					c-0.13,0.301-0.207,0.478-0.375,0.869c-0.183,0.471-0.328,0.83-0.398,0.98c-0.083,0.189-0.095,0.244-0.141,0.244
					c-0.027,0-0.05-0.047-0.11-0.208L98.258,81.669z"/>
				<path fill="#2C2C2C" d="M106.623,82.287c0-0.485,0-0.578-0.008-0.681c-0.004-0.112-0.023-0.161-0.129-0.182
					c-0.019,0-0.07-0.014-0.114-0.014c-0.03,0-0.046-0.006-0.046-0.019c0-0.025,0.02-0.032,0.063-0.032h0.243
					c0.083,0.007,0.148,0.007,0.19,0.007h0.75c0.059-0.007,0.11-0.019,0.125-0.024c0.02,0,0.046-0.009,0.05-0.009
					c0.02,0,0.02,0.009,0.02,0.026c0,0.022-0.012,0.063-0.024,0.218c0,0.021,0,0.167-0.015,0.206c0,0.006-0.007,0.027-0.031,0.027
					c-0.015,0-0.023-0.01-0.023-0.046c0-0.016-0.004-0.074-0.023-0.103c-0.015-0.063-0.046-0.106-0.196-0.123
					c-0.054-0.012-0.37-0.014-0.43-0.014c-0.011,0-0.026,0.01-0.026,0.029v0.816c0,0.026,0,0.044,0.026,0.044
					c0.071,0,0.416,0,0.488-0.018c0.063,0,0.11-0.019,0.137-0.043c0.023-0.031,0.039-0.05,0.046-0.05
					c0.019,0,0.024,0.008,0.024,0.036c0,0.015-0.009,0.074-0.024,0.235c0,0.059-0.007,0.189-0.007,0.214
					c0,0.022,0,0.061-0.031,0.061c-0.024,0-0.027-0.012-0.027-0.034c-0.004-0.024-0.004-0.074-0.008-0.117
					c-0.019-0.061-0.054-0.112-0.168-0.123c-0.058,0-0.359-0.006-0.43-0.006c-0.026,0-0.026,0.008-0.026,0.032v0.254v0.494
					c0.015,0.228,0.065,0.271,0.367,0.271c0.075,0,0.207,0,0.282-0.036c0.082-0.044,0.121-0.108,0.136-0.239
					c0.008-0.032,0.016-0.049,0.042-0.049c0.012,0,0.012,0.017,0.012,0.063c0,0.074-0.012,0.288-0.035,0.351
					c-0.024,0.089-0.047,0.089-0.169,0.089c-0.222,0-0.39-0.011-0.519-0.011c-0.13-0.008-0.215-0.014-0.309-0.014
					c-0.031,0-0.102,0-0.171,0.006c-0.071,0-0.149,0.008-0.211,0.008c-0.035,0-0.055-0.014-0.055-0.027
					c0-0.022,0.003-0.035,0.046-0.035c0.042,0,0.082-0.004,0.11-0.012c0.063-0.004,0.07-0.087,0.082-0.173
					c0.015-0.144,0.015-0.39,0.015-0.686v-0.57H106.623z"/>
				<path fill="#2C2C2C" d="M114.438,82.287c0-0.485,0-0.578-0.003-0.681c-0.009-0.112-0.028-0.161-0.134-0.182
					c-0.026,0-0.073-0.014-0.118-0.014c-0.03,0-0.046-0.006-0.046-0.019c0-0.025,0.016-0.032,0.06-0.032
					c0.167,0,0.351,0.007,0.417,0.007c0.099,0,0.332-0.007,0.423-0.007c0.19,0,0.394,0.021,0.558,0.129
					c0.086,0.066,0.203,0.234,0.203,0.445c0,0.248-0.098,0.458-0.394,0.722c0.262,0.356,0.472,0.646,0.652,0.85
					c0.16,0.182,0.285,0.206,0.332,0.22c0.043,0.004,0.066,0.004,0.09,0.004c0.027,0,0.035,0.013,0.035,0.035
					c0,0.02-0.024,0.025-0.059,0.025h-0.285c-0.165,0-0.243-0.016-0.329-0.061c-0.122-0.07-0.238-0.224-0.407-0.479
					c-0.121-0.169-0.254-0.387-0.3-0.435c-0.011-0.022-0.035-0.022-0.054-0.022l-0.255-0.01c-0.022,0-0.026,0.01-0.026,0.032v0.044
					c0,0.295,0,0.542,0.007,0.686c0.02,0.086,0.04,0.169,0.114,0.173c0.059,0.008,0.118,0.012,0.152,0.012
					c0.027,0,0.031,0.013,0.031,0.035c0,0.014-0.015,0.027-0.059,0.027c-0.173,0-0.387-0.014-0.431-0.014
					c-0.066,0-0.25,0.014-0.379,0.014c-0.039,0-0.055-0.014-0.055-0.027c0-0.022,0.003-0.035,0.046-0.035
					c0.047,0,0.086-0.004,0.109-0.012c0.051-0.004,0.079-0.087,0.09-0.173c0.013-0.144,0.013-0.391,0.013-0.686v-0.572H114.438z
					 M114.798,82.537c0,0.04,0.004,0.051,0.026,0.066c0.059,0.022,0.153,0.026,0.219,0.026c0.136,0,0.167-0.018,0.226-0.053
					c0.095-0.068,0.18-0.221,0.18-0.478c0-0.463-0.289-0.596-0.473-0.596c-0.079,0-0.122,0-0.153,0.018
					c-0.022,0.005-0.026,0.019-0.026,0.041V82.537z"/>
				<path fill="#2C2C2C" d="M122.401,83.748c-0.043-0.019-0.047-0.036-0.047-0.113c0-0.169,0.016-0.364,0.02-0.419
					c0-0.042,0.003-0.078,0.027-0.078c0.022,0,0.035,0.024,0.035,0.057c0,0.042,0.007,0.104,0.026,0.157
					c0.07,0.241,0.242,0.332,0.429,0.332c0.274,0,0.399-0.205,0.399-0.368c0-0.157-0.043-0.309-0.289-0.522l-0.138-0.114
					c-0.332-0.263-0.457-0.496-0.457-0.758c0-0.356,0.285-0.61,0.709-0.61c0.191,0,0.32,0.032,0.388,0.059
					c0.035,0.006,0.046,0.016,0.046,0.036c0,0.042-0.011,0.135-0.011,0.385c0,0.076-0.008,0.095-0.035,0.095
					c-0.016,0-0.027-0.015-0.027-0.057c0-0.024-0.013-0.125-0.079-0.218c-0.046-0.055-0.132-0.146-0.328-0.146
					c-0.222,0-0.355,0.137-0.355,0.326c0,0.15,0.066,0.262,0.313,0.465l0.089,0.066c0.364,0.291,0.498,0.519,0.498,0.818
					c0,0.186-0.074,0.409-0.285,0.558c-0.149,0.109-0.32,0.14-0.48,0.14C122.673,83.837,122.533,83.807,122.401,83.748"/>
				<path fill="#2C2C2C" d="M130.239,82.287c0-0.485,0-0.578-0.004-0.681c-0.013-0.112-0.043-0.163-0.101-0.182
					c-0.04,0-0.075-0.014-0.11-0.014c-0.022,0-0.046-0.006-0.046-0.026c0-0.018,0.023-0.022,0.066-0.022
					c0.117,0,0.307,0.007,0.403,0.007c0.069,0,0.25-0.007,0.359-0.007c0.042,0,0.062,0.007,0.062,0.022
					c0,0.021-0.016,0.026-0.051,0.026c-0.027,0-0.054,0.014-0.078,0.014c-0.09,0.019-0.11,0.064-0.118,0.182
					c0,0.103,0,0.195,0,0.681v0.57c0,0.309,0,0.563,0.008,0.709c0.008,0.079,0.023,0.146,0.118,0.149
					c0.042,0.01,0.109,0.014,0.152,0.014c0.031,0,0.042,0.013,0.042,0.035c0,0.014-0.015,0.025-0.054,0.025
					c-0.192,0-0.388-0.014-0.474-0.014c-0.063,0-0.254,0.014-0.378,0.014c-0.035,0-0.06-0.014-0.06-0.025
					c0-0.022,0.023-0.035,0.05-0.035c0.048,0,0.082-0.004,0.106-0.014c0.059-0.004,0.082-0.064,0.089-0.157
					c0.017-0.139,0.017-0.391,0.017-0.701L130.239,82.287L130.239,82.287z"/>
				<path fill="#2C2C2C" d="M137.505,82.287c0-0.485,0-0.578-0.007-0.681c-0.008-0.112-0.032-0.161-0.125-0.182
					c-0.019,0-0.078-0.014-0.125-0.014c-0.032,0-0.047-0.006-0.047-0.019c0-0.025,0.022-0.032,0.07-0.032
					c0.165,0,0.347,0.007,0.438,0.007c0.082,0,0.273-0.007,0.453-0.007c0.387,0,0.883,0,1.215,0.363
					c0.148,0.167,0.298,0.435,0.298,0.813c0,0.409-0.159,0.711-0.332,0.907c-0.134,0.148-0.449,0.38-1.008,0.38
					c-0.114,0-0.235-0.016-0.353-0.021c-0.104-0.011-0.222-0.024-0.292-0.024c-0.028,0-0.095,0-0.182,0.006
					c-0.068,0-0.136,0.008-0.199,0.008c-0.038,0-0.061-0.014-0.061-0.025c0-0.022,0.015-0.036,0.047-0.036
					c0.049,0,0.085-0.003,0.108-0.011c0.063-0.006,0.08-0.089,0.087-0.175c0.015-0.142,0.015-0.389,0.015-0.686V82.287
					L137.505,82.287z M137.888,82.64c0,0.347,0,0.595,0.004,0.655c0.004,0.078,0.008,0.211,0.032,0.242
					c0.038,0.063,0.15,0.12,0.389,0.12c0.309,0,0.516-0.052,0.709-0.215c0.186-0.18,0.246-0.478,0.246-0.813
					c0-0.405-0.161-0.675-0.294-0.804c-0.272-0.28-0.618-0.322-0.851-0.322c-0.066,0-0.174,0.018-0.199,0.024
					c-0.028,0.016-0.036,0.027-0.036,0.07v0.641V82.64L137.888,82.64z"/>
				<path fill="#2C2C2C" d="M146.356,82.956c-0.009,0-0.021,0-0.022,0.011l-0.161,0.478c-0.03,0.064-0.048,0.148-0.048,0.185
					c0,0.059,0.021,0.101,0.122,0.101h0.037c0.04,0,0.054,0.013,0.054,0.035c0,0.02-0.018,0.025-0.061,0.025
					c-0.09,0-0.222-0.014-0.304-0.014c-0.043,0-0.206,0.014-0.356,0.014c-0.051,0-0.066-0.008-0.066-0.025
					c0-0.022,0.018-0.035,0.04-0.035c0.026,0,0.066,0,0.089-0.004c0.139-0.014,0.195-0.133,0.252-0.281l0.767-2.033
					c0.03-0.093,0.055-0.127,0.081-0.127c0.022,0,0.047,0.024,0.081,0.108c0.063,0.17,0.544,1.487,0.735,1.977
					c0.118,0.288,0.207,0.328,0.273,0.347c0.047,0.012,0.087,0.012,0.121,0.012c0.022,0,0.048,0.005,0.048,0.035
					c0,0.02-0.03,0.027-0.145,0.027c-0.109,0-0.328,0-0.566-0.008c-0.055-0.006-0.091-0.006-0.091-0.02
					c0-0.022,0.013-0.035,0.047-0.035c0.018-0.004,0.036-0.03,0.021-0.07l-0.239-0.692c-0.008-0.011-0.021-0.011-0.026-0.011h-0.683
					V82.956z M146.968,82.793c0.018,0,0.024-0.012,0.018-0.024l-0.27-0.802c0-0.01-0.004-0.026-0.01-0.026
					c-0.011,0-0.019,0.017-0.026,0.026l-0.272,0.802c-0.008,0.015,0,0.024,0.011,0.024H146.968z"/>
				<path fill="#2C2C2C" d="M154.251,82.287c0-0.485,0-0.578-0.008-0.681c-0.004-0.112-0.026-0.161-0.125-0.182
					c-0.019,0-0.073-0.014-0.117-0.014c-0.022,0-0.059-0.006-0.059-0.019c0-0.025,0.036-0.032,0.07-0.032
					c0.168,0,0.357,0.007,0.439,0.007c0.093,0,0.274-0.007,0.464-0.007c0.374,0,0.874,0,1.215,0.363
					c0.148,0.167,0.284,0.435,0.284,0.813c0,0.409-0.159,0.711-0.327,0.907c-0.137,0.148-0.449,0.38-1.013,0.38
					c-0.109,0-0.242-0.016-0.347-0.021c-0.109-0.011-0.22-0.024-0.29-0.024c-0.04,0-0.103,0-0.176,0.006
					c-0.074,0-0.148,0.008-0.207,0.008c-0.043,0-0.057-0.014-0.057-0.025c0-0.022,0.008-0.036,0.044-0.036
					c0.049,0,0.073-0.003,0.109-0.011c0.059-0.006,0.07-0.089,0.085-0.175c0.012-0.142,0.012-0.389,0.012-0.686v-0.572H154.251z
					 M154.63,82.64c0,0.347,0,0.595,0.008,0.655c0,0.078,0.008,0.211,0.036,0.242c0.03,0.063,0.151,0.12,0.391,0.12
					c0.305,0,0.512-0.052,0.695-0.215c0.195-0.18,0.25-0.478,0.25-0.813c0-0.405-0.165-0.675-0.29-0.804
					c-0.276-0.28-0.621-0.322-0.854-0.322c-0.059,0-0.169,0.018-0.191,0.024c-0.028,0.016-0.044,0.027-0.044,0.07v0.641V82.64
					L154.63,82.64z"/>
				<path fill="#2C2C2C" d="M169.794,82.287c0-0.485,0-0.578-0.004-0.681c-0.008-0.112-0.03-0.161-0.133-0.182
					c-0.022,0-0.07-0.014-0.11-0.014c-0.041,0-0.055-0.006-0.055-0.019c0-0.025,0.021-0.032,0.063-0.032
					c0.161,0,0.353,0.007,0.438,0.007c0.092,0,0.283-0.007,0.463-0.007c0.379,0,0.874,0,1.211,0.363
					c0.144,0.167,0.292,0.435,0.292,0.813c0,0.409-0.155,0.711-0.332,0.907c-0.133,0.148-0.456,0.38-1.008,0.38
					c-0.114,0-0.233-0.016-0.347-0.021c-0.114-0.011-0.22-0.024-0.298-0.024c-0.03,0-0.097,0-0.165,0.006
					c-0.074,0-0.151,0.008-0.206,0.008c-0.048,0-0.066-0.014-0.066-0.025c0-0.022,0.011-0.036,0.051-0.036
					c0.048,0,0.078-0.003,0.106-0.011c0.063-0.006,0.07-0.089,0.089-0.175c0.012-0.142,0.012-0.389,0.012-0.686V82.287
					L169.794,82.287z M170.177,82.64v0.655c0.011,0.078,0.011,0.211,0.028,0.242c0.045,0.063,0.163,0.12,0.401,0.12
					c0.309,0,0.512-0.052,0.695-0.215c0.191-0.18,0.251-0.478,0.251-0.813c0-0.405-0.161-0.675-0.286-0.804
					c-0.277-0.28-0.62-0.322-0.855-0.322c-0.063,0-0.176,0.018-0.206,0.024c-0.018,0.016-0.028,0.027-0.028,0.07v0.641V82.64z"/>
				<path fill="#2C2C2C" d="M178.495,82.287c0-0.485,0-0.578-0.007-0.681c0-0.112-0.027-0.161-0.129-0.182
					c-0.023,0-0.074-0.014-0.118-0.014c-0.03,0-0.049-0.006-0.049-0.019c0-0.025,0.026-0.032,0.07-0.032h0.232
					c0.088,0.007,0.153,0.007,0.193,0.007h0.757c0.055-0.007,0.104-0.019,0.129-0.024c0.013,0,0.032-0.009,0.039-0.009
					c0.026,0,0.026,0.009,0.026,0.026c0,0.022-0.019,0.063-0.026,0.218c0,0.021-0.007,0.167-0.011,0.206
					c0,0.006-0.01,0.027-0.028,0.027c-0.023,0-0.031-0.01-0.031-0.046c0-0.016-0.003-0.074-0.007-0.103
					c-0.036-0.063-0.063-0.106-0.211-0.123c-0.057-0.012-0.367-0.014-0.43-0.014c-0.021,0-0.021,0.01-0.021,0.029v0.816
					c0,0.026,0,0.044,0.021,0.044c0.066,0,0.409,0,0.487-0.018c0.071,0,0.109-0.019,0.142-0.043c0.019-0.031,0.028-0.05,0.05-0.05
					c0.009,0,0.019,0.008,0.019,0.036c0,0.015-0.012,0.074-0.026,0.235c-0.004,0.059-0.014,0.189-0.014,0.214
					c0,0.022,0,0.061-0.019,0.061c-0.032,0-0.036-0.012-0.036-0.034c-0.008-0.024-0.008-0.074-0.016-0.117
					c-0.011-0.061-0.051-0.112-0.159-0.123c-0.066,0-0.355-0.006-0.438-0.006c-0.013,0-0.013,0.008-0.013,0.032v0.254
					c0,0.107,0,0.405,0,0.494c0,0.228,0.063,0.271,0.363,0.271c0.074,0,0.199,0,0.278-0.036c0.086-0.044,0.116-0.108,0.137-0.239
					c0.012-0.032,0.012-0.049,0.034-0.049c0.032,0,0.032,0.017,0.032,0.063c0,0.074-0.032,0.288-0.051,0.351
					c-0.016,0.089-0.048,0.089-0.165,0.089c-0.218,0-0.387-0.011-0.516-0.011c-0.129-0.008-0.222-0.014-0.316-0.014
					c-0.026,0-0.089,0-0.177,0.006c-0.066,0-0.147,0.008-0.198,0.008c-0.034,0-0.06-0.014-0.06-0.027
					c0-0.022,0.014-0.035,0.048-0.035c0.04,0,0.081-0.004,0.109-0.012c0.062-0.004,0.072-0.087,0.082-0.173
					c0.019-0.144,0.019-0.39,0.019-0.686v-0.57H178.495z"/>
			</g>
			<g id="escudo_1_">
				<path fill="#2C2C2C" d="M63.5,74.952V45.978c0,0-0.808,1.274-1.222,1.645c-0.415,0.375-3.017,3.005-8.867,3.052
					c-7.794,0.059-12.096-3.244-12.135-3.281l-0.011-0.013l0.962-1.955l2.996,1.028l-1.032-2.991l2.836-1.389l-2.836-1.396
					l1.031-2.984l-2.996,1.028l-1.388-2.839l-1.387,2.839l-2.985-1.028l1.02,2.985l-2.836,1.396l2.836,1.389l-1.02,2.991
					l2.986-1.028l0.954,1.955c-0.267,0.183-4.978,3.294-12.241,3.309c-6.088,0.011-8.593-2.714-8.897-3.044
					c-0.301-0.33-1.242-1.657-1.242-1.657l-0.004,29.161c0,0.316-0.188,8.224,3.926,13.492c2.817,3.591,8.111,7.106,16.665,11.033
					c1.082,0.548,1.618,1.211,1.621,1.219l0.544,0.662l0.556-0.646c0.011-0.016,0.55-0.652,1.633-1.257
					c8.521-3.927,13.816-7.437,16.614-11.011c3.708-4.734,3.922-11.758,3.922-13.375L63.5,74.952L63.5,74.952z M37.333,45.588
					l0.824-2.403l-2.274-1.109l2.274-1.118l-0.824-2.393l2.391,0.825l1.113-2.269l1.106,2.269l2.395-0.825l-0.825,2.393l2.274,1.118
					l-2.274,1.109l0.825,2.403l-2.395-0.831l-1.106,2.274l-1.113-2.274L37.333,45.588z M58.456,87.762
					c-2.661,3.412-7.791,6.775-16.133,10.629l-0.05,0.021c-0.653,0.375-1.137,0.743-1.481,1.042
					c-0.347-0.307-0.863-0.699-1.562-1.058c-8.361-3.843-13.488-7.221-16.16-10.636c-3.461-4.429-3.626-11.182-3.626-12.394V49.639
					c1.477,1.041,4.297,2.486,8.733,2.473c6.733-0.015,11.304-2.484,12.64-3.299c1.27,0.852,5.548,3.34,12.605,3.285
					c4.313-0.029,7.169-1.496,8.658-2.508v25.583C62.077,76.449,61.913,83.341,58.456,87.762"/>
				<path fill="#2C2C2C" d="M53.869,71.932l-0.004-11.119H27.842l-0.007,10.987c-0.008,3.044-0.031,8.708,6.673,12.194l6.306,3.59
					l0.21-0.11l6.17-3.479C53.927,80.42,53.883,75.104,53.869,71.932 M53.079,72.474c0,1.821-0.117,4.194-1.476,6.496l-8.959-6.733
					h5.024c0.681,0.1,1.196,0.681,1.196,1.411c0,0.648-0.419,1.195-0.985,1.356c1.52-0.258,2.622-1.419,2.974-2.961
					c0.496-0.085,0.879-0.505,0.879-1.035c0-0.017-0.367-0.036-0.367-0.055H40.807l1.176,0.916v9.265
					c0,0.794,0.66,1.431,1.417,1.431c0.617,0,1.141-0.423,1.324-0.987c-0.289,1.547-1.44,2.688-2.926,3.038
					c-0.09,0.498-0.485,0.879-0.992,0.9v1.159c-0.477-0.272-5.931-3.371-5.931-3.371c-2.243-1.17-3.681-2.576-4.607-4.037
					l8.897-7.03h-5.442c-0.679,0.1-1.203,0.681-1.203,1.411c0,0.648,0.414,1.196,0.988,1.357c-1.528-0.258-2.633-1.42-2.989-2.962
					c-0.488-0.085-0.852-0.505-0.852-1.035v-0.055h-1.047v-9.346h0.11l10.628,8.174H34.52c-0.762,0-2-0.679-2-1.476
					c0-0.626,0.403-1.154,0.957-1.345c-1.496,0.289-2.602,1.483-2.957,3.004c-0.461,0.087-0.831,0.478-0.852,0.99h11.14
					l-1.223-1.001v-3.289c-0.094-0.704-0.667-1.231-1.359-1.231c-0.625,0-1.149,0.436-1.321,1.008
					c0.254-1.569,1.379-2.712,2.868-3.055c0.09-0.508,0.508-0.903,1.02-0.903h0.016v-0.875h12.272v0.099l-10.76,8.075h5.165
					c0.763,0,1.38-0.679,1.38-1.476c0-0.626-0.399-1.154-0.962-1.345c1.497,0.289,2.599,1.483,2.95,3.004
					c0.481,0.087,0.84,0.478,0.872,0.99h1.355v1.521H53.079z M41.983,66.853h-0.004c0-0.792,0.665-1.422,1.422-1.422
					c0.617,0,1.141,0.414,1.325,0.983c-0.29-1.544-1.441-2.688-2.927-3.03c-0.09-0.5-0.485-0.887-0.992-0.903v8.472l1.176-0.914
					V66.853z M39.583,81.334c-0.094,0.688-0.667,1.231-1.359,1.231c-0.625,0-1.149-0.434-1.321-1.018
					c0.254,1.571,1.379,2.718,2.868,3.068c0.09,0.498,0.508,0.903,1.02,0.903l0.016-0.003V70.952l-1.223,0.966L39.583,81.334
					L39.583,81.334z"/>
				<path fill="#2C2C2C" d="M25.619,53.659h1.137l-1.227,5.493h-1.417l-1.263-5.493h1.142l0.665,3.537
					c0.063,0.312,0.098,0.63,0.129,0.934c0.021,0.147,0.046,0.301,0.046,0.464h0.02c0-0.164,0.028-0.316,0.051-0.464
					c0.024-0.304,0.066-0.623,0.125-0.934L25.619,53.659z"/>
				<polygon fill="#2C2C2C" points="29.057,59.153 29.057,53.659 32.054,53.659 32.054,54.47 30.123,54.47 30.123,55.86 
					31.902,55.86 31.902,56.672 30.123,56.672 30.123,58.366 32.054,58.366 32.054,59.153 				"/>
				<path fill="#2C2C2C" d="M35.583,56.801v2.352h-1.063v-5.493h2.013c0.926,0,1.618,0.318,1.618,1.334
					c0,0.602-0.16,1.228-0.875,1.327v0.015c0.633,0.074,0.825,0.465,0.825,0.995c0,0.224-0.031,1.576,0.23,1.738v0.084h-1.172
					c-0.144-0.336-0.098-1.012-0.109-1.383c-0.004-0.326,0-0.793-0.364-0.901c-0.305-0.067-0.594-0.067-0.907-0.067H35.583z
					 M35.583,55.995h0.835c0.372-0.022,0.629-0.24,0.629-0.795c0-0.609-0.255-0.713-0.676-0.73h-0.789V55.995z"/>
				<rect x="40.846" y="53.659" fill="#2C2C2C" width="1.063" height="5.493"/>
				<polygon fill="#2C2C2C" points="44.217,53.659 47.753,53.659 47.753,54.47 46.522,54.47 46.522,59.153 45.464,59.153 
					45.464,54.47 44.217,54.47 				"/>
				<path fill="#2C2C2C" d="M49.187,59.153l1.364-5.493h1.426l1.297,5.493h-1.133l-0.285-1.383h-1.242l-0.282,1.383H49.187z
					 M50.773,56.969h0.902l-0.273-1.554c-0.056-0.257-0.086-0.514-0.106-0.769c-0.008-0.141-0.039-0.258-0.039-0.368h-0.019
					c-0.013,0.11-0.031,0.227-0.04,0.368c-0.02,0.255-0.051,0.512-0.114,0.769L50.773,56.969z"/>
				<path fill="#2C2C2C" d="M57.681,55.338c0.019-0.498-0.031-0.974-0.617-0.974c-0.36,0-0.583,0.141-0.583,0.516
					c0,0.417,0.278,0.576,0.605,0.778c0.341,0.216,0.986,0.635,1.293,0.901c0.367,0.355,0.473,0.68,0.473,1.152
					c0,1.046-0.708,1.587-1.747,1.587c-1.286,0-1.739-0.689-1.739-1.673v-0.395h1.063v0.325c-0.015,0.533,0.141,0.918,0.676,0.918
					c0.445,0,0.661-0.231,0.661-0.647c0-0.318-0.161-0.532-0.426-0.729c-0.554-0.418-1.25-0.708-1.688-1.264
					c-0.167-0.246-0.262-0.55-0.262-0.839c0-0.944,0.546-1.458,1.66-1.458c1.696,0,1.66,1.254,1.66,1.801L57.681,55.338
					L57.681,55.338z"/>
				<polygon fill="#2C2C2C" points="21.043,66.996 26.667,67.034 26.659,68.081 21.868,68.059 21.856,69.995 21.037,69.995 				"/>
				<polygon fill="#2C2C2C" points="20.751,72.495 26.369,72.421 26.393,73.475 20.771,73.543 				"/>
				<path fill="#2C2C2C" d="M20.896,76.578l5.552-0.782l0.243,1.677c0.06,0.438,0.106,0.882-0.243,1.229
					c-0.265,0.288-0.589,0.375-0.959,0.427c-0.485,0.055-0.97,0.022-1.251-0.512l-0.031,0.003c0,0.602-0.445,0.888-1.161,0.999
					c-0.238,0.026-0.468,0.042-0.699,0.018c-0.738-0.125-1.086-0.481-1.188-1.229L20.896,76.578z M21.895,77.725
					c0.028,0.207,0.035,0.447,0.137,0.61c0.171,0.268,0.534,0.249,0.819,0.215c0.598-0.088,0.837-0.237,0.743-0.884l-0.05-0.407
					l-1.684,0.25L21.895,77.725z M24.384,77.339c0.035,0.248,0.063,0.579,0.293,0.706c0.152,0.092,0.354,0.074,0.617,0.03
					c0.414-0.055,0.602-0.166,0.555-0.644l-0.075-0.489l-1.422,0.208L24.384,77.339z"/>
				<polygon fill="#2C2C2C" points="22.775,83.079 27.588,80.5 28.874,83.208 28.174,83.593 27.333,81.844 26.131,82.491 
					26.884,84.095 26.186,84.478 25.412,82.88 23.938,83.657 24.76,85.412 24.056,85.795 				"/>
				<path fill="#2C2C2C" d="M29.229,87.738l-1.446,1.886l-0.836-0.627l3.375-4.382l1.563,1.181c0.703,0.548,1.059,1.203,0.43,2.009
					c-0.348,0.47-0.868,0.885-1.481,0.546l-0.008,0.021c0.429,0.425,0.343,0.842,0.015,1.265c-0.132,0.176-0.988,1.247-0.879,1.521
					l-0.069,0.082l-0.903-0.688c0.118-0.364,0.544-0.891,0.758-1.179c0.214-0.276,0.488-0.635,0.281-0.933
					c-0.175-0.236-0.425-0.413-0.656-0.589L29.229,87.738z M29.726,87.084l0.636,0.5c0.289,0.178,0.633,0.172,0.966-0.273
					c0.384-0.484,0.243-0.722-0.07-0.968l-0.606-0.465L29.726,87.084z"/>
				<path fill="#2C2C2C" d="M32.781,93.078l3.445-4.575l1.258,0.601l-1.141,5.639l-0.984-0.465l0.32-1.423l-1.09-0.5l-0.812,1.177
					L32.781,93.078z M35.078,91.666l0.797,0.391l0.391-1.573c0.059-0.262,0.137-0.504,0.219-0.762
					c0.036-0.112,0.079-0.242,0.122-0.351l-0.016-0.008c-0.069,0.104-0.125,0.224-0.187,0.324c-0.13,0.226-0.259,0.443-0.41,0.665
					L35.078,91.666z"/>
				<path fill="#2C2C2C" d="M40.764,95.258l-0.665-5.697l1.677-0.203c0.449-0.047,0.878-0.081,1.227,0.283
					c0.274,0.28,0.359,0.597,0.399,0.994c0.054,0.485,0.008,0.989-0.535,1.271v0.007c0.601,0.02,0.878,0.481,0.969,1.223
					c0.023,0.231,0.034,0.467,0.007,0.713c-0.145,0.75-0.508,1.09-1.253,1.183L40.764,95.258z M41.927,94.273
					c0.203-0.036,0.442-0.036,0.613-0.137c0.27-0.167,0.263-0.546,0.235-0.84c-0.079-0.608-0.227-0.844-0.867-0.764l-0.411,0.034
					l0.203,1.73L41.927,94.273z M41.596,91.729c0.25-0.049,0.586-0.068,0.723-0.303c0.074-0.15,0.074-0.356,0.035-0.622
					c-0.05-0.427-0.16-0.633-0.642-0.582l-0.473,0.054l0.168,1.463L41.596,91.729z"/>
				<polygon fill="#2C2C2C" points="47.523,93.609 45.405,88.41 46.362,88.018 48.489,93.213 				"/>
				<polygon fill="#2C2C2C" points="48.272,87.147 51.012,85.141 51.438,85.816 50.488,86.517 53.024,90.476 52.212,91.082 
					49.665,87.123 48.71,87.819 				"/>
				<path fill="#2C2C2C" d="M55.244,78.938l0.386-0.996l4.724,2.899l-0.484,1.249l-5.568-0.741l0.384-0.993l3.532,0.601
					c0.305,0.048,0.605,0.114,0.93,0.203c0.137,0.022,0.292,0.049,0.434,0.108V81.25c-0.141-0.049-0.27-0.129-0.41-0.188
					c-0.278-0.125-0.559-0.272-0.829-0.427L55.244,78.938z"/>
				<path fill="#2C2C2C" d="M57.729,76.77c-1.43-0.166-2.477-0.361-2.348-2.147c0.133-1.783,1.196-1.814,2.622-1.765l0.806,0.068
					c1.496,0.105,2.57,0.317,2.446,2.133c-0.133,1.834-1.234,1.876-2.73,1.759L57.729,76.77z M59.131,75.711
					c0.453,0.033,1.218,0.057,1.276-0.708c0.06-0.809-0.711-0.866-1.254-0.901l-1.426-0.11c-0.445-0.032-1.446-0.129-1.5,0.699
					c-0.059,0.87,0.915,0.87,1.344,0.898L59.131,75.711z"/>
				<path fill="#2C2C2C" d="M57.283,68.291c-0.504,0.013-1,0.057-0.984,0.637c0.011,0.342,0.152,0.57,0.531,0.561
					c0.43-0.01,0.594-0.285,0.785-0.612c0.223-0.351,0.625-0.996,0.899-1.301c0.352-0.36,0.68-0.477,1.16-0.493
					c1.058-0.021,1.629,0.684,1.652,1.698c0.027,1.264-0.664,1.722-1.672,1.745l-0.406,0.01l-0.027-1.048l0.335-0.011
					c0.548,0.011,0.939-0.167,0.93-0.68c-0.008-0.441-0.243-0.644-0.676-0.638c-0.333,0.002-0.544,0.162-0.73,0.435
					c-0.412,0.551-0.7,1.246-1.263,1.678c-0.25,0.178-0.55,0.286-0.851,0.286c-0.952,0.025-1.493-0.51-1.519-1.609
					c-0.031-1.674,1.257-1.654,1.813-1.674L57.283,68.291z"/>
			</g>
		</g>
		<line fill="#FFFFFF" stroke="#231F20" stroke-miterlimit="10" x1="187.869" y1="47.179" x2="187.869" y2="92.492"/>
	</g>
</g>
</svg>
