<?xml version="1.0" encoding="utf-8"?>
<!-- Generator: Adobe Illustrator 16.0.0, SVG Export Plug-In . SVG Version: 6.00 Build 0)  -->
<!DOCTYPE svg PUBLIC "-//W3C//DTD SVG 1.1//EN" "http://www.w3.org/Graphics/SVG/1.1/DTD/svg11.dtd">
<svg version="1.1" id="Layer_1" xmlns="http://www.w3.org/2000/svg" xmlns:xlink="http://www.w3.org/1999/xlink" x="0px" y="0px"
	 width="1056.182px" height="300px" viewBox="0 0 1056.182 300" enable-background="new 0 0 1056.182 300" xml:space="preserve">
<linearGradient id="SVGID_1_" gradientUnits="userSpaceOnUse" x1="305.8037" y1="-285.9063" x2="305.8036" y2="1120.1055" gradientTransform="matrix(-0.0111 -0.9999 0.9999 -0.0111 248.2735 458.9596)">
	<stop  offset="0" style="stop-color:#00FFFF"/>
	<stop  offset="0.1648" style="stop-color:#0FE1F5"/>
	<stop  offset="0.3376" style="stop-color:#1AC9EC"/>
	<stop  offset="0.5218" style="stop-color:#23B8E7"/>
	<stop  offset="0.723" style="stop-color:#27AEE3"/>
	<stop  offset="0.9736" style="stop-color:#29ABE2"/>
	<stop  offset="0.9774" style="stop-color:#29A6DE"/>
	<stop  offset="0.9818" style="stop-color:#2798D3"/>
	<stop  offset="0.9864" style="stop-color:#2582BF"/>
	<stop  offset="0.9913" style="stop-color:#2261A5"/>
	<stop  offset="0.9962" style="stop-color:#1E3983"/>
	<stop  offset="1" style="stop-color:#1B1464"/>
</linearGradient>
<polygon fill="url(#SVGID_1_)" points="1054.64,-12.536 1058.385,301.623 1.938,312.58 -1.807,-1.578 "/>
<g>
	<defs>
		<polygon id="SVGID_2_" points="1054.64,-12.536 1058.385,301.623 1.938,312.58 -1.807,-1.578 		"/>
	</defs>
	<clipPath id="SVGID_3_">
		<use xlink:href="#SVGID_2_"  overflow="visible"/>
	</clipPath>
	<g clip-path="url(#SVGID_3_)">
		<g>
			<g>
				
					<linearGradient id="SVGID_4_" gradientUnits="userSpaceOnUse" x1="-0.0171" y1="-715.1025" x2="635.6782" y2="-715.1025" gradientTransform="matrix(-0.4663 -0.8847 0.8847 -0.4663 1680.0591 66.2897)">
					<stop  offset="0" style="stop-color:#0071BC"/>
					<stop  offset="0.5098" style="stop-color:#0090AB;stop-opacity:0.7451"/>
					<stop  offset="1" style="stop-color:#00A99D;stop-opacity:0.5"/>
				</linearGradient>
				<polygon fill="url(#SVGID_4_)" points="563.016,86.685 800.496,-188.715 1042.47,-160.511 1208.047,98.396 1189.542,320.19 
					951.008,450.558 741.687,371.869 				"/>
				<path fill="#FFFFFF" d="M1210.352,98.371c0.002,0.063,0,0.127-0.003,0.191l-18.507,221.794
					c-0.059,0.705-0.481,1.334-1.134,1.691L952.174,452.415c-0.616,0.338-1.365,0.39-2.027,0.141l-209.322-78.689
					c-0.474-0.179-0.87-0.496-1.129-0.911L561.023,87.771c-0.483-0.77-0.406-1.74,0.195-2.436l237.48-275.401
					c0.501-0.58,1.29-0.878,2.082-0.786l241.974,28.206c0.706,0.082,1.333,0.464,1.699,1.033L1210.03,97.293
					C1210.239,97.621,1210.35,97.993,1210.352,98.371z M1187.336,318.904l18.355-219.994l-164.627-257.415l-239.577-27.927
					l-235.68,273.31l177.475,283.269l207.537,78.02L1187.336,318.904z"/>
			</g>
			<g>
				
					<linearGradient id="SVGID_5_" gradientUnits="userSpaceOnUse" x1="192.2964" y1="-462.5356" x2="498.5308" y2="-462.5356" gradientTransform="matrix(-0.4663 -0.8847 0.8847 -0.4663 1680.0591 66.2897)">
					<stop  offset="0" style="stop-color:#0071BC"/>
					<stop  offset="0.5098" style="stop-color:#0090AB;stop-opacity:0.7451"/>
					<stop  offset="1" style="stop-color:#00A99D;stop-opacity:0.5"/>
				</linearGradient>
				<polygon fill="url(#SVGID_5_)" points="1207.739,97.853 1075.13,-25.107 1042.161,-161.051 				"/>
				<path fill="#FFFFFF" d="M1210.046,97.827c0.007,0.651-0.304,1.296-0.888,1.722c-0.915,0.667-2.223,0.595-3.048-0.17
					l-132.607-122.96c-0.309-0.288-0.526-0.654-0.623-1.052l-32.967-135.943c-0.253-1.028,0.341-2.08,1.394-2.474
					c1.052-0.392,2.255-0.012,2.836,0.898L1209.72,96.75C1209.935,97.088,1210.042,97.458,1210.046,97.827z M1077.232-26.192
					l119.141,110.471l-148.761-232.606L1077.232-26.192z"/>
			</g>
			<g>
				
					<linearGradient id="SVGID_6_" gradientUnits="userSpaceOnUse" x1="0.606" y1="-628.334" x2="362.8989" y2="-628.334" gradientTransform="matrix(-0.4663 -0.8847 0.8847 -0.4663 1680.0591 66.2897)">
					<stop  offset="0" style="stop-color:#0071BC"/>
					<stop  offset="0.5098" style="stop-color:#0090AB;stop-opacity:0.7451"/>
					<stop  offset="1" style="stop-color:#00A99D;stop-opacity:0.5"/>
				</linearGradient>
				<polygon fill="url(#SVGID_6_)" points="1075.13,-25.107 950.702,450.015 1207.739,97.853 				"/>
				<path fill="#FFFFFF" d="M1210.046,97.828c0.005,0.43-0.127,0.861-0.401,1.236L952.607,451.225
					c-0.626,0.862-1.825,1.18-2.842,0.757c-1.022-0.425-1.571-1.473-1.305-2.479l124.429-475.121
					c0.197-0.754,0.814-1.351,1.617-1.561c0.799-0.21,1.659-0.001,2.249,0.545l132.609,122.96
					C1209.807,96.736,1210.039,97.279,1210.046,97.828z M955.966,438.978l248.788-340.858L1076.403-20.895L955.966,438.978z"/>
			</g>
			<g>
				
					<linearGradient id="SVGID_7_" gradientUnits="userSpaceOnUse" x1="362.8989" y1="-558.7578" x2="636.3032" y2="-558.7578" gradientTransform="matrix(-0.4663 -0.8847 0.8847 -0.4663 1680.0591 66.2897)">
					<stop  offset="0" style="stop-color:#0071BC"/>
					<stop  offset="0.5098" style="stop-color:#0090AB;stop-opacity:0.7451"/>
					<stop  offset="1" style="stop-color:#00A99D;stop-opacity:0.5"/>
				</linearGradient>
				<polygon fill="url(#SVGID_7_)" points="1075.13,-25.107 800.193,-189.262 1042.161,-161.051 				"/>
				<path fill="#FFFFFF" d="M1077.437-25.132c0.008,0.7-0.35,1.373-0.982,1.786c-0.768,0.501-1.78,0.522-2.565,0.05l-274.94-164.155
					c-0.908-0.541-1.293-1.601-0.925-2.542c0.365-0.946,1.385-1.53,2.454-1.405l241.97,28.212c0.963,0.112,1.749,0.776,1.965,1.661
					l32.97,135.943C1077.416-25.433,1077.436-25.282,1077.437-25.132z M810.023-185.947l261.617,156.2l-31.371-129.357
					L810.023-185.947z"/>
			</g>
			<g>
				
					<linearGradient id="SVGID_8_" gradientUnits="userSpaceOnUse" x1="362.8989" y1="-745.1123" x2="636.3032" y2="-745.1123" gradientTransform="matrix(-0.4663 -0.8847 0.8847 -0.4663 1680.0591 66.2897)">
					<stop  offset="0" style="stop-color:#0071BC"/>
					<stop  offset="0.5098" style="stop-color:#0090AB;stop-opacity:0.7451"/>
					<stop  offset="1" style="stop-color:#00A99D;stop-opacity:0.5"/>
				</linearGradient>
				<polygon fill="url(#SVGID_8_)" points="800.193,-189.262 562.707,86.139 855.141,-54.371 1075.13,-25.107 				"/>
				<path fill="#FFFFFF" d="M1077.437-25.132c0.004,0.258-0.044,0.521-0.142,0.774c-0.379,0.948-1.417,1.523-2.489,1.38
					L855.545-52.143L563.761,88.052c-0.969,0.465-2.154,0.235-2.843-0.552c-0.688-0.785-0.693-1.918-0.01-2.709l237.488-275.402
					c0.735-0.857,2.048-1.056,3.037-0.464l274.94,164.155C1077.043-26.52,1077.428-25.839,1077.437-25.132z M571.324,79.577
					l282.763-135.86c0.425-0.205,0.907-0.281,1.382-0.217l209.473,27.865L800.692-186.409L571.324,79.577z"/>
			</g>
			<g>
				
					<linearGradient id="SVGID_9_" gradientUnits="userSpaceOnUse" x1="-0.0386" y1="-910.5098" x2="503.4019" y2="-910.5098" gradientTransform="matrix(-0.4663 -0.8847 0.8847 -0.4663 1680.0591 66.2897)">
					<stop  offset="0" style="stop-color:#0071BC"/>
					<stop  offset="0.5098" style="stop-color:#0090AB;stop-opacity:0.7451"/>
					<stop  offset="1" style="stop-color:#00A99D;stop-opacity:0.5"/>
				</linearGradient>
				<path fill="url(#SVGID_9_)" d="M562.707,86.139l222.438,236.404c0,0,181.222,134.495,165.558,127.472
					c-15.659-7.024-209.325-78.688-209.325-78.688L562.707,86.139z"/>
				<path fill="#FFFFFF" d="M953.967,450.151c0.012,0.744-0.437,1.524-1.108,1.924c-1.242,0.737-2.535,0.158-3.156-0.121
					c-15.408-6.914-207.24-77.91-209.177-78.628c-0.479-0.179-0.88-0.498-1.14-0.915L560.712,87.225
					c-0.595-0.957-0.319-2.183,0.645-2.831c0.964-0.649,2.297-0.507,3.083,0.326l222.302,236.258
					c2.887,2.142,43.236,32.108,83.092,62.17C953.925,446.576,953.949,448.475,953.967,450.151z M742.966,369.6
					c13.378,4.95,157.261,58.224,198.678,74.408c-25.067-20.474-103.284-79.226-157.937-119.78
					c-0.105-0.081-0.205-0.169-0.296-0.265L576.818,104.398L742.966,369.6z"/>
			</g>
			<g>
				
					<linearGradient id="SVGID_10_" gradientUnits="userSpaceOnUse" x1="167.812" y1="-828.4531" x2="636.3032" y2="-828.4531" gradientTransform="matrix(-0.4663 -0.8847 0.8847 -0.4663 1680.0591 66.2897)">
					<stop  offset="0" style="stop-color:#0071BC"/>
					<stop  offset="0.5098" style="stop-color:#0090AB;stop-opacity:0.7451"/>
					<stop  offset="1" style="stop-color:#00A99D;stop-opacity:0.5"/>
				</linearGradient>
				<polygon fill="url(#SVGID_10_)" points="741.376,371.327 705.229,106.604 800.193,-189.262 562.707,86.139 				"/>
				<path fill="#FFFFFF" d="M802.499-189.286c0.004,0.212-0.026,0.429-0.097,0.642l-94.823,295.427l36.088,264.272
					c0.137,1.012-0.508,1.978-1.545,2.308c-1.038,0.329-2.181-0.068-2.735-0.952L560.712,87.225
					c-0.482-0.768-0.406-1.739,0.196-2.434l237.313-275.199c0.398-0.614,1.12-1.025,1.945-1.034
					c1.271-0.013,2.314,0.935,2.331,2.123C802.499-189.309,802.499-189.297,802.499-189.286z M702.922,106.627
					c-0.003-0.218,0.03-0.433,0.098-0.642l91.582-285.33L565.498,86.333l172.161,274.794L702.94,106.875
					C702.929,106.793,702.922,106.71,702.922,106.627z"/>
			</g>
		</g>
		<g>
			<g>
				
					<linearGradient id="SVGID_11_" gradientUnits="userSpaceOnUse" x1="447.3208" y1="-1611.7217" x2="928.02" y2="-1611.7217" gradientTransform="matrix(-0.4663 -0.8847 0.8847 -0.4663 1680.0591 66.2897)">
					<stop  offset="0" style="stop-color:#0071BC"/>
					<stop  offset="0.5098" style="stop-color:#0090AB;stop-opacity:0.7451"/>
					<stop  offset="1" style="stop-color:#00A99D;stop-opacity:0.5"/>
				</linearGradient>
				<polygon fill="url(#SVGID_11_)" points="-320.662,185.328 -141.084,-22.923 41.892,-1.593 167.097,194.185 153.104,361.9 
					-27.27,460.481 -185.553,400.978 				"/>
				<path fill="#FFFFFF" d="M169.402,194.16c0.001,0.063-0.001,0.127-0.006,0.19l-13.993,167.715
					c-0.059,0.704-0.482,1.336-1.134,1.691l-180.373,98.58c-0.617,0.338-1.366,0.391-2.028,0.141l-158.285-59.503
					c-0.473-0.179-0.871-0.498-1.129-0.91l-135.107-215.648c-0.485-0.772-0.405-1.742,0.193-2.436l179.579-208.251
					c0.5-0.581,1.289-0.88,2.083-0.787L42.177-3.729c0.706,0.082,1.332,0.464,1.696,1.034l125.205,195.776
					C169.287,193.407,169.398,193.78,169.402,194.16z M150.897,360.61l13.842-165.91L40.487,0.411l-180.58-21.049l-177.775,206.161
					l133.908,213.735l156.502,58.832L150.897,360.61z"/>
			</g>
			<g>
				
					<linearGradient id="SVGID_12_" gradientUnits="userSpaceOnUse" x1="592.7456" y1="-1420.7358" x2="824.311" y2="-1420.7358" gradientTransform="matrix(-0.4663 -0.8847 0.8847 -0.4663 1680.0591 66.2897)">
					<stop  offset="0" style="stop-color:#0071BC"/>
					<stop  offset="0.5098" style="stop-color:#0090AB;stop-opacity:0.7451"/>
					<stop  offset="1" style="stop-color:#00A99D;stop-opacity:0.5"/>
				</linearGradient>
				<polygon fill="url(#SVGID_12_)" points="166.863,193.773 66.588,100.795 41.658,-2.003 				"/>
				<path fill="#FFFFFF" d="M169.17,193.748c0.007,0.649-0.303,1.295-0.888,1.72c-0.915,0.669-2.221,0.596-3.045-0.169
					L64.962,102.321c-0.311-0.289-0.528-0.654-0.624-1.053L39.408-1.529c-0.25-1.027,0.34-2.08,1.394-2.474
					c1.052-0.392,2.256-0.012,2.837,0.898L168.844,192.67C169.06,193.007,169.166,193.38,169.17,193.748z M68.69,99.709
					l86.806,80.488L47.109,10.72L68.69,99.709z"/>
			</g>
			<g>
				
					<linearGradient id="SVGID_13_" gradientUnits="userSpaceOnUse" x1="447.7944" y1="-1546.1084" x2="721.7495" y2="-1546.1084" gradientTransform="matrix(-0.4663 -0.8847 0.8847 -0.4663 1680.0591 66.2897)">
					<stop  offset="0" style="stop-color:#0071BC"/>
					<stop  offset="0.5098" style="stop-color:#0090AB;stop-opacity:0.7451"/>
					<stop  offset="1" style="stop-color:#00A99D;stop-opacity:0.5"/>
				</linearGradient>
				<polygon fill="url(#SVGID_13_)" points="66.588,100.795 -27.502,460.068 166.863,193.773 				"/>
				<path fill="#FFFFFF" d="M169.17,193.749c0.005,0.428-0.126,0.86-0.4,1.234L-25.595,461.279
					c-0.627,0.861-1.825,1.179-2.844,0.755c-1.019-0.423-1.564-1.469-1.303-2.477l94.089-359.273
					c0.198-0.755,0.815-1.35,1.617-1.561c0.8-0.21,1.661-0.002,2.251,0.545l100.275,92.978
					C168.933,192.657,169.164,193.202,169.17,193.749z M-22.236,449.03l186.114-254.99l-96.019-89.033L-22.236,449.03z"/>
			</g>
			<g>
				
					<linearGradient id="SVGID_14_" gradientUnits="userSpaceOnUse" x1="721.7495" y1="-1493.498" x2="928.4907" y2="-1493.498" gradientTransform="matrix(-0.4663 -0.8847 0.8847 -0.4663 1680.0591 66.2897)">
					<stop  offset="0" style="stop-color:#0071BC"/>
					<stop  offset="0.5098" style="stop-color:#0090AB;stop-opacity:0.7451"/>
					<stop  offset="1" style="stop-color:#00A99D;stop-opacity:0.5"/>
				</linearGradient>
				<polygon fill="url(#SVGID_14_)" points="66.588,100.795 -141.315,-23.334 41.658,-2.003 				"/>
				<path fill="#FFFFFF" d="M68.895,100.771c0.008,0.7-0.352,1.373-0.982,1.786c-0.765,0.501-1.781,0.521-2.569,0.05
					L-142.558-21.523c-0.909-0.542-1.291-1.599-0.925-2.543c0.366-0.945,1.386-1.528,2.456-1.404L41.944-4.138
					c0.963,0.112,1.749,0.776,1.964,1.66l24.93,102.798C68.875,100.47,68.893,100.62,68.895,100.771z M-131.483-20.021
					L63.098,96.155L39.766-0.056L-131.483-20.021z"/>
			</g>
			<g>
				
					<linearGradient id="SVGID_15_" gradientUnits="userSpaceOnUse" x1="721.7495" y1="-1634.4146" x2="928.4907" y2="-1634.4146" gradientTransform="matrix(-0.4663 -0.8847 0.8847 -0.4663 1680.0591 66.2897)">
					<stop  offset="0" style="stop-color:#0071BC"/>
					<stop  offset="0.5098" style="stop-color:#0090AB;stop-opacity:0.7451"/>
					<stop  offset="1" style="stop-color:#00A99D;stop-opacity:0.5"/>
				</linearGradient>
				<polygon fill="url(#SVGID_15_)" points="-141.315,-23.334 -320.897,184.915 -99.762,78.667 66.588,100.795 				"/>
				<path fill="#FFFFFF" d="M68.895,100.771c0.003,0.258-0.043,0.52-0.145,0.773c-0.377,0.948-1.413,1.523-2.488,1.381
					L-99.359,80.894L-319.84,186.828c-0.969,0.468-2.154,0.237-2.843-0.552c-0.69-0.787-0.693-1.916-0.01-2.71l179.582-208.25
					c0.738-0.857,2.049-1.056,3.042-0.463L67.832,98.983C68.502,99.383,68.886,100.063,68.895,100.771z M-312.278,178.354
					l211.46-101.601c0.424-0.204,0.908-0.28,1.381-0.217l155.834,20.73L-140.815-20.481L-312.278,178.354z"/>
			</g>
			<g>
				
					<linearGradient id="SVGID_16_" gradientUnits="userSpaceOnUse" x1="447.3071" y1="-1759.4839" x2="827.9966" y2="-1759.4839" gradientTransform="matrix(-0.4663 -0.8847 0.8847 -0.4663 1680.0591 66.2897)">
					<stop  offset="0" style="stop-color:#0071BC"/>
					<stop  offset="0.5098" style="stop-color:#0090AB;stop-opacity:0.7451"/>
					<stop  offset="1" style="stop-color:#00A99D;stop-opacity:0.5"/>
				</linearGradient>
				<path fill="url(#SVGID_16_)" d="M-320.897,184.915l168.203,178.763c0,0,137.036,101.703,125.192,96.391
					c-11.841-5.311-158.286-59.5-158.286-59.5L-320.897,184.915z"/>
				<path fill="#FFFFFF" d="M-24.47,460.169c0.01,0.742-0.425,1.502-1.099,1.9c-1.202,0.715-2.458,0.151-2.932-0.061
					c-11.633-5.22-156.674-58.899-158.138-59.44c-0.48-0.178-0.882-0.499-1.141-0.916l-135.108-215.649
					c-0.599-0.961-0.32-2.184,0.642-2.834c0.964-0.646,2.299-0.504,3.083,0.328l168.066,178.618
					c2.485,1.843,32.828,24.379,62.797,46.986C-24.505,457.224-24.488,458.588-24.47,460.169z M-184.198,398.841
					c10.803,3.998,112.092,41.504,146.842,54.951c-21.273-17.065-77.264-59.107-116.774-88.431
					c-0.107-0.079-0.207-0.168-0.297-0.263l-152.358-161.924L-184.198,398.841z"/>
			</g>
			<g>
				
					<linearGradient id="SVGID_17_" gradientUnits="userSpaceOnUse" x1="574.23" y1="-1697.4365" x2="928.4907" y2="-1697.4365" gradientTransform="matrix(-0.4663 -0.8847 0.8847 -0.4663 1680.0591 66.2897)">
					<stop  offset="0" style="stop-color:#0071BC"/>
					<stop  offset="0.5098" style="stop-color:#0090AB;stop-opacity:0.7451"/>
					<stop  offset="1" style="stop-color:#00A99D;stop-opacity:0.5"/>
				</linearGradient>
				<polygon fill="url(#SVGID_17_)" points="-185.789,400.568 -213.124,200.391 -141.315,-23.334 -320.897,184.915 				"/>
				<path fill="#FFFFFF" d="M-139.007-23.359c0.002,0.213-0.029,0.429-0.097,0.641l-71.669,223.288l27.274,199.727
					c0.14,1.012-0.506,1.979-1.545,2.307c-1.039,0.329-2.183-0.068-2.735-0.951l-135.108-215.649
					c-0.483-0.771-0.406-1.739,0.194-2.437l179.408-208.047c0.4-0.612,1.12-1.025,1.946-1.033c1.272-0.014,2.315,0.935,2.333,2.122
					C-139.007-23.381-139.009-23.37-139.007-23.359z M-215.432,200.412c-0.002-0.216,0.031-0.431,0.097-0.64l68.429-213.19
					l-171.198,198.527l128.596,205.258l-25.905-189.705C-215.423,200.579-215.43,200.495-215.432,200.412z"/>
			</g>
		</g>
	</g>
</g>
<g opacity="0.5">
	<defs>
		<polygon id="SVGID_18_" opacity="0.5" points="1082.339,-52.265 1083.189,19.033 -2.397,30.292 -3.247,-41.004 		"/>
	</defs>
	<clipPath id="SVGID_19_">
		<use xlink:href="#SVGID_18_"  overflow="visible"/>
	</clipPath>
	
		<radialGradient id="SVGID_20_" cx="-44686.7344" cy="-225780.4688" r="5385.4204" gradientTransform="matrix(-0.1005 0.001 -1.258904e-004 -0.0106 -3996.6641 -2307.616)" gradientUnits="userSpaceOnUse">
		<stop  offset="0" style="stop-color:#666666"/>
		<stop  offset="0.1923" style="stop-color:#7C7C7C;stop-opacity:0.8077"/>
		<stop  offset="0.5918" style="stop-color:#B3B3B3;stop-opacity:0.4082"/>
		<stop  offset="1" style="stop-color:#F2F2F2;stop-opacity:0"/>
	</radialGradient>
	<path clip-path="url(#SVGID_19_)" fill="url(#SVGID_20_)" d="M-17.938,35.91c0.375,31.427,242.889,54.396,541.66,51.292
		c298.767-3.1,540.672-31.091,540.298-62.515c-0.375-31.431-242.89-54.398-541.653-51.298C223.595-23.512-18.312,4.479-17.938,35.91
		z"/>
</g>
</svg>
