<?xml version="1.0" encoding="utf-8"?>
<!-- Generator: Adobe Illustrator 16.0.0, SVG Export Plug-In . SVG Version: 6.00 Build 0)  -->
<!DOCTYPE svg PUBLIC "-//W3C//DTD SVG 1.1//EN" "http://www.w3.org/Graphics/SVG/1.1/DTD/svg11.dtd">
<svg version="1.1" id="Capa_1" xmlns="http://www.w3.org/2000/svg" xmlns:xlink="http://www.w3.org/1999/xlink" x="0px" y="0px"
	 width="238.141px" height="237.242px" viewBox="0 0 238.141 237.242" enable-background="new 0 0 238.141 237.242"
	 xml:space="preserve">
<polygon fill="#057F80" points="222.059,63.926 206.645,69.418 210.171,54.998 "/>
<polygon fill="#DDC158" points="234.564,99.365 226.451,113.575 219.729,100.339 "/>
<polygon fill="#DDC158" points="13.788,149.417 8.657,158.403 3.93,149.761 "/>
<polygon fill="#318651" points="63.756,94.354 71.341,27.318 102.077,72.4 "/>
<polygon fill="#4AB16B" points="71.341,27.318 107.37,50.653 102.077,72.4 "/>
<polygon fill="#03747D" points="142.334,12.755 128.132,64.074 109.748,25.129 "/>
<polygon fill="#057F80" points="128.132,64.074 102.931,41.428 109.748,25.129 "/>
<polygon fill="#03747D" points="14.974,153.97 78.03,139.37 47.096,181.6 "/>
<polygon fill="#4DA69D" points="78.03,139.37 68.458,179.425 47.096,181.6 "/>
<polygon fill="#318651" points="113.079,202.186 176.29,204.653 138.856,169.777 "/>
<polygon fill="#3A9B5E" points="176.29,204.653 159.765,167.952 138.856,169.777 "/>
<polygon fill="#DDC158" points="71.376,162.79 46.501,191.574 54.084,195.164 "/>
<polygon fill="#BEA84C" points="71.376,162.79 62.045,209.816 54.084,195.164 "/>
<polygon fill="#A29041" points="46.501,191.574 62.045,209.816 54.084,195.164 "/>
<polygon fill="#902413" points="91.188,175.085 68.762,164.768 82.547,175.014 "/>
<polygon fill="#DDC158" points="114.003,237.242 148.761,174.813 120.139,174.813 "/>
<polygon fill="#BEA84C" points="114.003,237.242 97.984,156.881 120.139,174.813 "/>
<polygon fill="#367E77" points="148.761,174.813 97.984,156.881 120.139,174.813 "/>
<polygon fill="#BEA84C" points="189.756,60.425 194.104,96.771 145.28,78.173 "/>
<polygon fill="#A29041" points="194.104,96.771 202.226,37.393 189.756,60.425 "/>
<polygon fill="#DDC158" points="202.226,37.393 145.28,78.173 189.756,60.425 "/>
<polygon fill="#057F80" points="206.534,80.603 226.568,83.347 206.322,100.94 "/>
<polygon fill="#03747D" points="226.568,83.347 199.5,71.984 206.534,80.603 "/>
<polygon fill="#4DA69D" points="199.5,71.984 206.322,100.94 206.534,80.603 "/>
<polygon fill="#42928A" points="57.678,65 51.431,45.768 76.082,56.34 "/>
<polygon fill="#03747D" points="51.431,45.768 52.979,75.083 57.678,65 "/>
<polygon fill="#057F80" points="52.979,75.083 76.082,56.34 57.678,65 "/>
<polygon fill="#3A9B5E" points="164.087,42.202 160.454,65.759 140.122,41.546 "/>
<polygon fill="#318651" points="160.454,65.759 174.385,34.085 164.087,42.202 "/>
<polygon fill="#4AB16B" points="174.385,34.085 140.122,41.546 164.087,42.202 "/>
<polygon fill="#057F80" points="230.268,152.322 227.678,169.116 213.183,151.854 "/>
<polygon fill="#367E77" points="227.678,169.116 237.61,146.536 230.268,152.322 "/>
<polygon fill="#4DA69D" points="237.61,146.536 213.183,151.854 230.268,152.322 "/>
<polygon fill="#057F80" points="206.338,181.713 213.034,201.277 187.658,190.86 "/>
<polygon fill="#03747D" points="213.034,201.277 210.982,171.328 206.338,181.713 "/>
<polygon fill="#4DA69D" points="210.982,171.328 187.658,190.86 206.338,181.713 "/>
<polygon fill="#DDC158" points="154.821,10.648 173.354,10.648 164.087,38.652 "/>
<polygon fill="#4AB16B" points="42.415,131.41 60.447,127.135 57.892,156.521 "/>
<polygon fill="#4AB16B" points="0,109.162 11.354,106.47 8.089,117.991 "/>
<polygon fill="#3A9B5E" points="218.008,193.908 224.068,176.394 230.268,187.08 "/>
<polygon fill="#3A9B5E" points="141.964,30.269 148.023,12.755 154.224,23.441 "/>
<polygon fill="#057F80" points="194.104,33.407 200.164,15.893 212.583,30.111 "/>
<polygon fill="#BEA84C" points="95.264,0 110.237,7.652 91.188,26.453 "/>
<polygon fill="#D6CA82" points="227.147,121.482 238.141,126.512 227.854,136.04 "/>
<polygon fill="#4DA69D" points="186.26,90.776 186.26,120.852 230.29,140.387 "/>
<polygon fill="#42928A" points="186.26,90.776 170.137,122.816 186.26,120.852 "/>
<polygon fill="#03747D" points="170.137,122.816 230.29,140.387 186.26,119.716 "/>
<polygon fill="#BEA84C" points="186.374,126.192 155.179,147.229 190.627,146.876 "/>
<polygon fill="#A29041" points="155.179,147.229 170.316,183.725 190.627,146.876 "/>
<polygon fill="#A29041" points="186.374,126.192 218.66,174.097 190.627,146.876 "/>
<polygon fill="#DDC158" points="170.316,183.725 218.66,174.097 190.627,146.876 "/>
<polygon fill="#BEA84C" points="26.86,100.17 45.263,116.526 39.28,94.113 "/>
<polygon fill="#A29041" points="45.263,116.526 65.937,101.002 39.28,94.113 "/>
<polygon fill="#A29041" points="26.86,100.17 51.98,71.923 39.28,94.113 "/>
<polygon fill="#DDC158" points="65.937,101.002 51.98,71.923 39.28,94.113 "/>
<polygon fill="#4DA69D" points="76.555,235.629 84.865,211.717 103.596,229.437 "/>
<polygon fill="#4DA69D" points="84.865,211.717 73.743,189.886 103.078,214.062 "/>
<polygon fill="#057F80" points="103.078,214.062 103.596,229.437 84.865,211.717 "/>
<polygon fill="#03747D" points="76.555,235.629 73.743,189.886 84.865,211.717 "/>
<polygon fill="#4DA69D" points="62.848,128.296 19.686,106.47 19.686,129.289 "/>
<polygon fill="#057F80" points="62.848,128.296 9.276,145.915 19.686,129.289 "/>
<polygon fill="#03747D" points="19.686,106.47 9.276,145.915 19.686,129.289 "/>
<polygon fill="#057F80" points="202.529,204.523 197.406,224.195 185.052,210.5 "/>
<polygon fill="#DDC158" points="190.088,199.877 185.172,218.749 173.323,205.611 "/>
<polygon fill="#D6CA82" points="193.003,201.376 197.57,211.584 179.861,213.382 "/>
<polygon fill="#DDC158" points="53.355,30.254 38.689,44.332 35.336,26.196 "/>
<polygon fill="#03747D" points="41.214,28.979 36.299,47.851 24.45,34.713 "/>
<polygon fill="#3A9B5E" points="39.741,70.052 19.524,70.488 34.023,55.101 "/>
<polygon fill="#318651" points="19.524,70.488 51.147,77.617 39.741,70.052 "/>
<polygon fill="#4AB16B" points="51.147,77.617 34.023,55.101 39.741,70.052 "/>
<polygon fill="#A2C9C3" points="77.396,187.411 158.723,121.433 117.065,80.411 "/>
<polygon fill="#7DB7B0" points="162.369,188.04 158.723,121.433 77.396,187.411 "/>
<polygon fill="#057F80" points="200.061,108.246 158.723,121.433 162.369,188.04 "/>
<polygon fill="#4DA69D" points="117.065,80.411 200.061,108.246 158.723,121.433 "/>
<polygon fill="#03747D" points="165.6,50.017 78.823,49.202 117.065,80.411 "/>
<polygon fill="#7DB7B0" points="165.6,50.182 200.061,108.411 117.065,80.577 "/>
<polygon fill="#4DA69D" points="78.823,49.202 40.339,106.208 117.065,80.411 "/>
<polygon fill="#7DB7B0" points="77.396,187.411 117.065,80.411 40.339,106.208 "/>
<polygon opacity="0.5" fill="#333333" points="76.268,188.506 157.595,122.528 115.937,81.505 "/>
<polygon opacity="0.5" fill="#333333" points="161.239,189.135 157.595,122.528 76.268,188.506 "/>
<polygon opacity="0.5" fill="#333333" points="198.932,109.34 157.595,122.528 161.239,189.135 "/>
<polygon opacity="0.5" fill="#333333" points="115.937,81.505 198.932,109.34 157.595,122.528 "/>
<polygon opacity="0.5" fill="#333333" points="164.471,51.111 77.694,50.297 115.937,81.505 "/>
<polygon opacity="0.5" fill="#333333" points="165.291,51.296 199.751,109.525 116.756,81.691 "/>
<polygon opacity="0.5" fill="#333333" points="77.694,50.297 39.21,107.303 115.937,81.505 "/>
<polygon opacity="0.5" fill="#333333" points="76.268,188.506 115.937,81.505 39.21,107.303 "/>
<text transform="matrix(1 0 0 1 78.0303 133.3027)"><tspan x="0" y="0" fill="#FFFFFF" font-family="'TimesNewRomanPS-BoldMT'" font-size="15">CENTRO DE</tspan><tspan x="0" y="18" fill="#FFFFFF" font-family="'TimesNewRomanPS-BoldMT'" font-size="15">IDIOMAS</tspan><tspan x="0" y="36" fill="#FFFFFF" font-family="'TimesNewRomanPS-BoldMT'" font-size="15">USMP</tspan></text>
<line fill="#FFFFFF" stroke="#FFFFFF" stroke-miterlimit="10" x1="64.53" y1="115.582" x2="173.354" y2="115.582"/>
<line fill="#FFFFFF" stroke="#FFFFFF" stroke-miterlimit="10" x1="71.629" y1="174.097" x2="164.982" y2="174.097"/>
<g>
	<defs>
		<rect id="SVGID_1_" x="94.216" y="57.549" width="42.631" height="53.827"/>
	</defs>
	<clipPath id="SVGID_2_">
		<use xlink:href="#SVGID_1_"  overflow="visible"/>
	</clipPath>
	<g transform="matrix(1 0 0 1 7.629395e-006 3.814697e-006)" clip-path="url(#SVGID_2_)">
		
			<image overflow="visible" width="2573" height="1045" xlink:href="D:\Users\diana_llanos\Downloads\logo_usmp_1.png"  transform="matrix(0.0486 0 0 0.0486 98.8252 58.7705)">
		</image>
	</g>
</g>
</svg>
