<?xml version="1.0" encoding="utf-8"?>
<!-- Generator: Adobe Illustrator 16.0.0, SVG Export Plug-In . SVG Version: 6.00 Build 0)  -->
<!DOCTYPE svg PUBLIC "-//W3C//DTD SVG 1.1//EN" "http://www.w3.org/Graphics/SVG/1.1/DTD/svg11.dtd">
<svg version="1.1" id="Capa_1" xmlns="http://www.w3.org/2000/svg" xmlns:xlink="http://www.w3.org/1999/xlink" x="0px" y="0px"
	 width="1481.383px" height="292.094px" viewBox="-83.437 0 1481.383 292.094" enable-background="new -83.437 0 1481.383 292.094"
	 xml:space="preserve">
<g>
	<rect x="-758.822" y="0.702" fill="#027370" width="2160.385" height="291.392"/>
	<g>
		<g>
			<defs>
				<rect id="SVGID_1_" x="-762.437" y="0.703" width="2160.383" height="291.391"/>
			</defs>
			<clipPath id="SVGID_2_">
				<use xlink:href="#SVGID_1_"  overflow="visible"/>
			</clipPath>
			<g clip-path="url(#SVGID_2_)">
				<g>
					<polygon fill="#E3832D" points="-168.102,-333.634 -21.655,-442.691 124.795,-333.634 					"/>
					<polygon fill="#F7A539" points="271.245,-442.691 124.795,-333.634 -21.655,-442.691 					"/>
					<polygon fill="#F8AF4B" points="124.795,-333.634 271.245,-442.691 417.693,-333.634 					"/>
					<polygon fill="#F7A958" points="564.137,-442.691 417.693,-333.634 271.245,-442.691 					"/>
					<polygon fill="#F28D4C" points="417.693,-333.634 564.137,-442.691 710.587,-333.634 					"/>
					<polygon fill="#F0833B" points="857.031,-442.691 710.587,-333.634 564.137,-442.691 					"/>
					<polygon fill="#F18939" points="710.587,-333.634 857.031,-442.691 1003.477,-333.634 					"/>
					<polygon fill="#F28B2D" points="1149.93,-442.691 1003.477,-333.634 857.031,-442.691 					"/>
					<polygon fill="#F18519" points="1003.477,-333.634 1149.93,-442.691 1296.367,-333.634 					"/>
					<polygon fill="#F28A1A" points="1442.814,-442.691 1296.367,-333.634 1149.93,-442.691 					"/>
					<polygon fill="#EC6309" points="1296.367,-333.634 1442.814,-442.691 1589.27,-333.634 					"/>
					<polygon fill="#DA4714" points="1735.716,-442.691 1589.27,-333.634 1442.814,-442.691 					"/>
					<polygon fill="#EEA93C" points="124.795,-333.634 -21.655,-224.581 -168.102,-333.634 					"/>
					<polygon fill="#FAB83E" points="-21.655,-224.581 124.795,-333.634 271.245,-224.581 					"/>
					<polygon fill="#FECD56" points="417.693,-333.634 271.245,-224.581 124.795,-333.634 					"/>
					<polygon fill="#FAB85E" points="271.245,-224.581 417.693,-333.634 564.137,-224.581 					"/>
					<polygon fill="#F59E54" points="710.587,-333.634 564.137,-224.581 417.693,-333.634 					"/>
					<polygon fill="#F28D3D" points="564.137,-224.581 710.587,-333.634 857.031,-224.581 					"/>
					<polygon fill="#EEA241" points="1003.477,-333.634 857.031,-224.581 710.587,-333.634 					"/>
					<polygon fill="#F9AF3C" points="857.031,-224.581 1003.477,-333.634 1149.93,-224.581 					"/>
					<polygon fill="#FABF29" points="1296.367,-333.634 1149.93,-224.581 1003.477,-333.634 					"/>
					<polygon fill="#F6A318" points="1149.93,-224.581 1296.367,-333.634 1442.814,-224.581 					"/>
					<polygon fill="#F7A519" points="1589.27,-333.634 1442.814,-224.581 1296.367,-333.634 					"/>
					<polygon fill="#F07E12" points="1442.814,-224.581 1589.27,-333.634 1735.716,-224.581 					"/>
					<polygon fill="#E5A554" points="-168.102,-115.525 -21.655,-224.581 124.795,-115.525 					"/>
					<polygon fill="#EBC46F" points="271.245,-224.581 124.795,-115.525 -21.655,-224.581 					"/>
					<polygon fill="#FED570" points="124.795,-115.525 271.245,-224.581 417.693,-115.525 					"/>
					<polygon fill="#FDCC74" points="564.137,-224.581 417.693,-115.525 271.245,-224.581 					"/>
					<polygon fill="#FABA64" points="417.693,-115.525 564.137,-224.581 710.587,-115.525 					"/>
					<polygon fill="#C07A44" points="857.031,-224.581 710.587,-115.525 564.137,-224.581 					"/>
					<polygon fill="#B46F32" points="710.587,-115.525 857.031,-224.581 1003.477,-115.525 					"/>
					<polygon fill="#D98533" points="1149.93,-224.581 1003.477,-115.525 857.031,-224.581 					"/>
					<polygon fill="#FABF47" points="1003.477,-115.525 1149.93,-224.581 1296.367,-115.525 					"/>
					<polygon fill="#FAC25D" points="1442.814,-224.581 1296.367,-115.525 1149.93,-224.581 					"/>
					<polygon fill="#F8B542" points="1296.367,-115.525 1442.814,-224.581 1589.27,-115.525 					"/>
					<polygon fill="#EC9C45" points="1735.716,-224.581 1589.27,-115.525 1442.814,-224.581 					"/>
					<polygon fill="#A1C187" points="124.795,-115.525 -21.655,-6.469 -168.102,-115.525 					"/>
					<polygon fill="#D2CE88" points="-21.655,-6.469 124.795,-115.525 271.245,-6.469 					"/>
					<polygon fill="#CBCC86" points="417.693,-115.525 271.245,-6.469 124.795,-115.525 					"/>
					<polygon fill="#F1D07F" points="271.245,-6.469 417.693,-115.525 564.137,-6.469 					"/>
					<polygon fill="#E0A96A" points="710.587,-115.525 564.137,-6.469 417.693,-115.525 					"/>
					<polygon fill="#A55A3B" points="564.137,-6.469 710.587,-115.525 857.031,-6.469 					"/>
					<polygon fill="#A44A33" points="1003.477,-115.525 857.031,-6.469 710.587,-115.525 					"/>
					<polygon fill="#E07F45" points="857.031,-6.469 1003.477,-115.525 1149.93,-6.469 					"/>
					<polygon fill="#E98253" points="1296.367,-115.525 1149.93,-6.469 1003.477,-115.525 					"/>
					<polygon fill="#E69252" points="1149.93,-6.469 1296.367,-115.525 1442.814,-6.469 					"/>
					<polygon fill="#D06C4D" points="1589.27,-115.525 1442.814,-6.469 1296.367,-115.525 					"/>
					<polygon fill="#D77E4A" points="1442.814,-6.469 1589.27,-115.525 1735.716,-6.469 					"/>
					<polygon fill="#6CB681" points="-168.102,102.586 -21.655,-6.469 124.795,102.586 					"/>
					<polygon fill="#64B387" points="271.245,-6.469 124.795,102.586 -21.655,-6.469 					"/>
					<polygon fill="#AABD87" points="124.795,102.586 271.245,-6.469 417.693,102.586 					"/>
					<polygon fill="#BFB980" points="564.137,-6.469 417.693,102.586 271.245,-6.469 					"/>
					<polygon fill="#E2AF6E" points="417.693,102.586 564.137,-6.469 710.587,102.586 					"/>
					<polygon fill="#E69C5E" points="857.031,-6.469 710.587,102.586 564.137,-6.469 					"/>
					<polygon fill="#E18952" points="710.587,102.586 857.031,-6.469 1003.477,102.586 					"/>
					<polygon fill="#F3A148" points="1149.93,-6.469 1003.477,102.586 857.031,-6.469 					"/>
					<polygon fill="#E67E51" points="1003.477,102.586 1149.93,-6.469 1296.367,102.586 					"/>
					<polygon fill="#C24C48" points="1442.814,-6.469 1296.367,102.586 1149.93,-6.469 					"/>
					<polygon fill="#B73941" points="1296.367,102.586 1442.814,-6.469 1589.27,102.586 					"/>
					<polygon fill="#9F2839" points="1735.716,-6.469 1589.27,102.586 1442.814,-6.469 					"/>
					<polygon fill="#098F86" points="124.795,102.586 -21.655,211.643 -168.102,102.586 					"/>
					<polygon fill="#40A088" points="-21.655,211.643 124.795,102.586 271.245,211.643 					"/>
					<polygon fill="#73AB89" points="417.693,102.586 271.245,211.643 124.795,102.586 					"/>
					<polygon fill="#A5B786" points="271.245,211.643 417.693,102.586 564.137,211.643 					"/>
					<polygon fill="#C9CB88" points="710.587,102.586 564.137,211.643 417.693,102.586 					"/>
					<polygon fill="#E8BE74" points="564.137,211.643 710.587,102.586 857.031,211.643 					"/>
					<polygon fill="#F6C676" points="1003.477,102.586 857.031,211.643 710.587,102.586 					"/>
					<polygon fill="#EFA358" points="857.031,211.643 1003.477,102.586 1149.93,211.643 					"/>
					<polygon fill="#C76B4D" points="1296.367,102.586 1149.93,211.643 1003.477,102.586 					"/>
					<polygon fill="#B25044" points="1149.93,211.643 1296.367,102.586 1442.814,211.643 					"/>
					<polygon fill="#973337" points="1589.27,102.586 1442.814,211.643 1296.367,102.586 					"/>
					<polygon fill="#8B1D33" points="1442.814,211.643 1589.27,102.586 1735.716,211.643 					"/>
					<polygon fill="#01717B" points="-168.102,320.695 -21.655,211.643 124.795,320.695 					"/>
					<polygon fill="#047E7F" points="271.245,211.643 124.795,320.695 -21.655,211.643 					"/>
					<polygon fill="#6AA58A" points="124.795,320.695 271.245,211.643 417.693,320.695 					"/>
					<polygon fill="#8BB285" points="564.137,211.643 417.693,320.695 271.245,211.643 					"/>
					<polygon fill="#BEC681" points="417.693,320.695 564.137,211.643 710.587,320.695 					"/>
					<polygon fill="#D7B967" points="857.031,211.643 710.587,320.695 564.137,211.643 					"/>
					<polygon fill="#EEB767" points="710.587,320.695 857.031,211.643 1003.477,320.695 					"/>
					<polygon fill="#D68751" points="1149.93,211.643 1003.477,320.695 857.031,211.643 					"/>
					<polygon fill="#C16448" points="1003.477,320.695 1149.93,211.643 1296.367,320.695 					"/>
					<polygon fill="#9C4742" points="1442.814,211.643 1296.367,320.695 1149.93,211.643 					"/>
					<polygon fill="#84383D" points="1296.367,320.695 1442.814,211.643 1589.27,320.695 					"/>
					<polygon fill="#7A1E2C" points="1735.716,211.643 1589.27,320.695 1442.814,211.643 					"/>
				</g>
				<g opacity="0.48">
					<polygon fill="#E3832D" points="-40.025,-330.362 106.425,-450.323 252.877,-330.362 					"/>
					<polygon fill="#F7A539" points="399.318,-450.323 252.877,-330.362 106.425,-450.323 					"/>
					<polygon fill="#F8AF4B" points="252.877,-330.362 399.318,-450.323 545.77,-330.362 					"/>
					<polygon fill="#F7A958" points="692.217,-450.323 545.77,-330.362 399.318,-450.323 					"/>
					<polygon fill="#F28D4C" points="545.77,-330.362 692.217,-450.323 838.663,-330.362 					"/>
					<polygon fill="#F0833B" points="985.111,-450.323 838.663,-330.362 692.217,-450.323 					"/>
					<polygon fill="#F18939" points="838.663,-330.362 985.111,-450.323 1131.559,-330.362 					"/>
					<polygon fill="#F28B2D" points="1278.006,-450.323 1131.559,-330.362 985.111,-450.323 					"/>
					<polygon fill="#F18519" points="1131.559,-330.362 1278.006,-450.323 1424.448,-330.362 					"/>
					<polygon fill="#F28A1A" points="1570.894,-450.323 1424.448,-330.362 1278.006,-450.323 					"/>
					<polygon fill="#EC6309" points="1424.448,-330.362 1570.894,-450.323 1717.348,-330.362 					"/>
					<polygon fill="#DA4714" points="1863.794,-450.323 1717.348,-330.362 1570.894,-450.323 					"/>
					<polygon fill="#EEA93C" points="252.877,-330.362 106.425,-210.402 -40.025,-330.362 					"/>
					<polygon fill="#FAB83E" points="106.425,-210.402 252.877,-330.362 399.318,-210.402 					"/>
					<polygon fill="#FECD56" points="545.77,-330.362 399.318,-210.402 252.877,-330.362 					"/>
					<polygon fill="#FAB85E" points="399.318,-210.402 545.77,-330.362 692.217,-210.402 					"/>
					<polygon fill="#F59E54" points="838.663,-330.362 692.217,-210.402 545.77,-330.362 					"/>
					<polygon fill="#F28D3D" points="692.217,-210.402 838.663,-330.362 985.111,-210.402 					"/>
					<polygon fill="#EEA241" points="1131.559,-330.362 985.111,-210.402 838.663,-330.362 					"/>
					<polygon fill="#F9AF3C" points="985.111,-210.402 1131.559,-330.362 1278.006,-210.402 					"/>
					<polygon fill="#FABF29" points="1424.448,-330.362 1278.006,-210.402 1131.559,-330.362 					"/>
					<polygon fill="#F6A318" points="1278.006,-210.402 1424.448,-330.362 1570.894,-210.402 					"/>
					<polygon fill="#F7A519" points="1717.348,-330.362 1570.894,-210.402 1424.448,-330.362 					"/>
					<polygon fill="#F07E12" points="1570.894,-210.402 1717.348,-330.362 1863.794,-210.402 					"/>
					<polygon fill="#E5A554" points="-40.025,-90.443 106.425,-210.402 252.877,-90.443 					"/>
					<polygon fill="#EBC46F" points="399.318,-210.402 252.877,-90.443 106.425,-210.402 					"/>
					<polygon fill="#FED570" points="252.877,-90.443 399.318,-210.402 545.77,-90.443 					"/>
					<polygon fill="#FDCC74" points="692.217,-210.402 545.77,-90.443 399.318,-210.402 					"/>
					<polygon fill="#FABA64" points="545.77,-90.443 692.217,-210.402 838.663,-90.443 					"/>
					<polygon fill="#C07A44" points="985.111,-210.402 838.663,-90.443 692.217,-210.402 					"/>
					<polygon fill="#B46F32" points="838.663,-90.443 985.111,-210.402 1131.559,-90.443 					"/>
					<polygon fill="#D98533" points="1278.006,-210.402 1131.559,-90.443 985.111,-210.402 					"/>
					<polygon fill="#FABF47" points="1131.559,-90.443 1278.006,-210.402 1424.448,-90.443 					"/>
					<polygon fill="#FAC25D" points="1570.894,-210.402 1424.448,-90.443 1278.006,-210.402 					"/>
					<polygon fill="#F8B542" points="1424.448,-90.443 1570.894,-210.402 1717.348,-90.443 					"/>
					<polygon fill="#EC9C45" points="1863.794,-210.402 1717.348,-90.443 1570.894,-210.402 					"/>
					<polygon fill="#A1C187" points="252.877,-90.443 106.425,29.52 -40.025,-90.443 					"/>
					<polygon fill="#D2CE88" points="106.425,29.52 252.877,-90.443 399.318,29.52 					"/>
					<polygon fill="#CBCC86" points="545.77,-90.443 399.318,29.52 252.877,-90.443 					"/>
					<polygon fill="#F1D07F" points="399.318,29.52 545.77,-90.443 692.217,29.52 					"/>
					<polygon fill="#E0A96A" points="838.663,-90.443 692.217,29.52 545.77,-90.443 					"/>
					<polygon fill="#A55A3B" points="692.217,29.52 838.663,-90.443 985.111,29.52 					"/>
					<polygon fill="#A44A33" points="1131.559,-90.443 985.111,29.52 838.663,-90.443 					"/>
					<polygon fill="#E07F45" points="985.111,29.52 1131.559,-90.443 1278.006,29.52 					"/>
					<polygon fill="#E98253" points="1424.448,-90.443 1278.006,29.52 1131.559,-90.443 					"/>
					<polygon fill="#E69252" points="1278.006,29.52 1424.448,-90.443 1570.894,29.52 					"/>
					<polygon fill="#D06C4D" points="1717.348,-90.443 1570.894,29.52 1424.448,-90.443 					"/>
					<polygon fill="#D77E4A" points="1570.894,29.52 1717.348,-90.443 1863.794,29.52 					"/>
					<polygon fill="#6CB681" points="-40.025,149.479 106.425,29.52 252.877,149.479 					"/>
					<polygon fill="#64B387" points="399.318,29.52 252.877,149.479 106.425,29.52 					"/>
					<polygon fill="#AABD87" points="252.877,149.479 399.318,29.52 545.77,149.479 					"/>
					<polygon fill="#BFB980" points="692.217,29.52 545.77,149.479 399.318,29.52 					"/>
					<polygon fill="#E2AF6E" points="545.77,149.479 692.217,29.52 838.663,149.479 					"/>
					<polygon fill="#E69C5E" points="985.111,29.52 838.663,149.479 692.217,29.52 					"/>
					<polygon fill="#E18952" points="838.663,149.479 985.111,29.52 1131.559,149.479 					"/>
					<polygon fill="#F3A148" points="1278.006,29.52 1131.559,149.479 985.111,29.52 					"/>
					<polygon fill="#E67E51" points="1131.559,149.479 1278.006,29.52 1424.448,149.479 					"/>
					<polygon fill="#C24C48" points="1570.894,29.52 1424.448,149.479 1278.006,29.52 					"/>
					<polygon fill="#B73941" points="1424.448,149.479 1570.894,29.52 1717.348,149.479 					"/>
					<polygon fill="#9F2839" points="1863.794,29.52 1717.348,149.479 1570.894,29.52 					"/>
					<polygon fill="#098F86" points="252.877,149.479 106.425,269.439 -40.025,149.479 					"/>
					<polygon fill="#40A088" points="106.425,269.439 252.877,149.479 399.318,269.439 					"/>
					<polygon fill="#73AB89" points="545.77,149.479 399.318,269.439 252.877,149.479 					"/>
					<polygon fill="#A5B786" points="399.318,269.439 545.77,149.479 692.217,269.439 					"/>
					<polygon fill="#C9CB88" points="838.663,149.479 692.217,269.439 545.77,149.479 					"/>
					<polygon fill="#E8BE74" points="692.217,269.439 838.663,149.479 985.111,269.439 					"/>
					<polygon fill="#F6C676" points="1131.559,149.479 985.111,269.439 838.663,149.479 					"/>
					<polygon fill="#EFA358" points="985.111,269.439 1131.559,149.479 1278.006,269.439 					"/>
					<polygon fill="#C76B4D" points="1424.448,149.479 1278.006,269.439 1131.559,149.479 					"/>
					<polygon fill="#B25044" points="1278.006,269.439 1424.448,149.479 1570.894,269.439 					"/>
					<polygon fill="#973337" points="1717.348,149.479 1570.894,269.439 1424.448,149.479 					"/>
					<polygon fill="#8B1D33" points="1570.894,269.439 1717.348,149.479 1863.794,269.439 					"/>
					<polygon fill="#01717B" points="-40.025,389.4 106.425,269.439 252.877,389.4 					"/>
					<polygon fill="#047E7F" points="399.318,269.439 252.877,389.4 106.425,269.439 					"/>
					<polygon fill="#6AA58A" points="252.877,389.4 399.318,269.439 545.77,389.4 					"/>
					<polygon fill="#8BB285" points="692.217,269.439 545.77,389.4 399.318,269.439 					"/>
					<polygon fill="#BEC681" points="545.77,389.4 692.217,269.439 838.663,389.4 					"/>
					<polygon fill="#D7B967" points="985.111,269.439 838.663,389.4 692.217,269.439 					"/>
					<polygon fill="#EEB767" points="838.663,389.4 985.111,269.439 1131.559,389.4 					"/>
					<polygon fill="#D68751" points="1278.006,269.439 1131.559,389.4 985.111,269.439 					"/>
					<polygon fill="#C16448" points="1131.559,389.4 1278.006,269.439 1424.448,389.4 					"/>
					<polygon fill="#9C4742" points="1570.894,269.439 1424.448,389.4 1278.006,269.439 					"/>
					<polygon fill="#84383D" points="1424.448,389.4 1570.894,269.439 1717.348,389.4 					"/>
					<polygon fill="#7A1E2C" points="1863.794,269.439 1717.348,389.4 1570.894,269.439 					"/>
				</g>
				<g opacity="0.26">
					<polygon fill="#E3832D" points="-384.232,-364.714 -237.783,-484.676 -91.34,-364.714 					"/>
					<polygon fill="#F7A539" points="55.111,-484.676 -91.34,-364.714 -237.783,-484.676 					"/>
					<polygon fill="#F8AF4B" points="-91.34,-364.714 55.111,-484.676 201.553,-364.714 					"/>
					<polygon fill="#F7A958" points="348.006,-484.676 201.553,-364.714 55.111,-484.676 					"/>
					<polygon fill="#F28D4C" points="201.553,-364.714 348.006,-484.676 494.452,-364.714 					"/>
					<polygon fill="#F0833B" points="640.901,-484.676 494.452,-364.714 348.006,-484.676 					"/>
					<polygon fill="#F18939" points="494.452,-364.714 640.901,-484.676 787.345,-364.714 					"/>
					<polygon fill="#F28B2D" points="933.799,-484.676 787.345,-364.714 640.901,-484.676 					"/>
					<polygon fill="#F18519" points="787.345,-364.714 933.799,-484.676 1080.244,-364.714 					"/>
					<polygon fill="#F28A1A" points="1226.685,-484.676 1080.244,-364.714 933.799,-484.676 					"/>
					<polygon fill="#EC6309" points="1080.244,-364.714 1226.685,-484.676 1373.137,-364.714 					"/>
					<polygon fill="#DA4714" points="1519.585,-484.676 1373.137,-364.714 1226.685,-484.676 					"/>
					<polygon fill="#EEA93C" points="-91.34,-364.714 -237.783,-244.757 -384.232,-364.714 					"/>
					<polygon fill="#FAB83E" points="-237.783,-244.757 -91.34,-364.714 55.111,-244.757 					"/>
					<polygon fill="#FECD56" points="201.553,-364.714 55.111,-244.757 -91.34,-364.714 					"/>
					<polygon fill="#FAB85E" points="55.111,-244.757 201.553,-364.714 348.006,-244.757 					"/>
					<polygon fill="#F59E54" points="494.452,-364.714 348.006,-244.757 201.553,-364.714 					"/>
					<polygon fill="#F28D3D" points="348.006,-244.757 494.452,-364.714 640.901,-244.757 					"/>
					<polygon fill="#EEA241" points="787.345,-364.714 640.901,-244.757 494.452,-364.714 					"/>
					<polygon fill="#F9AF3C" points="640.901,-244.757 787.345,-364.714 933.799,-244.757 					"/>
					<polygon fill="#FABF29" points="1080.244,-364.714 933.799,-244.757 787.345,-364.714 					"/>
					<polygon fill="#F6A318" points="933.799,-244.757 1080.244,-364.714 1226.685,-244.757 					"/>
					<polygon fill="#F7A519" points="1373.137,-364.714 1226.685,-244.757 1080.244,-364.714 					"/>
					<polygon fill="#F07E12" points="1226.685,-244.757 1373.137,-364.714 1519.585,-244.757 					"/>
					<polygon fill="#E5A554" points="-384.232,-124.795 -237.783,-244.757 -91.34,-124.795 					"/>
					<polygon fill="#EBC46F" points="55.111,-244.757 -91.34,-124.795 -237.783,-244.757 					"/>
					<polygon fill="#FED570" points="-91.34,-124.795 55.111,-244.757 201.553,-124.795 					"/>
					<polygon fill="#FDCC74" points="348.006,-244.757 201.553,-124.795 55.111,-244.757 					"/>
					<polygon fill="#FABA64" points="201.553,-124.795 348.006,-244.757 494.452,-124.795 					"/>
					<polygon fill="#C07A44" points="640.901,-244.757 494.452,-124.795 348.006,-244.757 					"/>
					<polygon fill="#B46F32" points="494.452,-124.795 640.901,-244.757 787.345,-124.795 					"/>
					<polygon fill="#D98533" points="933.799,-244.757 787.345,-124.795 640.901,-244.757 					"/>
					<polygon fill="#FABF47" points="787.345,-124.795 933.799,-244.757 1080.244,-124.795 					"/>
					<polygon fill="#FAC25D" points="1226.685,-244.757 1080.244,-124.795 933.799,-244.757 					"/>
					<polygon fill="#F8B542" points="1080.244,-124.795 1226.685,-244.757 1373.137,-124.795 					"/>
					<polygon fill="#EC9C45" points="1519.585,-244.757 1373.137,-124.795 1226.685,-244.757 					"/>
					<polygon fill="#A1C187" points="-91.34,-124.795 -237.783,-4.832 -384.232,-124.795 					"/>
					<polygon fill="#D2CE88" points="-237.783,-4.832 -91.34,-124.795 55.111,-4.832 					"/>
					<polygon fill="#CBCC86" points="201.553,-124.795 55.111,-4.832 -91.34,-124.795 					"/>
					<polygon fill="#F1D07F" points="55.111,-4.832 201.553,-124.795 348.006,-4.832 					"/>
					<polygon fill="#E0A96A" points="494.452,-124.795 348.006,-4.832 201.553,-124.795 					"/>
					<polygon fill="#A55A3B" points="348.006,-4.832 494.452,-124.795 640.901,-4.832 					"/>
					<polygon fill="#A44A33" points="787.345,-124.795 640.901,-4.832 494.452,-124.795 					"/>
					<polygon fill="#E07F45" points="640.901,-4.832 787.345,-124.795 933.799,-4.832 					"/>
					<polygon fill="#E98253" points="1080.244,-124.795 933.799,-4.832 787.345,-124.795 					"/>
					<polygon fill="#E69252" points="933.799,-4.832 1080.244,-124.795 1226.685,-4.832 					"/>
					<polygon fill="#D06C4D" points="1373.137,-124.795 1226.685,-4.832 1080.244,-124.795 					"/>
					<polygon fill="#D77E4A" points="1226.685,-4.832 1373.137,-124.795 1519.585,-4.832 					"/>
					<polygon fill="#6CB681" points="-384.232,115.128 -237.783,-4.832 -91.34,115.128 					"/>
					<polygon fill="#64B387" points="55.111,-4.832 -91.34,115.128 -237.783,-4.832 					"/>
					<polygon fill="#AABD87" points="-91.34,115.128 55.111,-4.832 201.553,115.128 					"/>
					<polygon fill="#BFB980" points="348.006,-4.832 201.553,115.128 55.111,-4.832 					"/>
					<polygon fill="#E2AF6E" points="201.553,115.128 348.006,-4.832 494.452,115.128 					"/>
					<polygon fill="#E69C5E" points="640.901,-4.832 494.452,115.128 348.006,-4.832 					"/>
					<polygon fill="#E18952" points="494.452,115.128 640.901,-4.832 787.345,115.128 					"/>
					<polygon fill="#F3A148" points="933.799,-4.832 787.345,115.128 640.901,-4.832 					"/>
					<polygon fill="#E67E51" points="787.345,115.128 933.799,-4.832 1080.244,115.128 					"/>
					<polygon fill="#C24C48" points="1226.685,-4.832 1080.244,115.128 933.799,-4.832 					"/>
					<polygon fill="#B73941" points="1080.244,115.128 1226.685,-4.832 1373.137,115.128 					"/>
					<polygon fill="#9F2839" points="1519.585,-4.832 1373.137,115.128 1226.685,-4.832 					"/>
					<polygon fill="#098F86" points="-91.34,115.128 -237.783,235.087 -384.232,115.128 					"/>
					<polygon fill="#40A088" points="-237.783,235.087 -91.34,115.128 55.111,235.087 					"/>
					<polygon fill="#73AB89" points="201.553,115.128 55.111,235.087 -91.34,115.128 					"/>
					<polygon fill="#A5B786" points="55.111,235.087 201.553,115.128 348.006,235.087 					"/>
					<polygon fill="#C9CB88" points="494.452,115.128 348.006,235.087 201.553,115.128 					"/>
					<polygon fill="#E8BE74" points="348.006,235.087 494.452,115.128 640.901,235.087 					"/>
					<polygon fill="#F6C676" points="787.345,115.128 640.901,235.087 494.452,115.128 					"/>
					<polygon fill="#EFA358" points="640.901,235.087 787.345,115.128 933.799,235.087 					"/>
					<polygon fill="#C76B4D" points="1080.244,115.128 933.799,235.087 787.345,115.128 					"/>
					<polygon fill="#B25044" points="933.799,235.087 1080.244,115.128 1226.685,235.087 					"/>
					<polygon fill="#973337" points="1373.137,115.128 1226.685,235.087 1080.244,115.128 					"/>
					<polygon fill="#8B1D33" points="1226.685,235.087 1373.137,115.128 1519.585,235.087 					"/>
					<polygon fill="#01717B" points="-384.232,355.05 -237.783,235.087 -91.34,355.05 					"/>
					<polygon fill="#047E7F" points="55.111,235.087 -91.34,355.05 -237.783,235.087 					"/>
					<polygon fill="#6AA58A" points="-91.34,355.05 55.111,235.087 201.553,355.05 					"/>
					<polygon fill="#8BB285" points="348.006,235.087 201.553,355.05 55.111,235.087 					"/>
					<polygon fill="#BEC681" points="201.553,355.05 348.006,235.087 494.452,355.05 					"/>
					<polygon fill="#D7B967" points="640.901,235.087 494.452,355.05 348.006,235.087 					"/>
					<polygon fill="#EEB767" points="494.452,355.05 640.901,235.087 787.345,355.05 					"/>
					<polygon fill="#D68751" points="933.799,235.087 787.345,355.05 640.901,235.087 					"/>
					<polygon fill="#C16448" points="787.345,355.05 933.799,235.087 1080.244,355.05 					"/>
					<polygon fill="#9C4742" points="1226.685,235.087 1080.244,355.05 933.799,235.087 					"/>
					<polygon fill="#84383D" points="1080.244,355.05 1226.685,235.087 1373.137,355.05 					"/>
					<polygon fill="#7A1E2C" points="1519.585,235.087 1373.137,355.05 1226.685,235.087 					"/>
				</g>
			</g>
		</g>
	</g>
</g>
</svg>
