<?xml version="1.0" encoding="utf-8"?>
<!-- Generator: Adobe Illustrator 16.0.0, SVG Export Plug-In . SVG Version: 6.00 Build 0)  -->
<!DOCTYPE svg PUBLIC "-//W3C//DTD SVG 1.0//EN" "http://www.w3.org/TR/2001/REC-SVG-20010904/DTD/svg10.dtd">
<svg version="1.0" id="Capa_1" xmlns="http://www.w3.org/2000/svg" xmlns:xlink="http://www.w3.org/1999/xlink" x="0px" y="0px"
	 width="311px" height="143.833px" viewBox="0 -9.833 311 143.833" enable-background="new 0 -9.833 311 143.833"
	 xml:space="preserve">
<polygon fill="#DEBF79" points="248.143,121.574 248.143,84.244 219.856,102.34 "/>
<polygon fill="#E0A365" points="219.856,102.34 266.701,90.533 213.623,72.545 "/>
<polyline fill="#E0A365" points="15.082,34.61 86.923,5.484 79.113,48.009 "/>
<polygon fill="#DEBF79" points="15.082,34.61 287.114,5.484 266.701,90.533 33.627,80.939 "/>
<g>
	<g>
		<path fill="#FBECFD" d="M50.68,46.73c1.465-0.973,3.377-1.556,5.274-1.715c1.321-0.11,2.674-0.134,2.804,0.013
			c0.292,0.329,0.416,3.094,0.2,3.366c-0.155,0.195-1.468,0.276-2.235,0.397c-0.181-0.678-0.273-1.018-0.456-1.695
			c-0.019-0.064-0.042-0.159-0.12-0.188c-0.222-0.082-0.545-0.17-0.992-0.135c-0.681,0.054-1.433,0.324-2.038,0.843
			c-0.957,0.82-1.494,1.93-1.529,3.293c-0.037,1.396,0.333,2.275,1.148,2.814c0.619,0.409,1.604,0.576,2.447,0.528
			c0.948-0.054,3.135-0.723,3.282-0.651c0.125,0.061,0.402,1.393,0.329,1.517c-0.269,0.451-3.326,0.915-4.398,0.97
			c-1.619,0.083-3.253-0.111-4.454-0.725c-1.308-0.668-2.334-1.986-2.298-3.668C47.693,49.418,49.084,47.791,50.68,46.73z"/>
		<path fill="#FBECFD" d="M61.796,54.082c0.063-0.004,0.105-0.041,0.107-0.075c0.114-3.143,0.175-4.719,0.297-7.882
			c-0.494,0.027-0.741,0.039-1.234,0.065c0.018-0.485-0.004-1.34,0.097-1.441c0.199-0.199,1.9-0.163,2.795-0.24
			c0.662-0.058,4.48-0.393,4.994-0.438c0.896-0.08,2.039-0.273,2.113-0.207c0.208,0.184,0.279,2.794,0.068,3.048
			c-0.147,0.178-1.369,0.248-2.096,0.357c-0.111-0.516-0.168-0.774-0.28-1.29c-0.036-0.15-0.115-0.246-0.413-0.254
			c-0.296-0.009-0.911-0.025-2.233,0.086c-0.064,0.005-0.149,0.012-0.213,0.018c-0.063,1.29-0.094,1.935-0.155,3.222
			c0.658-0.049,1.31-0.085,1.869-0.173c0.122-0.019,0.238-0.155,0.289-0.346c0.063-0.263,0.095-0.394,0.157-0.657
			c0.681-0.053,1.914-0.205,1.997-0.122c0.098,0.097-0.076,1.167-0.104,1.782c-0.027,0.617-0.003,1.576-0.098,1.679
			c-0.149,0.162-1.313,0.141-1.991,0.188c-0.031-0.269-0.048-0.402-0.079-0.671c-0.01-0.254-0.114-0.347-0.302-0.336
			c-0.583,0.033-1.186,0.052-1.799,0.095c-0.059,1.198-0.085,1.793-0.143,2.988c-0.013,0.32,0.135,0.362,1.083,0.304
			c0.866-0.053,1.407-0.131,1.693-0.207c0.208-0.055,0.323-0.154,0.416-0.347c0.269-0.56,0.402-0.843,0.672-1.406
			c0.715,0.038,2.006,0.09,2.062,0.169c0.14,0.205-0.578,2.798-0.92,3.065c-0.358,0.281-3.984,0.215-6.911,0.378
			c-0.971,0.054-2.77,0.289-2.887,0.174c-0.087-0.085,0.034-0.962,0.07-1.413C61.15,54.15,61.365,54.127,61.796,54.082z"/>
		<path fill="#FBECFD" d="M73.958,53.314c0.042-0.003,0.064-0.022,0.067-0.074c0.15-3.255,0.228-4.89,0.386-8.165
			c-0.495,0.029-0.742,0.045-1.236,0.074c0.024-0.485-0.013-1.368,0.095-1.475c0.309-0.307,3.494-0.624,4.104-0.377
			c1.171,0.472,3.997,4.924,5.665,7.149c0.051-0.004,0.073-0.005,0.125-0.009c0.074-2.021,0.198-4.101,0.301-6.167
			c-0.623,0.042-0.938,0.063-1.559,0.104c0.027-0.479,0.022-1.406,0.131-1.513c0.218-0.216,1.842-0.174,2.783-0.265
			c0.749-0.071,2.197-0.309,2.272-0.236c0.083,0.081-0.065,1.026-0.119,1.533c-0.377,0.057-0.565,0.085-0.943,0.141
			c-0.043,0.004-0.086,0.025-0.091,0.096c-0.277,3.937-0.415,5.899-0.681,9.807c-0.453,0.19-2.011,0.726-2.598,0.505
			c-1.023-0.385-3.544-3.705-5.833-6.513c-0.061,0.012-0.088,0.015-0.147,0.027c-0.094,1.782-0.203,3.476-0.313,5.2
			c0.625-0.027,0.936-0.042,1.562-0.07c-0.026,0.489,0.006,1.401-0.099,1.503c-0.225,0.216-2.028,0.127-3.021,0.188
			c-0.695,0.042-1.928,0.215-2.006,0.138c-0.088-0.087,0.048-0.998,0.092-1.482C73.321,53.386,73.533,53.362,73.958,53.314z"/>
		<path fill="#FBECFD" d="M92.104,52.069c0.042-0.003,0.066-0.043,0.068-0.08c0.225-3.402,0.339-5.107,0.571-8.529
			c-0.813,0.077-1.193,0.161-1.484,0.231c-0.297,0.072-0.375,0.214-0.432,0.399c-0.2,0.713-0.299,1.07-0.498,1.781
			C89.584,45.9,88.158,46,88.077,45.906c-0.207-0.239,0.196-3.392,0.511-3.69c0.126-0.12,1.262-0.107,2.013-0.181
			c0.559-0.055,3.41-0.338,4.204-0.417c0.666-0.066,3.439-0.339,4.012-0.403c0.854-0.096,1.983-0.28,2.042-0.227
			c0.235,0.214,0.21,3.422-0.069,3.749c-0.181,0.21-1.528,0.272-2.302,0.398c-0.085-0.699-0.126-1.049-0.212-1.748
			c-0.028-0.2-0.104-0.283-0.38-0.312c-0.273-0.028-0.531-0.042-1.475,0.049c-0.272,3.472-0.406,5.204-0.67,8.655
			c0.607-0.016,0.917-0.025,1.524-0.042c-0.033,0.498-0.01,1.468-0.134,1.587c-0.23,0.222-2.16,0.132-3.283,0.21
			c-1.017,0.07-3.193,0.375-3.324,0.245c-0.093-0.092,0.088-1.05,0.12-1.557C91.236,52.163,91.526,52.133,92.104,52.069z"/>
		<path fill="#FBECFD" d="M102.58,42.433c0.042-0.543,0.014-1.469,0.143-1.598c0.396-0.395,3.294-0.378,4.972-0.555
			c1.226-0.129,1.897-0.19,3.136-0.069c1.822,0.179,2.919,1.544,2.813,2.778c-0.14,1.638-1.393,2.904-2.936,3.594
			c-0.004,0.045-0.005,0.068-0.009,0.114c0.907,0.316,1.386,1.381,2.14,3.063c0.199,0.445,0.326,0.641,0.579,0.64
			c0.404,0.012,0.608,0.019,1.015,0.031c-0.044,0.521-0.037,1.481-0.156,1.6c-0.096,0.096-1.149,0.109-1.555,0.141
			c-0.467,0.036-2.516,0.309-2.678,0.225c-0.397-0.207-1.33-2.938-1.683-3.792c-0.23-0.562-0.597-0.759-1.088-0.717
			c-0.256,0.022-0.43,0.058-0.495,0.083c-0.104,1.219-0.155,1.826-0.26,3.042c0.457-0.014,0.688-0.021,1.146-0.036
			c-0.064,0.532-0.027,1.457-0.144,1.571c-0.205,0.205-1.999,0.15-3.039,0.228c-0.892,0.065-2.609,0.285-2.693,0.197
			c-0.084-0.088,0.097-1.025,0.137-1.548c0.418-0.054,0.626-0.082,1.044-0.136c0.044-0.003,0.069-0.042,0.07-0.061
			c0.274-3.539,0.413-5.315,0.696-8.875C103.272,42.385,103.043,42.402,102.58,42.433z M106.906,46.38
			c0.086,0.011,0.211,0,0.511-0.027c1.433-0.129,2.382-1.106,2.484-2.365c0.114-1.393-0.767-2.328-1.902-2.212
			c-0.364,0.037-0.563,0.076-0.693,0.126C107.143,43.696,107.064,44.591,106.906,46.38z"/>
		<path fill="#FBECFD" d="M117.284,50.389c-1.185-1.077-1.683-2.546-1.506-4.598c0.222-2.555,1.818-4.737,3.67-5.908
			c1.401-0.887,2.766-1.354,4.426-1.541c1.357-0.153,2.583,0.021,3.639,0.554c1.565,0.791,2.44,2.766,2.213,5.11
			c-0.188,1.943-1.12,4.1-2.69,5.494c-1.433,1.271-3.186,1.96-5.249,2.127C119.89,51.781,118.244,51.262,117.284,50.389z
			 M124.272,48.956c0.813-0.953,1.242-2.448,1.396-4.095c0.149-1.607-0.085-3-0.51-3.856c-0.358-0.722-1.011-1.029-1.808-0.942
			c-0.883,0.096-1.518,0.457-2.058,1.06c-0.688,0.768-1.285,2.211-1.451,4.069c-0.177,1.976,0.007,3.221,0.68,3.994
			c0.534,0.614,1.202,0.772,1.862,0.716C123.069,49.844,123.652,49.684,124.272,48.956z"/>
		<path fill="#FBECFD" d="M136.017,48.556c0.439-0.072,0.658-0.108,1.099-0.181c0.063-0.006,0.09-0.048,0.094-0.09
			c0.397-3.83,0.602-5.749,1.008-9.6c-0.499,0.042-0.749,0.062-1.248,0.103c0.061-0.592,0.049-1.589,0.199-1.74
			c0.456-0.458,3.509-0.475,5.283-0.688c2.271-0.273,3.776-0.11,4.789,0.328c1.726,0.747,2.879,2.707,2.627,4.976
			c-0.331,2.984-1.976,5.281-3.818,6.568c-1.353,0.944-3.285,1.415-4.822,1.553c-0.684,0.062-1.748,0.135-2.474,0.199
			c-0.962,0.085-2.835,0.353-2.927,0.26C135.737,50.155,135.942,49.086,136.017,48.556z M140.863,47.761
			c-0.049,0.27,0.172,0.413,0.472,0.385c0.834-0.078,1.787-0.349,2.686-1.155c1.08-0.969,1.669-2.711,1.815-4.065
			c0.235-2.185-0.105-3.384-1.13-4.313c-0.66-0.598-1.523-0.683-2.106-0.615c-0.303,0.036-0.501,0.078-0.659,0.158
			C141.506,42.008,141.289,43.929,140.863,47.761z"/>
		<path fill="#FBECFD" d="M152.101,46.945c0.065-0.006,0.112-0.053,0.117-0.096c0.445-3.974,0.67-5.966,1.123-9.96
			c-0.5,0.043-0.748,0.065-1.248,0.108c0.069-0.613,0.097-1.679,0.246-1.825c0.229-0.223,1.93-0.24,2.84-0.354
			c0.672-0.084,4.558-0.576,5.077-0.643c0.912-0.116,2.096-0.344,2.148-0.294c0.217,0.2,0.08,3.442-0.24,3.822
			c-0.18,0.211-1.404,0.338-2.146,0.49c-0.061-0.646-0.092-0.967-0.152-1.613c-0.021-0.188-0.094-0.308-0.391-0.313
			c-0.301-0.005-0.918-0.014-2.26,0.15c-0.066,0.008-0.148,0.019-0.215,0.027c-0.197,1.625-0.295,2.437-0.49,4.059
			c0.668-0.076,1.342-0.138,1.904-0.257c0.123-0.026,0.256-0.198,0.326-0.439c0.09-0.332,0.137-0.498,0.227-0.83
			c0.689-0.081,1.963-0.26,2.025-0.196c0.104,0.109-0.197,1.468-0.289,2.242c-0.092,0.775-0.127,1.96-0.271,2.113
			c-0.176,0.188-1.338,0.208-2.025,0.283c-0.004-0.337-0.008-0.506-0.012-0.844c0.02-0.319-0.082-0.432-0.271-0.415
			c-0.588,0.054-1.197,0.089-1.822,0.157c-0.184,1.511-0.273,2.265-0.456,3.772c-0.046,0.403,0.097,0.453,1.063,0.355
			c0.881-0.088,1.439-0.2,1.732-0.301c0.217-0.075,0.34-0.205,0.455-0.45c0.328-0.711,0.492-1.067,0.822-1.781
			c0.719,0.03,2.012,0.087,2.063,0.163c0.168,0.254-0.783,3.507-1.242,3.875c-0.383,0.306-4.047,0.375-7.022,0.658
			c-0.984,0.094-2.851,0.385-2.937,0.298c-0.094-0.095,0.135-1.219,0.219-1.789C151.439,47.048,151.661,47.014,152.101,46.945z"/>
		<path fill="#FBECFD" d="M169.469,34.826c0.078-0.615,0.092-1.716,0.252-1.872c0.264-0.258,2.262-0.298,3.283-0.433
			c1.064-0.142,3.143-0.505,3.219-0.429c0.086,0.085-0.188,1.296-0.266,1.897c-0.551,0.098-0.826,0.149-1.377,0.247
			c-0.043,0.006-0.043,0.026-0.057,0.117c-0.553,4.163-0.826,6.237-1.371,10.379c0.572-0.027,0.857-0.041,1.43-0.067
			c-0.074,0.6-0.088,1.749-0.258,1.909c-0.252,0.238-2.145,0.2-3.219,0.311c-0.988,0.102-3.09,0.441-3.184,0.347
			c-0.094-0.096,0.18-1.291,0.254-1.903c0.502-0.07,0.752-0.105,1.252-0.175c0.045-0.005,0.094-0.055,0.098-0.098
			c0.51-4.123,0.766-6.19,1.281-10.333C170.272,34.762,170.006,34.784,169.469,34.826z"/>
		<path fill="#FBECFD" d="M176.498,44.5c0.441-0.083,0.664-0.125,1.107-0.209c0.064-0.007,0.092-0.054,0.098-0.099
			c0.547-4.199,0.822-6.302,1.377-10.521c-0.502,0.049-0.758,0.071-1.26,0.12c0.082-0.648,0.094-1.731,0.268-1.905
			c0.48-0.479,3.537-0.544,5.322-0.789c2.289-0.313,3.795-0.145,4.793,0.327c1.701,0.805,2.783,2.938,2.447,5.418
			c-0.441,3.263-2.178,5.787-4.074,7.21c-1.395,1.045-3.35,1.578-4.898,1.744c-0.688,0.073-1.76,0.164-2.49,0.242
			c-0.969,0.103-2.869,0.393-2.949,0.311C176.145,46.256,176.401,45.083,176.498,44.5z M181.391,43.583
			c-0.061,0.294,0.152,0.452,0.455,0.418c0.84-0.093,1.809-0.399,2.738-1.289c1.121-1.07,1.777-2.979,1.977-4.46
			c0.318-2.39,0.02-3.7-0.973-4.707c-0.639-0.65-1.506-0.736-2.094-0.658c-0.307,0.041-0.502,0.089-0.662,0.177
			C182.252,37.284,181.963,39.385,181.391,43.583z"/>
		<path fill="#FBECFD" d="M192.969,31.719c0.09-0.646,0.119-1.799,0.293-1.967c0.271-0.264,2.268-0.319,3.293-0.465
			c1.07-0.152,3.164-0.532,3.234-0.462c0.088,0.087-0.213,1.361-0.303,1.992c-0.553,0.105-0.828,0.157-1.381,0.262
			c-0.045,0.006-0.049,0.029-0.063,0.124c-0.639,4.373-0.953,6.553-1.58,10.905c0.574-0.031,0.857-0.045,1.432-0.076
			c-0.086,0.63-0.115,1.831-0.297,2.004c-0.258,0.244-2.156,0.221-3.234,0.343c-0.99,0.112-3.105,0.47-3.191,0.383
			c-0.096-0.098,0.205-1.361,0.293-2.005c0.502-0.076,0.756-0.114,1.258-0.19c0.043-0.005,0.096-0.056,0.102-0.102
			c0.592-4.334,0.889-6.506,1.486-10.86C193.774,31.649,193.504,31.673,192.969,31.719z"/>
		<path fill="#FBECFD" d="M201.467,41.883c-1.104-1.274-1.486-3.042-1.137-5.527c0.436-3.093,2.225-5.756,4.182-7.195
			c1.482-1.091,2.896-1.674,4.582-1.923c1.379-0.204,2.594-0.01,3.611,0.615c1.512,0.929,2.23,3.287,1.813,6.108
			c-0.346,2.339-1.447,4.943-3.146,6.655c-1.545,1.556-3.375,2.422-5.471,2.667C203.977,43.509,202.362,42.918,201.467,41.883z
			 M208.629,40.016c0.895-1.164,1.449-2.968,1.738-4.953c0.281-1.937,0.16-3.615-0.195-4.638c-0.303-0.865-0.938-1.222-1.746-1.105
			c-0.895,0.128-1.564,0.572-2.156,1.308c-0.756,0.938-1.477,2.691-1.797,4.936c-0.34,2.387-0.256,3.885,0.357,4.804
			c0.486,0.729,1.15,0.907,1.82,0.826C207.342,41.108,207.942,40.906,208.629,40.016z"/>
		<path fill="#FBECFD" d="M217.117,28.411c0.104-0.703,0.164-2.005,0.346-2.188c0.445-0.445,5.15-1.083,5.504-0.834
			c0.477,0.335,1.078,6.413,1.57,9.596c0.07-0.009,0.102-0.014,0.172-0.023c1.553-3.462,3.412-9.564,4.73-10.568
			c0.646-0.493,4.998-0.896,5.096-0.798c0.098,0.096-0.262,1.533-0.377,2.259c-0.443,0.098-0.664,0.148-1.107,0.246
			c-0.045,0.006-0.076,0.058-0.084,0.107c-0.553,3.553-1.209,7.863-1.773,11.619c0.475-0.033,0.713-0.049,1.188-0.082
			c-0.104,0.649-0.16,1.917-0.352,2.097c-0.217,0.204-1.777,0.227-2.58,0.329c-1.064,0.135-3.121,0.476-3.191,0.404
			c-0.094-0.098,0.242-1.432,0.342-2.074c0.5-0.094,0.75-0.141,1.25-0.235c0.064-0.008,0.072-0.059,0.08-0.109
			c0.389-2.58,0.783-5.341,1.205-8.338c-0.07,0.01-0.105,0.017-0.176,0.027c-2.002,4.512-3.676,9.291-4.836,10.107
			c-0.145,0.1-1.736,0.371-1.895,0.262c-0.709-0.493-1.133-5.297-1.766-9.458c-0.078,0.011-0.117,0.019-0.197,0.03
			c-0.5,3.03-0.979,5.79-1.445,8.614c0.602-0.038,0.902-0.056,1.504-0.094c-0.096,0.634-0.145,1.875-0.326,2.048
			c-0.232,0.22-1.887,0.232-2.797,0.343c-0.801,0.098-2.148,0.328-2.205,0.27c-0.096-0.097,0.205-1.398,0.297-2.027
			c0.455-0.085,0.682-0.129,1.137-0.215c0.047-0.029,0.074-0.057,0.082-0.105c0.525-3.454,1.238-7.878,1.797-11.312
			C217.83,28.35,217.594,28.37,217.117,28.411z"/>
		<path fill="#FBECFD" d="M234.453,37.396c0.045-0.006,0.117-0.066,0.152-0.143c1.871-4.199,4.758-13.076,6.828-14.852
			c0.186-0.159,2.727-0.753,3.021-0.535c0.949,0.7,1.32,9.941,1.848,13.901c0.438-0.021,0.656-0.031,1.096-0.052
			c-0.113,0.693-0.168,1.963-0.373,2.158c-0.221,0.208-1.783,0.24-2.609,0.351c-1.131,0.15-3.432,0.537-3.504,0.463
			c-0.1-0.102,0.229-1.445,0.365-2.159c0.432-0.088,0.65-0.133,1.082-0.222c0.045-0.006,0.096-0.063,0.086-0.135
			c-0.049-0.366-0.139-1.172-0.182-1.517c-0.012-0.092-0.047-0.118-0.133-0.105c-1.617,0.245-2.426,0.367-4.043,0.608
			c-0.195,0.57-0.482,1.3-0.652,1.841c0.475-0.034,0.709-0.051,1.184-0.085c-0.107,0.682-0.156,1.933-0.357,2.123
			c-0.264,0.249-1.998,0.261-3.063,0.399c-0.719,0.093-2.082,0.323-2.131,0.273c-0.1-0.102,0.244-1.427,0.373-2.104
			C233.846,37.521,234.049,37.479,234.453,37.396z M241.406,26.962c-0.807,1.957-1.695,4.054-2.383,5.817
			c-0.039,0.102-0.045,0.156,0.021,0.146c1.221-0.173,1.83-0.26,3.053-0.435c-0.188-1.613-0.379-3.621-0.582-5.547
			C241.471,26.95,241.451,26.955,241.406,26.962z"/>
		<path fill="#FBECFD" d="M251.887,34.307c0.01,0.074,0.053,0.191,0.096,0.214c0.305,0.156,0.813,0.367,1.357,0.29
			c0.523-0.074,1.184-0.322,1.615-0.735c0.375-0.359,0.65-0.857,0.756-1.482c0.217-1.304-0.293-1.484-1.869-1.987
			c-2.041-0.652-3.494-1.976-3.076-4.508c0.264-1.603,1.131-3.05,2.133-4.095c1.143-1.189,2.855-2.086,4.973-2.44
			c1.258-0.21,2.76-0.173,2.855-0.019c0.334,0.537-0.037,4.208-0.482,4.76c-0.217,0.269-1.535,0.471-2.322,0.7
			c-0.039-0.943-0.059-1.414-0.098-2.355c-0.01-0.073-0.023-0.127-0.059-0.168c-0.189-0.218-0.611-0.307-1.029-0.239
			c-0.529,0.086-0.998,0.314-1.398,0.685c-0.33,0.304-0.721,0.85-0.842,1.577c-0.217,1.301,0.23,1.492,2.104,2.006
			c2.26,0.62,3.277,1.869,2.857,4.362c-0.279,1.654-1.109,3.281-2.322,4.421c-1.213,1.141-2.732,1.835-4.844,2.122
			c-0.914,0.125-3.098,0.192-3.271-0.061c-0.35-0.511-0.1-4.174,0.307-4.723c0.213-0.29,1.611-0.583,2.371-0.796
			C251.774,32.822,251.811,33.316,251.887,34.307z"/>
		<path fill="#FBECFD" d="M202.26,65.215c-0.252,1.781-0.092,2.577,0.309,3.158c0.334,0.486,0.869,0.688,1.586,0.641
			c0.783-0.053,1.301-0.445,1.729-0.936c0.563-0.646,0.998-1.989,1.223-3.553c0.275-1.918,0.672-4.836,0.93-6.752
			c0.006-0.047-0.033-0.068-0.076-0.064c-0.594,0.025-0.895,0.038-1.486,0.063c0.09-0.639,0.148-1.836,0.311-1.99
			c0.221-0.209,1.902-0.179,2.846-0.268c0.896-0.084,2.477-0.31,2.543-0.24c0.096,0.101-0.193,1.339-0.313,2.012
			c-0.406,0.065-0.609,0.098-1.016,0.163c-0.404,2.61-0.607,3.913-1.008,6.516c-0.414,2.857-1.465,4.691-2.367,5.623
			c-0.914,0.944-2.066,1.727-4.031,1.848c-1.855,0.113-3.115-0.209-4.02-1.189c-1.035-1.126-1.072-2.973-0.834-4.695
			c0.389-2.791,0.58-4.186,0.971-6.985c0.01-0.07,0-0.141-0.086-0.133c-0.373,0.014-0.561,0.023-0.934,0.037
			c0.092-0.652,0.127-1.805,0.295-1.959c0.238-0.221,2.029-0.183,2.947-0.266c1.135-0.103,3.229-0.394,3.314-0.304
			c0.092,0.097-0.193,1.345-0.309,2.006c-0.582,0.071-0.875,0.105-1.457,0.175C202.895,60.962,202.684,62.382,202.26,65.215z"/>
		<path fill="#FBECFD" d="M214.465,67.758c0.01,0.069,0.049,0.184,0.094,0.208c0.314,0.177,0.799,0.394,1.33,0.354
			c0.508-0.036,1.146-0.229,1.557-0.59c0.357-0.313,0.617-0.764,0.703-1.346c0.182-1.21-0.318-1.41-1.869-1.981
			c-2.01-0.74-3.455-2.071-3.111-4.422c0.217-1.487,1.023-2.792,1.979-3.712c1.082-1.046,2.736-1.787,4.795-1.991
			c1.223-0.121,2.686-0.011,2.787,0.155c0.326,0.533,0.027,3.986-0.357,4.442c-0.195,0.231-1.482,0.354-2.244,0.519
			c-0.063-0.887-0.092-1.333-0.154-2.22c-0.01-0.071-0.027-0.12-0.063-0.16c-0.195-0.219-0.604-0.328-1.01-0.289
			c-0.514,0.048-0.967,0.233-1.35,0.557c-0.314,0.266-0.682,0.753-0.783,1.43c-0.178,1.208,0.262,1.416,2.105,2.015
			c2.219,0.721,3.24,1.956,2.891,4.273c-0.23,1.537-1.002,3.019-2.158,4.013c-1.152,0.994-2.621,1.549-4.674,1.686
			c-0.889,0.059-3.002,0.014-3.188-0.266c-0.348-0.516-0.168-3.956,0.184-4.411c0.191-0.247,1.555-0.449,2.293-0.601
			C214.317,66.354,214.367,66.823,214.465,67.758z"/>
		<path fill="#FBECFD" d="M224.992,56.191c0.109-0.712,0.178-2.045,0.355-2.215c0.424-0.403,5.041-0.818,5.395-0.551
			c0.494,0.374,0.994,6.608,1.451,9.885c0.068-0.006,0.104-0.008,0.17-0.014c1.549-3.449,3.441-9.611,4.719-10.535
			c0.615-0.446,4.877-0.652,4.99-0.533c0.102,0.107-0.271,1.55-0.391,2.286c-0.434,0.075-0.648,0.112-1.084,0.187
			c-0.043,0.004-0.074,0.057-0.082,0.108c-0.568,3.603-1.252,7.964-1.834,11.769c0.463-0.007,0.697-0.014,1.162-0.021
			c-0.105,0.656-0.176,1.957-0.361,2.125c-0.207,0.185-1.74,0.135-2.527,0.195c-1.041,0.081-3.047,0.321-3.125,0.236
			c-0.102-0.108,0.246-1.451,0.35-2.101c0.488-0.068,0.736-0.104,1.227-0.173c0.063-0.005,0.07-0.054,0.078-0.103
			c0.408-2.609,0.813-5.414,1.25-8.449c-0.068,0.006-0.102,0.009-0.172,0.015c-1.996,4.497-3.693,9.31-4.813,10.056
			c-0.137,0.09-1.697,0.283-1.855,0.166c-0.734-0.553-1.064-5.472-1.648-9.755c-0.076,0.007-0.113,0.011-0.191,0.018
			c-0.514,3.068-1.01,5.859-1.49,8.719c0.59-0.006,0.889-0.007,1.477-0.013c-0.1,0.642-0.164,1.913-0.344,2.074
			c-0.223,0.199-1.844,0.129-2.734,0.192c-0.785,0.058-2.096,0.228-2.158,0.158c-0.1-0.106,0.213-1.417,0.311-2.053
			c0.445-0.063,0.668-0.093,1.113-0.155c0.047-0.027,0.068-0.059,0.076-0.107c0.545-3.498,1.281-7.979,1.855-11.455
			C225.692,56.166,225.459,56.175,224.992,56.191z"/>
		<path fill="#FBECFD" d="M243.889,54.182c0.111-0.687,0.189-1.99,0.373-2.168c0.453-0.436,3.453-0.427,5.242-0.626
			c0.969-0.108,1.967-0.225,3.074,0.086c1.65,0.465,2.443,2.484,2.076,4.692c-0.336,2.028-1.793,4.055-3.326,5.044
			c-1.082,0.699-2.617,1.059-3.129,1.106c-0.277,0.025-0.854,0.078-0.998,0.067c-0.24,1.425-0.359,2.135-0.6,3.559
			c0.771-0.035,1.154-0.05,1.926-0.085c-0.107,0.668-0.184,1.966-0.367,2.131c-0.316,0.281-2.535,0.205-3.832,0.31
			c-0.893,0.071-2.635,0.294-2.703,0.22c-0.098-0.104,0.232-1.453,0.359-2.112c0.404-0.063,0.609-0.094,1.016-0.157
			c0.064-0.006,0.094-0.058,0.102-0.109c0.773-4.8,1.158-7.206,1.939-12.026C244.58,54.141,244.352,54.154,243.889,54.182z
			 M247.594,59.974c-0.037,0.231,0.344,0.218,0.707,0.183c0.537-0.051,1.107-0.342,1.57-0.834c0.523-0.56,0.943-1.514,1.131-2.65
			c0.313-1.91-0.396-3.354-1.623-3.222c-0.322,0.035-0.607,0.088-0.701,0.15C248.244,56.152,248.026,57.427,247.594,59.974z"/>
	</g>
</g>
</svg>
