<?xml version="1.0" encoding="utf-8"?>
<!-- Generator: Adobe Illustrator 16.0.0, SVG Export Plug-In . SVG Version: 6.00 Build 0)  -->
<!DOCTYPE svg PUBLIC "-//W3C//DTD SVG 1.1//EN" "http://www.w3.org/Graphics/SVG/1.1/DTD/svg11.dtd">
<svg version="1.1" id="Capa_1" xmlns="http://www.w3.org/2000/svg" xmlns:xlink="http://www.w3.org/1999/xlink" x="0px" y="0px"
	 width="65.402px" height="65.402px" viewBox="0 0 65.402 65.402" enable-background="new 0 0 65.402 65.402" xml:space="preserve">
<g>
	<g>
		<path fill="#FFFFFF" d="M12.665,30.927v13.81c0,2.771,8.975,7.015,20.037,7.015s20.036-4.242,20.036-7.015v-13.81l-20.036,7.158
			L12.665,30.927z"/>
		<path fill="#FFFFFF" d="M11.073,48.842v-21.38H8.737v21.38c-0.689,0.406-1.168,1.122-1.168,1.98c0,1.29,1.043,2.335,2.336,2.335
			c1.291,0,2.336-1.045,2.336-2.335C12.24,49.964,11.759,49.249,11.073,48.842z"/>
		<path fill="#FFFFFF" d="M30.424,23.125c0.336-0.948,1.215-1.638,2.275-1.638c1.348,0,2.436,1.091,2.436,2.438
			c0,1.344-1.088,2.436-2.436,2.436c-0.77,0-1.425-0.379-1.874-0.936l-18.609,2.866l20.485,7.312l32.7-11.679L32.702,12.245
			L0,23.924l7.594,2.711L30.424,23.125z"/>
	</g>
</g>
</svg>
