<?xml version="1.0" encoding="utf-8"?>
<!-- Generator: Adobe Illustrator 16.0.0, SVG Export Plug-In . SVG Version: 6.00 Build 0)  -->
<!DOCTYPE svg PUBLIC "-//W3C//DTD SVG 1.1//EN" "http://www.w3.org/Graphics/SVG/1.1/DTD/svg11.dtd">
<svg version="1.1" id="Capa_1" xmlns="http://www.w3.org/2000/svg" xmlns:xlink="http://www.w3.org/1999/xlink" x="0px" y="0px"
	 width="612px" height="792px" viewBox="0 0 612 792" enable-background="new 0 0 612 792" xml:space="preserve">
<g>
	<g>
		<path fill="#FFFFFF" d="M404.673,116.509V90H207.329v26.509H57.116v585.493h497.769V116.509H404.673z M225,107.672h162v8.836
			v80.99H225v-80.99V107.672z M404.673,215.171h64.062v388.167H143.268V215.171h64.062H404.673z M537.213,684.329H74.789V134.18
			h132.541v63.319h-81.734V621.01h360.81V197.499h-81.734V134.18h132.54v550.149H537.213z"/>
		<rect x="216.164" y="257.885" fill="#FFFFFF" width="179.671" height="17.672"/>
		<rect x="216.164" y="302.064" fill="#FFFFFF" width="179.671" height="17.673"/>
		<rect x="216.164" y="346.244" fill="#FFFFFF" width="179.671" height="17.672"/>
		<rect x="216.164" y="390.425" fill="#FFFFFF" width="179.671" height="17.672"/>
		<rect x="216.164" y="434.604" fill="#FFFFFF" width="179.671" height="17.673"/>
		<rect x="216.164" y="478.784" fill="#FFFFFF" width="179.671" height="17.673"/>
		<rect x="216.164" y="522.966" fill="#FFFFFF" width="179.671" height="17.672"/>
	</g>
</g>
</svg>
